<?xml version="1.0" encoding="UTF-8"?>
<svg width="581px" height="221px" viewBox="0 0 581 221" version="1.1" xmlns="http://www.w3.org/2000/svg" xmlns:xlink="http://www.w3.org/1999/xlink">
    <!-- Generator: sketchtool 53 (72520) - https://sketchapp.com -->
    <title>38FAD835-5FEB-43E0-92C6-09E3895D6B59</title>
    <desc>Created with sketchtool.</desc>
    <g id="Page-1" stroke="none" stroke-width="1" fill="none" fill-rule="evenodd">
        <g id="CRED-SV-SCROLL" transform="translate(-96.000000, -5608.000000)" fill="#FFFFFF">
            <g id="Group-26" transform="translate(84.000000, 5449.000000)">
                <g id="Group-23" transform="translate(12.000000, 134.000000)">
                    <text id="bgv-india@springrole" font-family="AvenirNext-Regular, Avenir Next" font-size="30" font-weight="normal" line-spacing="75">
                        <tspan x="48" y="30.3989873">bgv-india@springrole.com</tspan>
                    </text>
                    <text id="No.19,-2nd-Floor,-Am" font-family="AvenirNext-Regular, Avenir Next" font-size="30" font-weight="normal" line-spacing="45">
                        <tspan x="48" y="145.398987">No.19, 2nd Floor, Amar Plaza,</tspan>
                        <tspan x="48" y="190.398987">Krishnanagar Insutrial Layout Hosur Rd,</tspan>
                        <tspan x="48" y="235.398987">Bengaluru, Karnataka, 560029</tspan>
                    </text>
                    <g id="maps-and-flags" transform="translate(5.000000, 123.000000)" fill-rule="nonzero">
                        <path d="M9.5,0 C4.26167171,0 0,4.22409109 0,9.41617554 C0,15.8597146 8.50156935,25.3192066 8.8635312,25.718754 C9.20351405,26.0940787 9.79710075,26.0934185 10.1364688,25.718754 C10.4984306,25.3192066 19,15.8597146 19,9.41617554 C18.9998975,4.22409109 14.7382771,0 9.5,0 Z M9.5,14.1537165 C6.86446688,14.1537165 4.72036165,12.0284678 4.72036165,9.41617554 C4.72036165,6.80388329 6.86451811,4.67868539 9.5,4.67868539 C12.1354819,4.67868539 14.2795871,6.80393407 14.2795871,9.41622632 C14.2795871,12.0285186 12.1354819,14.1537165 9.5,14.1537165 Z" id="Shape"></path>
                    </g>
                    <g id="envelope" transform="translate(0.000000, 29.000000)">
                        <path d="M2.49548694,6.29714896 C2.82438344,6.52924734 3.81579904,7.21858007 5.46978457,8.36479138 C7.12382092,9.51100269 8.39092618,10.3935559 9.27115119,11.0125019 C9.36785855,11.0803476 9.57331723,11.2278294 9.88762885,11.4551507 C10.2019913,11.6826244 10.4631977,11.8664431 10.6710449,12.0066575 C10.8790445,12.1468212 11.1304938,12.3040606 11.4256469,12.4781217 C11.7206983,12.6520303 11.9988273,12.7828429 12.2599829,12.8694415 C12.5211893,12.9567515 12.7629831,13 12.9854151,13 L13,13 L13.0146357,13 C13.2370677,13 13.4789631,12.9567007 13.7401696,12.8694415 C14.0012236,12.7828429 14.2796066,12.6518778 14.574404,12.4781217 C14.8693538,12.3038573 15.1208031,12.1467703 15.3288027,12.0066575 C15.5368023,11.8664431 15.7978054,11.6826244 16.1122695,11.4551507 C16.4265303,11.2276262 16.6322431,11.0803476 16.7289504,11.0125019 C17.6186785,10.3935559 19.8822812,8.82161915 23.5190471,6.29684403 C24.2251176,5.80373024 24.8150172,5.20872084 25.2888985,4.51222239 C25.7631356,3.81602887 26,3.08568379 26,2.32159374 C26,1.68308177 25.7701485,1.13650455 25.3106488,0.681912893 C24.8511999,0.227219596 24.3070368,0 23.6785152,0 L2.32133238,0 C1.57658915,0 1.00345956,0.251461097 0.602045244,0.75438329 C0.200681748,1.25740713 0,1.88616151 0,2.64059562 C0,3.24998729 0.266084992,3.91035219 0.798000883,4.62128373 C1.32986596,5.3322661 1.89588098,5.89093866 2.49548694,6.29714896 Z" id="Path"></path>
                        <path d="M24.5488842,7.36787188 C21.3766044,9.69470797 18.9678184,11.5030436 17.3236948,12.7924934 C16.7723674,13.2325716 16.3251158,13.5761091 15.9816351,13.8222798 C15.6381544,14.0686157 15.1813489,14.3201834 14.6105581,14.5768728 C14.0399705,14.8339477 13.5082081,14.9620996 13.0148135,14.9620996 L13.0000254,14.9620996 L12.9854406,14.9620996 C12.4921476,14.9620996 11.9600803,14.8339477 11.3894927,14.5768728 C10.8189052,14.3201834 10.3617948,14.0686157 10.0184158,13.8222798 C9.67513833,13.5761091 9.22773427,13.2325716 8.67645765,12.7924934 C7.37058052,11.7548316 4.9669779,9.94638583 1.46554814,7.36787188 C0.914068257,6.96981334 0.425603027,6.51354398 0,6 L0,18.4839374 C0,19.1761892 0.227208494,19.7681553 0.681879572,20.2608271 C1.13644901,20.7536641 1.68305035,21 2.3214803,21 L23.6786722,21 C24.3169497,21 24.8635002,20.7536641 25.3181204,20.2608271 C25.7728931,19.7679901 26,19.1762443 26,18.4839374 L26,6 C25.5840016,6.50291513 25.1005166,6.9591845 24.5488842,7.36787188 Z" id="Path"></path>
                    </g>
                </g>
            </g>
        </g>
    </g>
</svg>