<?xml version="1.0" encoding="UTF-8"?>
<svg width="307px" height="48px" viewBox="0 0 307 48" version="1.1" xmlns="http://www.w3.org/2000/svg" xmlns:xlink="http://www.w3.org/1999/xlink">
    <!-- Generator: sketchtool 53 (72520) - https://sketchapp.com -->
    <title>570359EC-072C-4659-B29B-68BC24D6AE19</title>
    <desc>Created with sketchtool.</desc>
    <g id="Page-1" stroke="none" stroke-width="1" fill="none" fill-rule="evenodd">
        <g id="CRED-SV-SCROLL" transform="translate(-602.000000, -2700.000000)">
            <g id="Group-10" transform="translate(75.000000, 2520.000000)">
                <g id="Group-14" transform="translate(527.000000, 180.000000)">
                    <rect id="Rectangle" fill="#191C27" fill-rule="nonzero" x="0" y="0" width="307" height="48" rx="24"></rect>
                    <text id="CRED-Exclusive" font-family="AvenirNext-Medium, Avenir Next" font-size="30" font-weight="400" fill="#FFFFFF">
                        <tspan x="65" y="33">CRED Exclusive</tspan>
                    </text>
                    <g id="star-2" transform="translate(17.000000, 7.000000)">
                        <path d="M31.2449832,10.8377543 L20.8800571,9.89267878 L16.7628117,0.493597833 C16.474562,-0.164532611 15.5253755,-0.164532611 15.2371258,0.493597833 L11.1199429,9.89274022 L0.755016823,10.8377543 C0.0292676243,10.9039299 -0.264044552,11.7913707 0.283517344,12.2642464 L8.10388371,19.0183324 L5.81526124,29.0015647 C5.65501142,29.7005557 6.42288557,30.249008 7.04957238,29.8831683 L16,24.6583093 L24.9504276,29.8831683 C25.5771144,30.249008 26.3450511,29.7005557 26.1848013,29.0015647 L23.8961163,19.0183324 L31.7164827,12.2642464 C32.2640446,11.7913707 31.9707324,10.9039299 31.2449832,10.8377543 Z" id="Path" fill="#FFDC64"></path>
                        <path d="M16.9423814,0.493597833 C16.6510438,-0.164532611 15.6916893,-0.164532611 15.4003518,0.493597833 L11.239064,9.89274022 L0.763104855,10.8377543 C0.0295811504,10.9039299 -0.266873099,11.7913707 0.286554491,12.2642464 L8.19069564,19.0183324 L5.87755656,29.0015647 C5.71559008,29.7005557 6.49169,30.249008 7.12509012,29.8831683 L9.14417539,28.717016 C9.42363705,17.5279382 14.7684046,9.64849893 19,5.14100277 L16.9423814,0.493597833 Z" id="Path" fill="#FFC850"></path>
                    </g>
                </g>
            </g>
        </g>
    </g>
</svg>