<?xml version="1.0" encoding="UTF-8"?>
<svg width="383px" height="33px" viewBox="0 0 383 33" version="1.1" xmlns="http://www.w3.org/2000/svg" xmlns:xlink="http://www.w3.org/1999/xlink">
    <!-- Generator: sketchtool 53 (72520) - https://sketchapp.com -->
    <title>B4B61C7E-E45B-4D96-BA42-EBA237B6964A</title>
    <desc>Created with sketchtool.</desc>
    <g id="Page-1" stroke="none" stroke-width="1" fill="none" fill-rule="evenodd">
        <g id="CRED-SV-SCROLL" transform="translate(-112.000000, -6025.000000)" fill="#FFFFFF">
            <g id="Group-27" transform="translate(112.000000, 6025.000000)">
                <g id="Group-24">
                    <g id="Group-25">
                        <g id="Rectangle" transform="translate(340.000000, 3.000000)" fill-rule="nonzero">
                            <g id="Mask">
                                <path d="M42.2569584,4.82585883 C41.7305274,2.53684921 39.8600552,0.848082611 37.6082979,0.596167151 C32.2760762,0.0003670946 26.8790493,-0.00274297281 21.5068792,0.0003670946 C16.1338213,-0.00274297281 10.7359067,0.0003670946 5.40368495,0.596167151 C3.15325923,0.848082611 1.28411866,2.53684921 0.757687713,4.82585883 C0.00843354806,8.08565376 0,11.6440152 0,15.0002222 C0,18.3564292 0,21.9143463 0.749254165,25.173697 C1.27479737,27.4622623 3.14438181,29.1510289 5.39613915,29.4033887 C10.727917,29.999633 16.1253878,30.0027431 21.4984456,29.999633 C26.8723912,30.0027431 32.2685304,29.999633 37.5998644,29.4033887 C39.8502901,29.1514732 41.7212061,27.4627066 42.2476371,25.173697 C42.9973351,21.9139021 42.9999983,18.3559849 42.9999983,15.0002222 C42.9999983,11.6440152 43.0062125,8.08565376 42.2569584,4.82585883 Z M15.9509465,21.680647 C15.9509465,16.9195781 15.9509465,12.2082703 15.9509465,7.44675706 C20.5081695,9.82684722 25.0352094,12.1909427 29.621284,14.5856946 C25.0494132,16.9591204 20.520154,19.3089984 15.9509465,21.680647 Z" id="Shape"></path>
                            </g>
                            <rect x="-7" y="0" width="73" height="39"></rect>
                        </g>
                        <g id="linkedin-logo" transform="translate(271.000000, 0.000000)" fill-rule="nonzero">
                            <path d="M32,19.0060754 L32,31 L25.1413639,31 L25.1413639,19.8093562 C25.1413639,16.9981752 24.1493361,15.0796541 21.6667372,15.0796541 C19.7715877,15.0796541 18.643783,16.3725967 18.1476203,17.6233011 C17.9666835,18.070423 17.9201101,18.6927582 17.9201101,19.3186384 L17.9201101,31 L11.0591676,31 C11.0591676,31 11.1515704,12.0467224 11.0591676,10.0830215 L17.9194405,10.0830215 L17.9194405,13.0479195 C17.905528,13.0700945 17.8874492,13.0940044 17.8743551,13.1155007 L17.9194405,13.1155007 L17.9194405,13.0479195 C18.8308948,11.6247172 20.4586566,9.59162486 24.1020932,9.59162486 C28.6160649,9.59154943 32,12.581187 32,19.0060754 Z M3.88232969,0 C1.53521019,0 0,1.56077829 0,3.61325492 C0,5.62100428 1.49079437,7.22914974 3.7912661,7.22914974 L3.83709549,7.22914974 C6.22967239,7.22914974 7.71763962,5.62130598 7.71763962,3.61325492 C7.67255421,1.56077829 6.22967239,0 3.88232969,0 Z M0.407479825,31 L7.26581837,31 L7.26581837,10.0830215 L0.407479825,10.0830215 L0.407479825,31 Z" id="LinkedIn"></path>
                        </g>
                        <g id="facebook-logo" transform="translate(216.000000, 0.000000)">
                            <path d="M16.3598299,0.00645006918 L12.2823029,0 C7.70134118,0 4.74092247,2.99444462 4.74092247,7.62914183 L4.74092247,11.1466871 L0.641151456,11.1466871 C0.286882565,11.1466871 0,11.4298451 0,11.7791163 L0,16.8756385 C0,17.2249098 0.287209683,17.5077453 0.641151456,17.5077453 L4.74092247,17.5077453 L4.74092247,30.3678932 C4.74092247,30.7171645 5.02780504,31 5.38207393,31 L10.7311089,31 C11.0853778,31 11.3722604,30.716842 11.3722604,30.3678932 L11.3722604,17.5077453 L16.1658489,17.5077453 C16.5201178,17.5077453 16.8070003,17.2249098 16.8070003,16.8756385 L16.808963,11.7791163 C16.808963,11.6114145 16.7412496,11.4508078 16.6211973,11.3321265 C16.5011449,11.2134453 16.3375859,11.1466871 16.1674845,11.1466871 L11.3722604,11.1466871 L11.3722604,8.16482007 C11.3722604,6.7316147 11.7186784,6.0040469 13.6123651,6.0040469 L16.3591757,6.00307939 C16.7131174,6.00307939 17,5.71992135 17,5.37097261 L17,0.638556849 C17,0.28993061 16.7134446,0.0070950761 16.3598299,0.00645006918 Z" id="Path"></path>
                        </g>
                        <g id="twitter" transform="translate(144.000000, 3.000000)">
                            <path d="M12.3126655,27.042391 C10.885475,27.042391 9.41648601,26.9266839 7.93868416,26.6947656 C5.33584929,26.2858836 2.70103608,24.9228595 1.95546252,24.5147337 L0,23.4443804 L2.11711673,22.7473651 C4.43139124,21.985564 5.83919331,21.5129045 7.58188655,20.7727826 C5.83692708,19.9267851 4.49207452,18.4049474 3.8447021,16.4376753 L3.35218541,14.940794 L3.75606924,15.0025548 C3.37308466,14.6161084 3.07067539,14.223864 2.83625153,13.8671636 C2.00254867,12.5994277 1.56114697,11.0503648 1.65506757,9.72288466 L1.7477292,8.41632768 L2.5290581,8.71933393 C2.19945466,8.09617958 1.96125382,7.43067494 1.82125419,6.73315554 C1.48006808,5.03208527 1.76560687,3.22488726 2.62549671,1.64456584 L3.30610638,0.393719579 L4.2163558,1.48827308 C7.09516117,4.95040977 10.7414466,7.00414696 15.0690971,7.60536989 C14.8923349,6.38553018 15.0247807,5.20829277 15.4631608,4.1530646 C15.9735551,2.92440183 16.8815383,1.88253416 18.0881539,1.13989145 C19.4282223,0.315321163 21.0533259,-0.084233756 22.6640771,0.0148357336 C24.3730294,0.119955201 25.9246081,0.761007606 27.156907,1.86992988 C27.7587039,1.71338505 28.2021201,1.54625268 28.8013991,1.32038444 C29.1619737,1.18451056 29.5708935,1.03023448 30.0825468,0.85377492 L31.9680095,0.203395382 L30.7384803,3.71897404 C30.8195593,3.71216779 30.9031561,3.70636982 30.99053,3.70258853 L33.003906,3.61133376 L31.8139092,5.23955132 C31.7456719,5.33282284 31.7282979,5.35929175 31.7041253,5.39584408 C31.6081902,5.54054095 31.4888381,5.72052967 29.8554251,7.90409077 C29.4465053,8.45086332 29.2422972,9.16300369 29.2803187,9.90967977 C29.4251025,12.7471496 29.0773696,15.3143841 28.2461847,17.5397913 C27.4600717,19.645206 26.2418734,21.4516478 24.6258345,22.9089517 C22.6260556,24.7118643 20.0760983,25.946325 17.046466,26.5775461 C15.5603547,26.8871065 13.9644597,27.042391 12.3126655,27.042391 Z" id="Path"></path>
                        </g>
                        <g id="telegram" transform="translate(72.000000, 0.000000)" fill-rule="nonzero">
                            <path d="M0.547552148,13.9053946 L7.6905815,16.769866 L10.4553718,26.3233222 C10.6322787,26.9351866 11.3286429,27.1613467 11.7908535,26.7553245 L15.7724987,23.2677751 C16.1898626,22.9023884 16.7843401,22.8841801 17.2205106,23.2243639 L24.40198,28.8264039 C24.8964307,29.2125524 25.5969283,28.9214422 25.7209284,28.2794897 L30.9817387,1.09021596 C31.1171055,0.388975597 30.475818,-0.196020517 29.8543705,0.062226012 L0.539182137,12.213025 C-0.184255477,12.5127952 -0.177952136,13.6132852 0.547552148,13.9053946 Z M10.2110608,14.4927642 L24.2644892,5.01437289 C24.5170594,4.84452803 24.7769113,5.21850568 24.5600213,5.43881417 L12.9618703,17.2447977 C12.5542004,17.6603537 12.2912278,18.2164789 12.2167467,18.8201059 L11.8216637,22.0263121 C11.7693396,22.4543987 11.2201972,22.4968884 11.1123243,22.0825854 L9.59284638,16.2359807 C9.4188143,15.5691318 9.6724247,14.8568313 10.2110608,14.4927642 Z" id="XMLID_497_"></path>
                        </g>
                        <g id="medium-size" transform="translate(0.000000, 2.398987)">
                            <path d="M34,4.17277587 L32.1239077,4.17277587 C31.6354028,4.17277587 30.3571529,4.69309677 30.3571529,5.13604474 L30.3571529,21.2215532 C30.3571529,21.6656035 31.6354028,22.0296628 32.1239077,22.0296628 L34,22.0296628 L34,25.6010127 L21.8570826,25.6010127 L21.8570826,22.0296628 L24.2862564,22.0296628 L24.2862564,5.36265166 L23.8635225,5.36265166 L18.0181871,25.6009438 L13.4924896,25.6009438 L7.72276278,5.36265166 L7.28576448,5.36265166 L7.28576448,22.0295939 L9.71388418,22.0295939 L9.71388418,25.6009438 L0,25.6010127 L0,22.0295939 L1.34725334,22.0295939 C1.87616253,22.0295939 2.42818997,21.6656035 2.42818997,21.2214843 L2.42818997,5.13604474 C2.42818997,4.69302788 1.87623279,4.17277587 1.34725334,4.17277587 L0,4.17277587 L0,0.601012651 L12.58891,0.601012651 L16.6993221,14.8865498 L16.8099244,14.8865498 L20.9608812,0.601012651 L34,0.601012651 L34,4.17277587 Z" id="Path"></path>
                        </g>
                    </g>
                </g>
            </g>
        </g>
    </g>
</svg>