<svg xmlns="http://www.w3.org/2000/svg" width="307" height="48" viewBox="0 0 307 48">
    <g fill="none" fill-rule="evenodd">
        <rect width="307" height="48" fill="#191C27" fill-rule="nonzero" rx="24"/>
        <text fill="#FFF" font-family="AvenirNext-Medium, Avenir Next" font-size="30" font-weight="400">
            <tspan x="65" y="33">CRED Exclusive</tspan>
        </text>
        <path fill="#FFDC64" d="M48.245 17.838l-10.365-.945-4.117-9.4c-.288-.658-1.238-.658-1.526 0l-4.117 9.4-10.365.945c-.726.066-1.019.953-.471 1.426l7.82 6.754-2.289 9.984c-.16.699.608 1.247 1.235.881L33 31.658l8.95 5.225c.627.366 1.395-.182 1.235-.881l-2.289-9.984 7.82-6.754c.548-.473.255-1.36-.471-1.426z"/>
        <path fill="#FFC850" d="M33.942 7.494c-.291-.659-1.25-.659-1.542 0l-4.16 9.399-10.477.945c-.733.066-1.03.953-.476 1.426l7.904 6.754-2.313 9.984c-.162.699.614 1.247 1.247.881l2.02-1.166c.279-11.19 5.623-19.069 9.855-23.576l-2.058-4.647z"/>
    </g>
</svg>
