<?xml version="1.0" encoding="UTF-8"?>
<svg width="122px" height="146px" viewBox="0 0 122 146" version="1.1" xmlns="http://www.w3.org/2000/svg" xmlns:xlink="http://www.w3.org/1999/xlink">
    <!-- Generator: sketchtool 53 (72520) - https://sketchapp.com -->
    <title>CACD5E97-667F-45FD-A1FC-FD56E906B368</title>
    <desc>Created with sketchtool.</desc>
    <g id="Page-1" stroke="none" stroke-width="1" fill="none" fill-rule="evenodd">
        <g id="CRED-SV-SCROLL" transform="translate(-859.000000, -695.000000)">
            <g id="Group-8" transform="translate(859.000000, 695.000000)">
                <g id="star-2" transform="translate(36.000000, 101.000000)">
                    <path d="M36.1270118,12.6440467 L24.142566,11.5414586 L19.382001,0.575864139 C19.0487123,-0.191954713 17.9512154,-0.191954713 17.6179268,0.575864139 L12.857434,11.5415303 L0.872988202,12.6440467 C0.0338406906,12.7212516 -0.305301513,13.7565991 0.327816929,14.3082875 L9.37011554,22.1880544 L6.72389581,33.8351589 C6.53860695,34.6506483 7.42646144,35.2905093 8.15106806,34.8636963 L18.5,28.7680276 L28.8489319,34.8636963 C29.5735386,35.2905093 30.4614653,34.6506483 30.2761765,33.8351589 L27.6298845,22.1880544 L36.6721831,14.3082875 C37.3053015,13.7565991 36.9661593,12.7212516 36.1270118,12.6440467 Z" id="Path" fill="#FFDC64"></path>
                    <path d="M19.6174942,0.575864139 C19.280156,-0.191954713 18.1693245,-0.191954713 17.8319863,0.575864139 L13.0136531,11.5415303 L0.883595095,12.6440467 C0.0342518583,12.7212516 -0.309010957,13.7565991 0.331799937,14.3082875 L9.48396337,22.1880544 L6.80559181,33.8351589 C6.61805167,34.6506483 7.51669368,35.2905093 8.25010434,34.8636963 L10.5879926,33.5031853 C10.9115797,20.4492612 17.1002579,11.2565821 22,5.99783657 L19.6174942,0.575864139 Z" id="Path" fill="#FFC850"></path>
                </g>
                <g id="star-2" transform="translate(42.000000, 26.000000)">
                    <path d="M55.6551263,19.5079578 L37.1926017,17.8068218 L29.8587583,0.8884761 C29.3453135,-0.2961587 27.6545752,-0.2961587 27.1411304,0.8884761 L19.8073983,17.8069324 L1.34487372,19.5079578 C0.0521329557,19.6270738 -0.470329358,21.2244672 0.505015268,22.0756435 L14.4350429,34.2329982 L10.3584341,52.2028165 C10.0729891,53.4610002 11.4407649,54.4482143 12.5570508,53.7897029 L28.5,44.3849568 L44.4429492,53.7897029 C45.5592351,54.4482143 46.9271222,53.4610002 46.6416772,52.2028165 L42.5649571,34.2329982 L56.4949847,22.0756435 C57.4703294,21.2244672 56.947867,19.6270738 55.6551263,19.5079578 Z" id="Path" fill="#FFDC64"></path>
                    <path d="M30.3179456,0.8884761 C29.7966048,-0.2961587 28.0798651,-0.2961587 27.5585243,0.8884761 L20.1120093,17.8069324 L1.36555606,19.5079578 C0.0529346901,19.6270738 -0.477562388,21.2244672 0.51278172,22.0756435 L14.6570343,34.2329982 L10.5177328,52.2028165 C10.227898,53.4610002 11.6167084,54.4482143 12.7501613,53.7897029 L16.3632612,51.6906287 C16.8633505,31.5502887 26.4276714,17.3672981 34,9.25380499 L30.3179456,0.8884761 Z" id="Path" fill="#FFC850"></path>
                </g>
                <g id="star-2" transform="translate(103.000000, 0.000000)">
                    <path d="M18.5517088,6.86391108 L12.3975339,6.26536323 L9.95291942,0.312611961 C9.78177117,-0.104203987 9.21819172,-0.104203987 9.04704347,0.312611961 L6.60246609,6.26540214 L0.448291239,6.86391108 C0.0173776519,6.90582227 -0.156776453,7.46786809 0.168338423,7.76735605 L4.81168095,12.0449438 L3.45281136,18.3676577 C3.35766303,18.8103519 3.81358831,19.157705 4.1856836,18.9260066 L9.5,15.6169293 L14.8143164,18.9260066 C15.1864117,19.157705 15.6423741,18.8103519 15.5472257,18.3676577 L14.188319,12.0449438 L18.8316616,7.76735605 C19.1567765,7.46786809 18.9826223,6.90582227 18.5517088,6.86391108 Z" id="Path" fill="#FFDC64"></path>
                    <path d="M9.8087471,0.312611961 C9.64007801,-0.104203987 9.08466225,-0.104203987 8.91599315,0.312611961 L6.50682653,6.26540214 L0.441797548,6.86391108 C0.0171259292,6.90582227 -0.154505478,7.46786809 0.165899968,7.76735605 L4.74198169,12.0449438 L3.4027959,18.3676577 C3.30902584,18.8103519 3.75834684,19.157705 4.12505217,18.9260066 L5.29399628,18.1874434 C5.45578987,11.1010275 8.55012897,6.11071599 11,3.25596842 L9.8087471,0.312611961 Z" id="Path" fill="#FFC850"></path>
                </g>
                <g id="star-2" transform="translate(0.000000, 127.000000)">
                    <path d="M18.5517088,6.86391108 L12.3975339,6.26536323 L9.95291942,0.312611961 C9.78177117,-0.104203987 9.21819172,-0.104203987 9.04704347,0.312611961 L6.60246609,6.26540214 L0.448291239,6.86391108 C0.0173776519,6.90582227 -0.156776453,7.46786809 0.168338423,7.76735605 L4.81168095,12.0449438 L3.45281136,18.3676577 C3.35766303,18.8103519 3.81358831,19.157705 4.1856836,18.9260066 L9.5,15.6169293 L14.8143164,18.9260066 C15.1864117,19.157705 15.6423741,18.8103519 15.5472257,18.3676577 L14.188319,12.0449438 L18.8316616,7.76735605 C19.1567765,7.46786809 18.9826223,6.90582227 18.5517088,6.86391108 Z" id="Path" fill="#FFDC64"></path>
                    <path d="M9.8087471,0.312611961 C9.64007801,-0.104203987 9.08466225,-0.104203987 8.91599315,0.312611961 L6.50682653,6.26540214 L0.441797548,6.86391108 C0.0171259292,6.90582227 -0.154505478,7.46786809 0.165899968,7.76735605 L4.74198169,12.0449438 L3.4027959,18.3676577 C3.30902584,18.8103519 3.75834684,19.157705 4.12505217,18.9260066 L5.29399628,18.1874434 C5.45578987,11.1010275 8.55012897,6.11071599 11,3.25596842 L9.8087471,0.312611961 Z" id="Path" fill="#FFC850"></path>
                </g>
            </g>
        </g>
    </g>
</svg>