<?xml version="1.0" encoding="UTF-8"?>
<svg width="954px" height="709px" viewBox="0 0 954 709" version="1.1" xmlns="http://www.w3.org/2000/svg" xmlns:xlink="http://www.w3.org/1999/xlink">
    <!-- Generator: sketchtool 53 (72520) - https://sketchapp.com -->
    <title>EB1EC335-9F7E-4F0B-9CA8-F06CCE0721AE</title>
    <desc>Created with sketchtool.</desc>
    <defs>
        <rect id="path-1" x="0" y="0" width="930" height="685" rx="30"></rect>
        <filter x="-2.0%" y="-2.5%" width="104.1%" height="105.5%" filterUnits="objectBoundingBox" id="filter-3">
            <feOffset dx="0" dy="2" in="SourceAlpha" result="shadowOffsetOuter1"></feOffset>
            <feGaussianBlur stdDeviation="6" in="shadowOffsetOuter1" result="shadowBlurOuter1"></feGaussianBlur>
            <feColorMatrix values="0 0 0 0 0   0 0 0 0 0   0 0 0 0 0  0 0 0 0.12 0" type="matrix" in="shadowBlurOuter1"></feColorMatrix>
        </filter>
        <ellipse id="path-4" cx="100.5" cy="99.4341085" rx="100.5" ry="99.4341085"></ellipse>
        <ellipse id="path-6" cx="100.5" cy="99.5" rx="100.5" ry="99.5"></ellipse>
        <ellipse id="path-8" cx="191.5" cy="176.5" rx="100.5" ry="99.5"></ellipse>
    </defs>
    <g id="Page-1" stroke="none" stroke-width="1" fill="none" fill-rule="evenodd">
        <g id="CRED-SV-SCROLL" transform="translate(-63.000000, -1160.000000)">
            <g id="Group-9" transform="translate(75.000000, 1170.000000)">
                <mask id="mask-2" fill="white">
                    <use xlink:href="#path-1"></use>
                </mask>
                <g id="Mask" fill-rule="nonzero">
                    <use fill="black" fill-opacity="1" filter="url(#filter-3)" xlink:href="#path-1"></use>
                    <use fill="#272D41" xlink:href="#path-1"></use>
                </g>
                <rect id="Rectangle" fill="#0D2FCF" fill-rule="nonzero" mask="url(#mask-2)" x="101" y="473" width="730" height="111" rx="20"></rect>
                <text id="VERIFY-NOW" mask="url(#mask-2)" font-family="AvenirNext-DemiBold, Avenir Next" font-size="40" font-weight="500" line-spacing="75" fill="#FFFFFF">
                    <tspan x="342" y="531">VERIFY NOW</tspan>
                </text>
                <text id="Driver" mask="url(#mask-2)" font-family="AvenirNext-Medium, Avenir Next" font-size="45" font-weight="400" fill="#FFFFFF">
                    <tspan x="134" y="340">Driver</tspan>
                </text>
                <text id="Maid" mask="url(#mask-2)" font-family="AvenirNext-Medium, Avenir Next" font-size="45" font-weight="400" fill="#FFFFFF">
                    <tspan x="414" y="340">Maid</tspan>
                </text>
                <text id="Cook" mask="url(#mask-2)" font-family="AvenirNext-Medium, Avenir Next" font-size="45" font-weight="400" fill="#FFFFFF">
                    <tspan x="686" y="340">Cook</tspan>
                </text>
                <g id="Group-13" mask="url(#mask-2)">
                    <g transform="translate(364.000000, 77.000000)">
                        <g id="Group" transform="translate(49.062992, 162.852713)"></g>
                        <g id="maid">
                            <mask id="mask-5" fill="white">
                                <use xlink:href="#path-4"></use>
                            </mask>
                            <use id="Oval" fill="#191C27" fill-rule="nonzero" xlink:href="#path-4"></use>
                            <path d="M155.893701,150.325581 L155.893701,197.302326" id="Line" stroke="#62728C" stroke-width="8" stroke-linecap="square" fill-rule="nonzero" mask="url(#mask-5)"></path>
                            <path d="M131.362205,111.178295 C135.155728,111.178295 138.231231,114.167887 138.231231,117.85454 L138.231231,134.697045 C138.231231,143.327888 145.430813,150.325581 154.311023,150.325581 C163.191235,150.325581 170.390816,143.327888 170.390816,134.697045 L170.390816,117.85454 C170.390816,114.167887 173.466319,111.178295 177.259843,111.178295 L131.362205,111.178295 Z" id="Path" fill="#FFDD73" mask="url(#mask-5)"></path>
                            <path d="M83.4859413,134.666667 L92.1772978,134.666667 C105.83402,134.666667 117.017231,123.819011 117.1168,110.331931 C117.11811,110.232257 117.11811,110.131288 117.11811,110.030319 L117.11811,82.9228292 C117.11811,60.4767249 98.7108815,42.2790698 76.0051389,42.2790698 L72.7665147,42.2790698 C50.060772,42.2790698 31.6535433,60.4767249 31.6535433,82.9228292 L31.6535433,110.030319 C31.6535433,110.122227 31.6535433,110.214134 31.6548533,110.307336 C31.7452518,123.754287 42.8721267,134.585115 56.4895459,134.642072 L65.1979336,134.666667" id="Path" fill="#FFB03B" mask="url(#mask-5)"></path>
                            <path d="M102.874016,97.6199889 L102.874016,79.6008767 C97.5919275,79.6008767 92.6794656,76.9393761 89.8642066,72.5516729 L86.6329518,65.8289779 C86.6356012,65.7678391 86.5561116,65.7444239 86.522991,65.7951564 C81.6489493,73.2827402 73.187274,79.6008767 64.1492988,79.6008767 L47.480315,79.6008767 L47.480315,97.6199889 C47.480315,110.607486 53.121432,121.565688 67.9992482,125.007686 L66.4200535,136.232558 L83.935602,136.232558 L82.3564072,125.007686 C97.2328991,121.566988 102.874016,110.608787 102.874016,97.6199889 L102.874016,97.6199889 Z" id="Path" fill="#F5CFB2" mask="url(#mask-5)"></path>
                            <path d="M117.11811,185.444098 L117.11811,200.434109 L30.0708661,200.434109 L30.0708661,145.891415 C30.0708661,140.557688 34.4470417,136.232558 39.8460163,136.232558 L107.34296,136.232558 C112.741935,136.232558 117.11811,140.556402 117.11811,145.891415 L117.11811,155.574714" id="Path" fill="#62728C" mask="url(#mask-5)"></path>
                            <path d="M49.5529337,67.1201417 C55.0646002,63.1073209 64.505724,60.4612614 75.2279942,60.4612614 C85.9502642,60.4612614 95.3913883,63.1073209 100.903055,67.1201417 C103.875888,64.9257529 105.833448,61.1935946 105.833448,56.9588548 C105.833448,50.2046798 100.858742,44.7298033 94.7214906,44.7298033 C92.3468735,44.7298033 90.148202,45.5522095 88.3418245,46.9476896 C86.1027508,41.4297348 81.0759129,37.5813953 75.2279942,37.5813953 C69.3813788,37.5813953 64.3545409,41.4297348 62.1141637,46.9476896 C60.3077865,45.5509041 58.109115,44.7298033 55.7344975,44.7298033 C49.5972458,44.7298033 44.62254,50.2046798 44.62254,56.9588548 C44.62254,61.1935946 46.5801003,64.9257529 49.5529337,67.1201417 Z" id="Path" fill="#FFFFFF" mask="url(#mask-5)"></path>
                            <path d="M74.6662707,136.853671 L53.3976761,136.853671 C53.0340546,137.958045 52.8359526,139.138133 52.8359526,140.365215 C52.8359526,146.555455 57.8484545,151.573439 64.032625,151.573439 C70.2154924,151.573439 75.2279942,146.555455 75.2279942,140.365215 C75.2279942,139.138133 75.0311955,137.958045 74.6662707,136.853671 Z" id="Path" fill="#FFFFFF" mask="url(#mask-5)"></path>
                            <path d="M75.7897177,136.853671 C75.4260962,137.958045 75.2279942,139.138133 75.2279942,140.365215 C75.2279942,146.555455 80.2404957,151.573439 86.4246667,151.573439 C92.607534,151.573439 97.6200355,146.555455 97.6200355,140.365215 C97.6200355,139.138133 97.4219335,137.958045 97.058312,136.853671 L75.7897177,136.853671 Z" id="Path" fill="#FFFFFF" mask="url(#mask-5)"></path>
                            <polygon id="Path" fill="#FFFFFF" mask="url(#mask-5)" points="49.5034081 163.020551 100.953883 163.020551 100.953883 202 49.5034081 202"></polygon>
                        </g>
                    </g>
                </g>
                <g id="chef" mask="url(#mask-2)">
                    <g transform="translate(637.000000, 77.000000)" id="Path-+-Path-+-Path-+-Path-+-Path-+-Path-+-Path-+-Path-+-Path-Mask">
                        <g>
                            <mask id="mask-7" fill="white">
                                <use xlink:href="#path-6"></use>
                            </mask>
                            <use id="Mask" fill="#191C27" fill-rule="nonzero" xlink:href="#path-6"></use>
                            <path d="M45.7522054,84.6141732 L45.7522054,97.8284862 C41.7920722,97.8284862 37.984252,101.734724 37.984252,106.551583 C37.984252,111.371389 41.7920722,115.276153 46.490779,115.276153 L46.490779,117.789938 C46.490779,133.778844 69.8578639,142.880629 71.448527,143.249003 L70.0245458,153.559055 L88.2431704,153.559055 L86.8191891,143.249003 C88.4098523,142.880629 111.7755,133.71843 111.7755,117.789938 L111.7755,115.276153 C116.475644,115.276153 120.283465,111.371389 120.283465,106.551583 C120.283465,101.734724 116.475644,97.8284862 112.5112,97.8284862 L112.5112,84.6141732" id="Path" fill="#F5CFB2" mask="url(#mask-7)"></path>
                            <path d="M44.0744595,153.559055 C38.963284,153.559055 34.8188976,157.680574 34.8188976,162.765274 L34.8188976,208.401575 L66.4724409,208.401575 L66.4724409,153.559055 L44.0744595,153.559055 Z" id="Path" fill="#FFFFFF" mask="url(#mask-7)"></path>
                            <path d="M126.614173,168.738956 L126.614173,162.765274 C126.614173,157.680574 122.394204,153.559055 117.186612,153.559055 L66.4724409,153.559055 L66.4724409,208.401575 L126.614173,208.401575 L126.614173,199.920542" id="Path" fill="#93D3F1" mask="url(#mask-7)"></path>
                            <polyline id="Path" fill="#FFFFFF" mask="url(#mask-7)" points="45.8976378 65.8110236 45.8976378 84.6141732 112.370079 84.6141732 112.370079 65.8110236"></polyline>
                            <path d="M94.9307947,66.3375699 C97.3062311,68.0422949 100.100779,68.9448819 103.010404,68.9448819 C110.788822,68.9448819 117.11811,62.4593573 117.11811,54.4889319 C117.11811,46.5170505 110.788822,40.0329816 103.010404,40.0329816 C100.91769,40.0329816 98.8690186,40.5061118 96.9950947,41.4130663 C94.780199,33.6624642 87.791699,28.2047244 79.7646561,28.2047244 C71.8129107,28.2047244 64.8343557,33.6086002 62.5739975,41.279134 C60.778213,40.4595267 58.8233084,40.0329816 56.8399894,40.0329816 C49.0615715,40.0329816 42.7322835,46.5170505 42.7322835,54.4889319 C42.7322835,62.4593573 49.0615715,68.9448819 56.8399894,68.9448819 C61.1277089,68.9448819 65.0602496,66.9912179 67.6899942,63.7404486 C70.8212514,66.9504559 75.1473302,68.9346913 79.9251969,68.9346913" id="Path" fill="#93D3F1" mask="url(#mask-7)"></path>
                            <path d="M139.275591,178.629921 L154.324774,178.629921 C159.124012,178.629921 163.015748,174.739394 163.015748,169.93847 L163.015748,134.992007 C163.015748,121.88086 152.38744,111.251969 139.275591,111.251969 L139.275591,178.629921 Z" id="Path" fill="#62728C" mask="url(#mask-7)"></path>
                            <path d="M139.275591,208.401575 C148.016045,208.401575 155.102362,201.582739 155.102362,193.170388 L155.102362,178.629921 L139.275591,178.629921 L139.275591,208.401575 Z" id="Path" fill="#FFDD73" mask="url(#mask-7)"></path>
                            <path d="M47.480315,84.6141732 L47.480315,100.283465 L49.058983,100.283465 C58.3220045,100.283465 65.8996101,93.3593881 66.4724409,84.6141732 L47.480315,84.6141732 Z" id="Path" fill="#C58C7A" mask="url(#mask-7)"></path>
                            <path d="M93.3779528,84.6141732 C93.9493254,93.3593881 101.527531,100.283465 110.79279,100.283465 L112.370079,100.283465 L112.370079,84.6141732 L93.3779528,84.6141732 Z" id="Path" fill="#C58C7A" mask="url(#mask-7)"></path>
                        </g>
                    </g>
                </g>
                <mask id="mask-9" fill="white">
                    <use xlink:href="#path-8"></use>
                </mask>
                <use id="Oval" fill="#191C27" fill-rule="nonzero" xlink:href="#path-8"></use>
                <g id="driver" mask="url(#mask-9)">
                    <g transform="translate(142.000000, 120.000000)">
                        <path d="M99,158 L99,125.887328 C99,109.064283 85.6569845,95.0924584 68.4146744,93.8613861 L30.5803741,93.8613861 C13.3393018,95.0948673 0,109.065488 0,125.887328 L0,158 L99,158 Z" id="Path" stroke="none" fill="#4D4D4D" fill-rule="evenodd"></path>
                        <polygon id="Path" stroke="none" fill="#333333" fill-rule="evenodd" points="57.483871 147.049505 62.2741935 147.049505 62.2741935 151.742574 57.483871 151.742574"></polygon>
                        <polygon id="Path" stroke="none" fill="#333333" fill-rule="evenodd" points="47.9032258 134.534653 52.6935484 134.534653 52.6935484 158 47.9032258 158"></polygon>
                        <polygon id="Path" stroke="none" fill="#F2C09A" fill-rule="evenodd" points="68.6612903 93.8613861 30.3387097 93.8613861 49.5 142.356436"></polygon>
                        <polygon id="Path" stroke="none" fill="#666666" fill-rule="evenodd" points="30.8248719 93.8613861 22.3548387 107.268991 35.9274194 118.065782 30.4986314 128.861358 49.5 142.356436"></polygon>
                        <polygon id="Path" stroke="none" fill="#666666" fill-rule="evenodd" points="68.1751281 93.8613861 76.6451613 107.268991 63.0725806 118.065782 68.5013686 128.861358 49.5 142.356436"></polygon>
                        <path d="M50.2983871,117.985658 C46.7161112,117.989315 43.1735972,117.231156 39.9193548,115.762376 L50.2983871,142.356436 L60.6774194,115.762376 C57.423177,117.231156 53.8819055,117.990534 50.2983871,117.985658 Z" id="Path" stroke="none" fill="#E6E6E6" fill-rule="evenodd"></path>
                        <path d="M30.4101695,93.8613861 L30.3387097,93.8613861 L34.3517487,103.345956 C43.9562141,107.386331 55.0437859,107.386331 64.6482513,103.345956 L68.6612903,93.8715836 L68.5898305,93.8715836 C56.9117736,100.475999 42.0882264,100.475999 30.4101695,93.8715836 L30.4101695,93.8613861 Z" id="Path" stroke="none" fill="#CC9C72" fill-rule="evenodd"></path>
                        <path d="M49.5,3.12871287 C68.9012486,3.12871287 84.6290323,18.8094417 84.6290323,38.1526458 L84.6290323,65.093666 C84.6290323,84.4380828 68.9012486,100.118812 49.5,100.118812 C30.0987514,100.118812 14.3709677,84.4380828 14.3709677,65.093666 L14.3709677,38.1526458 C14.3709677,18.8094417 30.0987514,3.12871287 49.5,3.12871287 Z" id="Path" stroke="none" fill="#F2C09A" fill-rule="evenodd"></path>
                        <path d="M14.3709677,37.5445545 L14.371245,64.7498669 C14.294411,84.2081257 30.1953695,100.042683 49.8847494,100.118611 C51.3582307,100.123509 52.8292337,100.039009 54.2903226,99.8651106 C36.2503993,97.7942493 22.6383557,82.6981479 22.6296808,64.7498669 L22.6296808,37.5445545 L14.3709677,37.5445545 Z" id="Path" stroke="none" fill="#E8B894" fill-rule="evenodd"></path>
                        <path d="M84.6290323,51.6237624 L87.4237013,51.6237624 C92.0533944,51.6237624 95.8064516,55.1259302 95.8064516,59.4449576 C95.8064516,63.7651589 92.0533944,67.2673267 87.4237013,67.2673267 L84.6290323,67.2673267 L84.6290323,51.6237624 Z" id="Path" stroke="none" fill="#CC9C72" fill-rule="evenodd"></path>
                        <path d="M14.3709677,67.2673267 L11.5762987,67.2673267 C6.94660556,67.2673267 3.19354839,63.7651589 3.19354839,59.4449576 C3.19354839,55.1259302 6.94660556,51.6237624 11.5762987,51.6237624 L14.3709677,51.6237624 L14.3709677,67.2673267 Z" id="Path" stroke="none" fill="#CC9C72" fill-rule="evenodd"></path>
                        <path d="M84.6290323,40.6732673 L57.483871,40.6732673 L57.483871,48.2791143 C62.4935752,53.4134426 69.4206175,56.3168317 76.6632321,56.3168317 L84.6290323,56.3168317 L84.6290323,40.6732673 Z" id="Path" stroke="none" fill="#8C6239" fill-rule="evenodd"></path>
                        <path d="M36.7258065,40.6732673 L54.2903226,40.6732673 L54.2903226,56.3168317 L52.8759489,56.3168317 C46.3804424,56.3168317 40.3178085,53.150565 36.7258065,47.8824507 L36.7258065,40.6732673 Z" id="Path" stroke="none" fill="#8C6239" fill-rule="evenodd"></path>
                        <path d="M14.3709677,37.5445545 L30.7089801,37.5445545 L35.1290323,47.3706964 C31.506943,52.9440749 25.2507186,56.3168317 18.531161,56.3168317 L14.3709677,56.3168317 L14.3709677,37.5445545 Z" id="Path" stroke="none" fill="#8C6239" fill-rule="evenodd"></path>
                        <path d="M14.3709677,37.5445545 L14.3709677,56.3168317 L18.4371831,56.3168317 C19.7550486,56.3047604 21.0681223,56.1574888 22.3548387,55.8738105 L22.3548387,37.5445545 L14.3709677,37.5445545 Z" id="Path" stroke="none" fill="#755230" fill-rule="evenodd"></path>
                        <path d="M84.6290323,40.9859134 C84.6290323,40.9859134 76.523081,48.4950495 49.5,48.4950495 C22.476919,48.4950495 14.3709677,40.9859134 14.3709677,40.9859134 L14.3709677,35.980198 L84.6290323,35.980198 L84.6290323,40.9859134 Z" id="Path" stroke="none" fill="#4D4D4D" fill-rule="evenodd"></path>
                        <polygon id="Path" stroke="none" fill="#4D4D4D" fill-rule="evenodd" points="85.5871782 34.4158416 91.016129 10.5893065 50.2983871 0 9.58064516 10.5893065 15.009596 34.4158416"></polygon>
                        <polygon id="Path" stroke="none" fill="#E6E6E6" fill-rule="evenodd" points="47.9032258 10.950495 52.6935484 10.950495 52.6935484 15.6435644 47.9032258 15.6435644"></polygon>
                        <polygon id="Path" stroke="none" fill="#E6E6E6" fill-rule="evenodd" points="12.7741935 23.4653465 15.1760825 34.4158416 85.4206917 34.4158416 87.8225806 23.4653465"></polygon>
                        <path d="M14.3709677,35.980198 L14.3709677,41.2146168 C16.7311458,43.0984418 19.4435534,44.5086601 22.3548387,45.3663366 L22.3548387,35.980198 L14.3709677,35.980198 Z" id="Path" stroke="none" fill="#333333" fill-rule="evenodd"></path>
                        <polygon id="Path" stroke="none" fill="#333333" fill-rule="evenodd" points="16.3751786 7.82178218 7.98387097 10.1057162 10.8900942 23.4653465 19.1612903 23.4653465"></polygon>
                        <polygon id="Path" stroke="none" fill="#CCCCCC" fill-rule="evenodd" points="20.5638047 23.4653465 12.7741935 23.4653465 14.9644673 34.4158416 22.3548387 34.4158416"></polygon>
                        <path d="M85.0407006,129.99802 L85.0407006,156.435644" id="Line-2" stroke="#333333" stroke-width="4" fill="none" stroke-linecap="square" fill-rule="nonzero"></path>
                        <path d="M13.1858619,129.99802 L13.1858619,156.435644" id="Line-2" stroke="#333333" stroke-width="4" fill="none" stroke-linecap="square" fill-rule="nonzero"></path>
                    </g>
                </g>
            </g>
        </g>
    </g>
</svg>