<?xml version="1.0" encoding="UTF-8"?>
<svg width="1027px" height="406px" viewBox="0 0 1027 406" version="1.1" xmlns="http://www.w3.org/2000/svg" xmlns:xlink="http://www.w3.org/1999/xlink">
    <!-- Generator: sketchtool 53 (72520) - https://sketchapp.com -->
    <title>68BBF561-1184-48BE-8C53-761FF62F1BE3</title>
    <desc>Created with sketchtool.</desc>
    <defs>
        <linearGradient x1="50.0138009%" y1="99.9956479%" x2="50.0138009%" y2="-0.000296357378%" id="linearGradient-1">
            <stop stop-color="#808080" stop-opacity="0.25" offset="0%"></stop>
            <stop stop-color="#808080" stop-opacity="0.12" offset="54%"></stop>
            <stop stop-color="#808080" stop-opacity="0.1" offset="100%"></stop>
        </linearGradient>
    </defs>
    <g id="Page-1" stroke="none" stroke-width="1" fill="none" fill-rule="evenodd">
        <g id="CRED-SV-SCROLL" transform="translate(0.000000, -4916.000000)">
            <g id="Group-12" transform="translate(-143.000000, 4916.000000)">
                <path d="M1.84416916,356 C-12.799174,299.659517 60.2520249,95.993062 203.527439,49.8820102 C346.802854,3.77095838 267.187339,203.714656 398.844866,224.295813 C530.502393,244.876971 520.123637,97.6865373 564.723975,67.7242412 C609.324313,37.761945 629.338924,88.7421545 662,100.310729" id="Path" stroke="#0D2FCF" stroke-width="6" stroke-dasharray="12.04"></path>
                <polygon id="Path" fill="#051C87" points="673 100.278439 661 120.840638 749 135 692.32 96"></polygon>
                <polygon id="Path" fill="#0D2FCF" points="687.45 77 749 135 673 99.8236106"></polygon>
                <polygon id="Path" fill="#0D2FCF" points="664 133.391149 749 135 669.651917 107"></polygon>
                <g id="undraw_envelope_n8lc" transform="translate(666.000000, 0.000000)">
                    <path d="M292.834807,46.3292208 C260.522285,45.3985026 229.748687,36.7053022 200.382522,27.1934597 C171.016357,17.6816171 141.864473,7.16109041 110.326283,2.12254266 C90.0426882,-1.11791601 66.8468269,-1.5759658 50.5030707,7.48269984 C34.7729359,16.2002646 29.6935147,31.2525605 26.9614386,45.2230793 C24.9014241,55.7289874 23.6936614,66.7904027 29.3282639,76.6238547 C33.2242725,83.4458729 40.1835179,89.1909868 44.9853485,95.7303786 C61.6894855,118.491555 49.8845793,146.554414 31.7778793,168.774702 C23.2845805,179.197772 13.4325487,189.1433 6.87751422,200.238825 C0.322479723,211.33435 -2.69692696,224.057414 3.0253357,235.362473 C8.70863827,246.570075 22.2521382,255.005013 36.9254807,260.935296 C66.7250766,272.971285 101.842724,276.416404 136.08377,278.370425 C211.880618,282.687788 288.086546,280.80686 364.087934,278.945424 C392.212247,278.253477 420.463179,277.551783 448.13458,273.926368 C463.499464,271.913872 479.361089,268.722142 490.503674,261.013262 C504.665665,251.228539 508.172073,234.655907 498.685292,222.38602 C482.770097,201.803016 438.78416,196.691376 427.636705,174.602655 C421.510231,162.444844 427.802285,148.898265 436.699795,137.622443 C455.790237,113.433516 487.791078,92.2121663 489.476102,64.563501 C490.630294,45.5593073 475.2508,26.5551137 451.465668,17.5695411 C426.536082,8.15028306 391.963876,9.33439051 373.545495,24.927575 C354.644983,40.9788094 321.36333,47.1722274 292.834807,46.3292208 Z" id="Path" fill="#4285F4" opacity="0.1"></path>
                    <ellipse id="Oval" fill="#4285F4" opacity="0.1" cx="211.5" cy="392" rx="141.5" ry="14"></ellipse>
                    <path d="M483.323824,185.880922 C483.616549,185.084208 481.421114,180.668276 481.421114,180.449666 C481.421114,180.231055 479.152499,177.768044 479.152499,176.393227 C479.152499,175.01841 476.147193,172.050165 476.147193,172.050165 C476.147193,172.050165 472.122229,170.383867 471.683142,166.764649 C471.244055,163.14543 466.858065,163.067702 466.848307,163.067702 L466.848307,163.067702 C466.848307,163.067702 466.848307,162.737358 466.87758,162.236982 C466.87758,161.109924 466.843428,159.098707 466.336039,158.000797 C465.813869,157.001483 464.918675,156.246156 463.843001,155.897278 C463.843001,155.897278 463.403914,153.074774 462.52574,152.20519 C461.528195,151.167646 461.139001,149.69095 461.496325,148.299349 C461.935412,146.924531 460.910876,143.441338 458.783744,142.955536 C456.656612,142.469735 454.246512,141.653589 454.246512,141.653589 C454.246512,141.653589 454.007454,141.697312 453.661063,141.745892 L453.368339,141.653589 C452.858673,141.747134 452.343869,141.8104 451.826656,141.843052 C451.377881,141.858902 450.938253,141.714131 450.587455,141.434979 C449.850764,140.638265 443.918212,139.117708 442.820495,139.117708 C441.722778,139.117708 438.571109,137.660304 438.571109,137.660304 L435.429198,135.270163 C434.546146,134.599757 432.911767,131.869555 432.672708,131.485772 L432.643436,131.432334 L432.643436,131.432334 L432.643436,131.432334 C432.373538,130.815441 432.151713,130.178781 431.979926,129.527994 L431.979926,129.527994 C433.050943,128.413036 433.966588,127.159783 434.702265,125.801899 C434.780325,125.661017 434.848628,125.515277 434.91693,125.374394 C435.082426,125.37157 435.246685,125.3454 435.404805,125.296666 C435.468228,125.296666 435.531652,125.248086 435.595076,125.223796 C436.337862,124.834331 436.896911,124.169464 437.151395,123.372894 L437.151395,123.372894 C437.205061,123.217437 437.253848,123.057123 437.292878,122.887093 C437.292878,122.833655 437.292878,122.775358 437.327029,122.72192 C437.361181,122.668482 437.375817,122.50331 437.395332,122.391576 C437.414847,122.279841 437.419726,122.265267 437.429483,122.206971 C437.439241,122.148675 437.463634,121.988361 437.478271,121.876626 C437.492907,121.764892 437.478271,121.755176 437.478271,121.69688 C437.478271,121.555998 437.512422,121.419973 437.531937,121.283949 L437.531937,121.283949 C437.581358,120.770206 437.657898,120.259408 437.761238,119.753676 C437.761238,119.753676 437.761238,119.753676 437.761238,119.753676 L437.761238,119.753676 C438.200325,117.810471 439.385859,116.129599 440.229882,114.312703 L440.229882,114.312703 C440.351851,114.055229 440.464062,113.788038 440.566515,113.520847 C440.668969,113.253657 440.771423,112.937886 440.854361,112.641547 L440.927542,112.369499 C440.981208,112.155746 441.029996,111.937136 441.073905,111.718525 C441.073905,111.621365 441.112935,111.524205 441.127571,111.427045 C441.176358,111.125848 441.220267,110.824651 441.244661,110.518596 C441.402234,108.783595 441.153399,107.035848 440.517728,105.412827 C439.96643,104.052584 439.15168,102.828365 438.595503,101.468122 C437.75148,99.4083251 437.531937,97.0959119 436.502522,95.1138433 C434.780325,91.8201118 430.721211,90.1732461 427.38415,91.4120389 C425.788801,91.9998582 424.408116,93.1463489 422.793252,93.661298 C420.62709,94.3462776 418.314566,93.8313284 416.075222,93.5204157 C413.835879,93.209503 411.357477,93.1852129 409.557221,94.6426163 C407.483755,96.3186301 406.912942,99.4714793 404.966323,101.312665 C404.151573,102.085089 403.131915,102.580606 402.268378,103.294734 C401.662266,103.778614 401.195932,104.413956 400.916966,105.13592 C400.916966,105.189358 400.882815,105.237938 400.868178,105.291377 C400.853542,105.344815 400.834027,105.412827 400.819391,105.475981 C400.804755,105.539135 400.790118,105.621721 400.780361,105.694591 C400.770603,105.767462 400.780361,105.79661 400.780361,105.84519 C400.770584,105.974554 400.770584,106.104467 400.780361,106.233831 L400.780361,106.233831 C400.79438,106.356404 400.815557,106.47806 400.843785,106.598182 C400.843785,106.632188 400.843785,106.666194 400.843785,106.7002 C400.843785,106.734206 400.90233,106.899378 400.936481,107.001396 C400.934384,107.020772 400.934384,107.040317 400.936481,107.059693 C400.975511,107.171427 401.019419,107.278303 401.063328,107.390037 L401.136509,107.55521 L401.195054,107.691234 C401.480983,108.225688 401.70834,108.789221 401.873199,109.372106 C401.964222,109.740909 401.94213,110.128414 401.809776,110.48459 C401.611079,110.887709 401.334168,111.24765 400.995026,111.543637 C399.538104,113.052927 398.4132,114.848103 397.692116,116.814579 C397.609178,117.038047 397.526239,117.261516 397.453058,117.4947 L397.453058,117.4947 L397.555511,117.51899 C397.764499,117.582607 397.9782,117.629714 398.194627,117.659873 C398.316595,117.659873 398.438564,117.689021 398.565411,117.698737 C399.066022,117.725039 399.567935,117.685841 400.058307,117.582145 C400.180275,117.557855 400.307123,117.528706 400.429091,117.4947 C400.931414,117.356528 401.421047,117.176133 401.892714,116.955461 C401.892714,117.101201 401.892714,117.2518 401.892714,117.39754 C401.892714,117.54328 401.892714,117.562713 401.892714,117.645299 C401.903175,124.178326 405.623074,130.143624 411.498961,133.050052 C411.498961,133.205508 411.542869,133.365823 411.562384,133.535853 C411.581899,133.705883 411.596536,133.798186 411.611172,133.929352 L411.416022,133.739889 C411.416022,133.739889 410.093883,133.088916 408.849803,134.968966 C407.605723,136.849017 405.263926,137.723459 405.263926,137.723459 C405.263926,137.723459 391.935199,139.822119 391.422931,141.561287 L385.197654,141.92078 C385.197654,141.92078 382.99734,142.212261 382.758282,146.778791 C382.519223,151.345322 381.36784,151.777685 381.36784,151.777685 C381.36784,151.777685 378.8065,156.266487 379.026043,158.5789 C379.245586,160.891313 377.074546,162.057236 377.074546,162.057236 L376.781821,166.181687 C376.781821,166.181687 374.342449,165.822195 373.703334,168.644699 C373.064218,171.467203 371.873805,172.774008 371.873805,172.774008 C371.873805,172.774008 367.843963,176.106604 367.624419,178.929108 L365.13626,180.449666 C365.13626,180.449666 359.35007,179.147719 358.032809,176.830448 L357.627873,176.451523 C357.614703,176.433185 357.60327,176.413669 357.593722,176.393227 C357.592674,176.402915 357.592674,176.412687 357.593722,176.422375 C356.725306,175.606229 354.890898,173.905925 355.15435,174.294566 C355.325316,174.658662 355.366614,175.069891 355.27144,175.460489 L354.842111,174.974687 L353.690727,173.701889 C353.690727,173.701889 344.338176,164.957469 338.84471,164.287063 L338.84471,164.287063 C338.771529,164.146181 338.42026,162.771364 337.483541,163.631232 C335.910649,165.063026 335.01028,167.084232 335.000087,169.206245 C334.989895,171.328258 335.870808,173.357948 337.429875,174.804657 L346.18722,182.951542 L346.411642,183.116714 L348.294837,185.54572 C347.977719,186.303569 347.709388,187.037129 347.489844,187.707534 C347.489844,187.707534 347.489844,187.751257 347.46545,187.770689 C347.421542,187.916429 347.372754,188.052453 347.328846,188.188478 L347.284937,188.334218 C347.245907,188.470242 347.201998,188.606267 347.162968,188.732575 C347.123938,188.858883 347.11906,188.892889 347.094666,188.970617 C347.070272,189.048346 347.094666,189.06292 347.055636,189.106642 C346.850729,189.835343 346.714124,190.394015 346.645822,190.704927 L346.157947,190.554329 L346.645822,190.758365 C346.645822,190.782655 346.645822,190.811804 346.645822,190.836094 L346.616549,190.986692 L347.065393,191.181012 C349.631613,192.293497 362.438315,197.885068 363.096945,198.73522 C363.828757,199.672816 368.658713,202.427308 373.054461,200.110037 C377.450209,197.792765 378.421079,194.241559 378.421079,194.241559 C378.421079,194.241559 382.665586,188.37794 382.811948,187.508356 C382.95831,186.638772 386.256341,185.623448 386.256341,185.623448 C386.256341,185.623448 386.549066,195.33947 384.865899,198.876102 C383.182733,202.412734 380.031064,218.142974 380.031064,218.142974 C380.23651,218.102027 380.446576,218.088954 380.655543,218.10411 C380.538454,218.672497 380.470151,219.012558 380.470151,219.012558 C380.726637,218.966292 380.989385,218.966292 381.245871,219.012558 C381.011692,220.800306 379.665158,229.097789 379.665158,229.097789 C379.665158,229.097789 379.226072,232.862747 378.49426,234.164694 C377.762448,235.466641 377.689267,242.277573 377.689267,242.277573 L376.518369,247.198738 C376.651912,247.489373 376.800089,247.773117 376.962334,248.04889 L376.962334,248.04889 C376.962334,248.04889 378.22105,250.827672 380.333546,252.387094 C380.236912,253.160996 380.038432,253.918873 379.743218,254.641211 C379.2849,255.739515 379.084655,256.927573 379.157769,258.114689 C379.157769,258.114689 377.913689,263.691686 378.060052,265.285113 C378.206414,266.878541 377.255059,270.78924 377.255059,270.78924 L375.89389,283.352057 C375.89389,283.352057 375.015716,294.287439 375.454803,297.260542 C375.89389,300.233645 375.157199,304.280368 375.157199,304.280368 C375.157199,304.280368 376.035373,312.89848 375.81583,313.840934 C375.596286,314.783388 374.498569,318.834969 375.157199,321.084229 C375.81583,323.333488 375.454803,329.48373 375.454803,329.48373 C375.454803,329.48373 375.89389,337.59175 376.401279,340.200502 C376.908668,342.809254 376.254917,346.14185 376.254917,346.14185 C376.254917,346.14185 375.767042,351.713988 375.523105,351.713988 C375.279168,351.713988 373.400852,355.551817 377.279453,359.321634 C381.158054,363.09145 378.743076,362.503631 378.743076,362.503631 C378.743076,362.503631 375.669467,360.983074 376.030494,364.097059 C376.381764,367.060445 376.86476,366.288022 376.908668,366.205435 L376.176857,368.585861 L376.664731,368.658731 L376.24028,369.144532 C375.801183,369.697285 375.311179,370.207977 374.776657,370.669948 C373.893605,371.320921 373.800909,372.768608 373.800909,372.768608 C373.800909,372.768608 368.385503,378.637086 363.331125,381.605331 C360.672209,383.16961 358.3792,384.490989 357.379058,385.584042 C356.47649,386.555644 356.622852,387.362074 358.49629,387.979041 C362.452951,389.280988 369.405161,389.922246 374.386358,388.270522 C377.355549,387.282424 380.02565,385.56284 382.148439,383.271628 C382.148439,383.271628 385.300107,381.678201 388.378595,382.256304 C391.457082,382.834407 397.604299,378.855696 397.604299,378.855696 L397.492088,377.825798 L397.165212,374.867269 C396.747109,374.363267 396.561192,373.70739 396.652944,373.060089 C396.68934,372.184358 396.602303,371.307869 396.39437,370.456195 C396.345583,370.169573 396.287038,369.88295 396.233372,369.615759 L396.794427,369.513741 C396.794427,369.513741 396.067495,365.816795 397.384755,365.092951 C398.702016,364.369107 398.331232,354.891128 398.331232,354.891128 C398.331232,354.891128 396.652944,352.719597 395.769891,352.360104 C394.886839,352.000611 395.69671,347.502093 395.847951,346.92399 C395.999192,346.345886 397.165212,335.119023 397.165212,335.119023 C397.165212,335.119023 396.726125,331.572675 397.311574,330.052117 C397.897023,328.53156 396.609035,322.701946 396.609035,322.701946 C396.609035,322.701946 396.169948,321.978103 396.97982,321.108519 C397.789691,320.238935 397.467694,312.490407 397.467694,312.490407 C397.467694,312.490407 397.399392,308.579708 397.399392,307.564384 C397.399392,306.549059 398.277565,302.856971 399.082558,301.627894 C399.887551,300.398817 399.375283,296.556131 399.375283,296.556131 L399.375283,296.556131 L399.419191,296.269508 C399.419191,296.157774 399.458221,296.021749 399.487494,295.856577 L399.550918,295.472794 C399.908005,293.339365 400.39185,291.228902 400.999904,289.152522 C401.975653,286.111407 403.048977,280.753021 403.048977,280.753021 L409.879218,263.06986 L409.957278,262.860966 C409.957278,262.860966 413.104067,268.656573 413.104067,274.034391 C413.104067,274.034391 413.90906,280.480972 413.689517,282.22014 C413.469973,283.959308 414.338389,292.096476 414.338389,292.096476 C414.338389,292.096476 415.289744,303.828573 415.289744,304.338664 C415.289744,304.848756 416.460643,313.89923 417.197333,315.274047 C417.934024,316.648864 416.460643,320.851044 416.021556,321.283407 C415.582469,321.71577 416.167918,332.36453 416.167918,332.36453 C416.167918,332.36453 415.070201,340.764031 414.850658,342.503199 C414.631114,344.242367 413.75294,350.907559 414.484752,353.511453 C415.216563,356.115346 414.923839,356.479697 414.923839,356.479697 C414.923839,356.479697 417.563239,359.161319 416.021556,359.394504 C414.887725,359.640591 413.915732,360.361993 413.354946,361.373633 C412.79416,362.385272 412.699157,363.588697 413.09431,364.675162 C414.006322,367.330193 415.083353,369.926148 416.319159,372.44798 C416.319159,372.44798 416.772883,372.345961 417.529088,372.195363 L417.529088,373.055231 L417.616905,377.369145 C417.616905,377.369145 418.10478,381.498454 417.836449,382.440908 C417.621784,383.130746 417.348574,386.375897 417.187576,388.071343 C417.13391,388.688311 417.104637,389.101242 417.104637,389.101242 C417.104637,389.101242 417.104637,392.93907 425.232624,391.782864 C433.360611,390.626657 434.824234,387.439802 434.824234,387.439802 C434.824234,387.439802 434.824234,387.289204 434.882779,387.041445 C435.004748,386.307885 435.2682,384.753322 435.482864,383.888596 C435.775589,382.727531 433.141067,377.514885 433.141067,377.514885 C433.141067,377.514885 432.701981,373.968537 431.96529,373.171823 C431.663421,372.712371 431.463801,372.193907 431.379841,371.651266 C431.311539,371.359785 431.252994,371.053731 431.204206,370.757392 C431.38627,370.780536 431.567021,370.812966 431.745747,370.854552 C431.745747,370.854552 431.30666,368.31867 432.994705,367.521956 C434.68275,366.725243 434.238785,365.063803 434.019241,364.335101 C433.799698,363.6064 434.677872,359.554818 434.677872,359.554818 C434.43794,358.735322 434.661906,357.850698 435.263321,357.242405 C436.292736,356.222223 437.09285,349.129527 437.09285,349.129527 L437.239212,321.754634 C437.239212,321.754634 437.756359,316.896623 437.17091,314.953419 C436.58546,313.010214 435.995132,309.23554 436.800125,308.220215 C437.605118,307.204891 436.873306,302.502336 436.873306,302.502336 C436.873306,302.502336 436.873306,292.57742 437.975902,290.119266 C439.078498,287.661112 438.707714,272.086329 438.707714,272.086329 L438.99556,261.884506 C438.99556,261.884506 441.391023,259.630388 440.825089,247.87886 C443.376672,247.718545 446.25513,247.626243 446.679581,247.97602 C447.484574,248.631851 452.685314,251.959589 455.758923,249.860928 C456.417553,249.569448 459.417981,247.038424 459.417981,247.038424 L458.129992,225.323114 C458.934985,226.532759 459.422859,227.339189 459.422859,227.339189 C459.422859,224.298074 468.063114,214.446027 468.063114,214.446027 C468.063114,214.446027 476.11792,204.093606 477.874268,202.859671 C479.630616,201.625736 483.075009,195.111143 483.075009,195.111143 C483.583831,193.868509 484.172112,192.659625 484.836235,191.491925 C485.6705,190.155972 483.0311,186.677636 483.323824,185.880922 Z M464.423572,193.478852 C462.228137,193.697462 457.593331,198.696356 457.539664,199.794266 C457.505513,200.367511 457.017639,201.135077 456.563916,201.73747 C456.529764,201.300249 456.490734,200.853312 456.456583,200.401517 C455.939436,194.003517 455.378381,186.206409 455.632076,185.448559 C456.076041,184.146612 455.9248,178.282993 455.9248,178.282993 L455.9248,178.282993 L456.00286,178.171259 C457.466483,182.713499 462.067138,188.071885 462.067138,188.071885 C462.067138,188.071885 462.872131,190.389157 463.823486,190.462027 C464.774841,190.534897 464.423572,193.478852 464.423572,193.478852 Z" id="Shape" fill="url(#linearGradient-1)" fill-rule="nonzero"></path>
                    <path d="M346,192.123797 C346,192.123797 348.738804,177.078633 357.55605,177 L364,190.881391 L359.704033,193.984784 C359.704033,193.984784 350.371071,194.294075 346,192.123797 Z" id="Path" fill="#65617D"></path>
                    <path d="M364,190.878144 L359.704033,193.984329 C359.704033,193.984329 353.13491,194.2047 348.438387,192.992658 C347.600919,192.784577 346.784395,192.492915 346,192.121667 C346,192.121667 346,192.037716 346.05007,191.880308 C346.05007,191.880308 346.05007,191.84358 346.05007,191.822592 C346.454425,189.932742 347.012228,188.082582 347.717385,186.292322 C347.992768,185.615468 348.298192,184.917625 348.628651,184.219783 C349.920445,181.596315 351.732962,179.067292 354.216412,177.802781 C355.134538,177.330557 356.134216,177.057505 357.155494,177 L357.415855,177 L357.546036,177 L357.686231,177.309569 L359.864256,182.000329 L364,190.878144 Z" id="Path" fill="#000000" opacity="0.1"></path>
                    <path d="M435.561446,247.624179 C435.561446,247.624179 444.586482,246.748466 445.376783,247.406487 C446.167083,248.064509 451.29428,251.42883 454.328643,249.306339 C457.363007,247.183848 455.338472,239.792237 455.338472,239.500332 C455.338472,239.208428 455.050646,228.739452 455.050646,228.739452 L449.635624,221.34784 L442.854651,208.395204 L429,207 L429.361001,227.571835 L429.287825,238.110076 L435.561446,247.624179 Z" id="Path" fill="#65617D"></path>
                    <path d="M435.561446,247.624179 C435.561446,247.624179 444.586482,246.748466 445.376783,247.406487 C446.167083,248.064509 451.29428,251.42883 454.328643,249.306339 C457.363007,247.183848 455.338472,239.792237 455.338472,239.500332 C455.338472,239.208428 455.050646,228.739452 455.050646,228.739452 L449.635624,221.34784 L442.854651,208.395204 L429,207 L429.361001,227.571835 L429.287825,238.110076 L435.561446,247.624179 Z" id="Path" fill="#000000" opacity="0.1"></path>
                    <path d="M357,176.144682 C357,176.144682 356.262805,184.859976 350.664106,185 C350.664106,185 349.075151,184.072944 346.938281,182.52785 C342.017005,178.95965 334.211702,172.098468 336.368496,165.7153 C339.461727,156.575106 354.494532,173.440768 354.494532,173.440768 L355.645155,174.696157 L357,176.144682 Z" id="Path" fill="#FBBEBE"></path>
                    <path d="M357,176.405811 C357,176.405811 356.300236,184.864105 350.985816,185 C350.985816,185 349.477541,184.100281 347.449173,182.60075 L347,182.024367 C347.902184,182.49057 348.896149,182.756039 349.91253,182.802249 C351.549163,182.866872 353.055318,181.920845 353.695035,180.426429 C354.254138,179.33897 354.745215,178.218453 355.165485,177.071228 C355.424249,176.402797 355.608173,175.708225 355.713948,175 L357,176.405811 Z" id="Path" fill="#000000" opacity="0.1"></path>
                    <path d="M353.494017,193 L352.262057,191.425586 L348.113322,186.113146 L346,183.403802 C346.928155,183.886779 347.952389,184.160528 348.999554,184.205498 C350.377596,184.239304 351.921198,183.722549 352.89508,181.761775 C353.469854,180.638888 353.975574,179.482525 354.409465,178.299031 C355.091182,176.367235 355.081443,175.401336 354.837973,175.048784 C354.594502,174.696231 356.366966,176.343087 357.219113,177.144783 L357.248329,177.173759 L357.64762,177.54563 L357.793702,177.8354 L359.882678,181.974273 C359.882678,181.974273 359.882678,182.032227 359.882678,182.148135 C360.087193,183.476245 360.793257,191.816775 353.494017,193 Z" id="Path" fill="#E7EFFD"></path>
                    <path d="M397,377.551585 C397,377.551585 390.962251,381.540973 387.945805,380.982263 C384.92936,380.423552 381.835196,382.001665 381.835196,382.001665 C379.755145,384.293184 377.132939,386.014845 374.213934,387.005554 C369.356534,388.671884 362.507599,388.015154 358.626536,386.711496 C356.790438,386.093974 356.639859,385.300017 357.523906,384.314922 C358.495386,383.217105 360.758935,381.898744 363.352786,380.330434 C368.312192,377.360447 373.626189,371.508689 373.626189,371.508689 C373.626189,371.508689 373.69905,370.038399 374.563667,369.411075 C375.095847,368.948598 375.583736,368.436643 376.020887,367.881972 C376.793214,366.96059 377.516966,366 377.516966,366 L395.275623,366.519503 C395.275623,366.519503 395.576782,367.808458 395.814794,369.126818 C396.017448,369.981683 396.100828,370.860907 396.062522,371.739035 C395.970437,372.38364 396.146195,373.038005 396.548262,373.547493 L396.86885,376.488074 L397,377.551585 Z" id="Path" fill="#65617D"></path>
                    <path d="M434.97792,381.99836 C434.764877,382.852788 434.493732,384.383036 434.392052,385.102301 L434.329107,385.498138 C434.329107,385.498138 432.876542,388.640697 424.950376,389.784763 C417.024209,390.928828 417,387.139413 417,387.139413 C417,387.139413 417.029051,386.733921 417.07747,386.120857 C417.217885,384.450618 417.503556,381.250131 417.716599,380.569485 C417.997428,379.642647 417.498714,375.568422 417.498714,375.568422 L417.416402,371.315588 L417.353458,368.361293 L430.537911,367 C430.619125,367.982957 430.761427,368.959944 430.963997,369.925332 C431.044683,370.461471 431.241282,370.973722 431.540182,371.426616 C432.256781,372.213463 432.682866,375.713241 432.682866,375.713241 C432.682866,375.713241 435.263591,380.854294 434.97792,381.99836 Z" id="Path" fill="#65617D"></path>
                    <path d="M396.484478,367.536658 C396.484478,367.536658 396.772427,368.722718 397,369.935836 C395.165485,370.265047 387.149352,371.613457 385.147641,370.670922 C382.876558,369.602116 378,369.002321 378,369.002321 L378.078954,368.731737 C378.817404,367.883908 379.509411,367 379.509411,367 L396.484478,367.536658 Z" id="Path" fill="#000000" opacity="0.1"></path>
                    <path d="M430,369.711409 C426.811234,369.187919 419.832919,370.454139 417.060078,371 L417,368.261745 L429.584074,367 C429.66464,367.911264 429.803549,368.816808 430,369.711409 L430,369.711409 Z" id="Path" fill="#000000" opacity="0.1"></path>
                    <path d="M438.089706,260.751109 L437.802426,270.931233 C437.802426,270.931233 438.162744,286.455191 437.08179,288.909938 C436.000836,291.364685 436.000836,301.256877 436.000836,301.256877 C436.000836,301.256877 436.721472,305.946761 435.927799,306.956965 C435.134125,307.967169 435.713556,311.720053 436.288117,313.672138 C436.862678,315.624224 436.361154,320.460515 436.361154,320.460515 L436.215079,347.750665 C436.215079,347.750665 435.426275,354.822094 434.413489,355.837178 C433.822024,356.447241 433.602674,357.328495 433.838928,358.145519 C433.838928,358.145519 432.977087,362.186335 433.19133,362.913487 C433.405573,363.640639 433.838928,365.295031 432.183414,366.085626 C430.527899,366.87622 430.956385,369.409051 430.956385,369.409051 C426.997757,368.467169 415.759732,371 415.759732,371 C414.545421,368.491078 413.4868,365.909415 412.589908,363.269743 C412.198289,362.188812 412.290176,360.991192 412.842084,359.982982 C413.393992,358.974772 414.352437,358.253674 415.472451,358.003993 C416.981891,357.784383 414.391497,355.114907 414.391497,355.114907 C414.391497,355.114907 414.678778,354.753771 413.958142,352.157498 C413.237506,349.561224 414.099348,342.885093 414.31846,341.177019 C414.537572,339.468944 415.613657,331.070098 415.613657,331.070098 C415.613657,331.070098 415.039096,320.460515 415.472451,320.026176 C415.905807,319.591837 417.342209,315.404614 416.626443,314.033274 C415.910676,312.661934 414.746946,303.638421 414.746946,303.130878 C414.746946,302.623336 413.816936,290.930346 413.816936,290.930346 C413.816936,290.930346 412.950226,282.77063 413.169338,281.038154 C413.38845,279.305679 412.589908,272.883319 412.589908,272.883319 C412.589908,267.515084 409.493121,261.761313 409.493121,261.761313 L409.415214,261.971162 L402.739594,279.598492 C402.739594,279.598492 401.65864,284.937445 400.723761,287.968057 C400.132562,290.028988 399.66269,292.122954 399.316574,294.23913 L399.253274,294.624667 C399.253274,294.785714 399.204583,294.92236 399.189975,295.029725 L399.146153,295.322538 L399.146153,295.322538 C399.146153,295.322538 399.633069,299.148625 398.854003,300.378438 C398.074937,301.608252 397.198488,305.287933 397.198488,306.298137 C397.198488,307.308341 397.271526,311.207631 397.271526,311.207631 C397.271526,311.207631 397.558806,318.933008 396.78461,319.801686 C396.010413,320.670364 396.419422,321.387755 396.419422,321.387755 C396.419422,321.387755 397.714619,327.244011 397.140058,328.751996 C396.565497,330.259982 396.998853,333.803017 396.998853,333.803017 C396.998853,333.803017 395.844861,344.998225 395.703656,345.574091 C395.56245,346.149956 394.763908,350.629991 395.630618,350.991127 C396.497329,351.352263 398.147975,353.514197 398.147975,353.514197 C398.147975,353.514197 398.513162,362.97693 397.213096,363.694321 C395.91303,364.411713 396.633666,368.086513 396.633666,368.086513 C396.633666,368.086513 386.194183,370.106921 383.818033,368.950311 C381.441882,367.7937 376.324393,367.144632 376.324393,367.144632 L377.04016,364.772848 C376.996337,364.855812 376.51916,365.626886 376.178318,362.669476 C375.822869,359.565661 378.846619,361.078527 378.846619,361.078527 C378.846619,361.078527 381.222769,361.659272 377.38587,357.906389 C373.548971,354.153505 375.438206,350.322538 375.657318,350.322538 C375.87643,350.322538 376.382823,344.768855 376.382823,344.768855 C376.382823,344.768855 377.030421,341.44543 376.524029,338.844277 C376.017636,336.243123 375.58915,328.15661 375.58915,328.15661 C375.58915,328.15661 375.949468,322.022183 375.301869,319.787045 C374.654271,317.551908 375.730355,313.501331 375.949468,312.56433 C376.16858,311.627329 375.277523,303.057675 375.277523,303.057675 C375.277523,303.057675 375.998159,299.016859 375.564804,296.05945 C375.131448,293.102041 375.998159,282.194765 375.998159,282.194765 L377.293356,269.633097 C377.293356,269.633097 378.228235,265.728926 378.08703,264.142857 C377.945824,262.556788 379.172853,256.998225 379.172853,256.998225 C379.099335,255.814496 379.295826,254.629535 379.747414,253.533274 C380.468049,252.06921 380.75533,247.325643 380.75533,247.325643 L387.674408,231.44055 L391.082821,217.434339 L436.818855,217 C436.818855,217 436.989276,218.215173 437.266818,220.416149 C437.54436,222.617125 437.933893,225.886868 438.367249,229.922804 C438.76652,233.587844 439.204744,237.897072 439.628361,242.694321 C441.011203,258.008429 438.089706,260.751109 438.089706,260.751109 Z" id="Path" fill="#3F3D56"></path>
                    <path d="M434,134.693716 L423.05,146 C423.05,146 409,140.559637 410.48,138.702659 C411.05,137.982114 410.98,135.709251 410.63,133.204266 C410.13,129.238845 409,124.678612 409,124.678612 C409,124.678612 433.555,120.809909 431.5,124.818852 C430.745,126.269616 430.875,127.991189 431.345,129.572521 C431.939862,131.406425 432.836351,133.13565 434,134.693716 L434,134.693716 Z" id="Path" fill="#FBBEBE"></path>
                    <path d="M431.879446,125.825704 C431.14478,127.279172 430.794475,127.434209 431.251817,129.018489 C428.128267,132.346931 424.153282,135.99998 419.210094,135.99998 C416.564686,136.004002 413.954594,135.395274 411.586102,134.221904 C411.099567,130.249092 410,125.680357 410,125.680357 C410,125.680357 433.893698,121.804443 431.879446,125.825704 Z" id="Path" fill="#000000" opacity="0.1"></path>
                    <path d="M436,118.202375 C435.843661,127.524882 428.278484,135 419,135 C409.721516,135 402.156339,127.524882 402,118.202375 C402,118.119907 402,118.037438 402,117.959821 C402.066654,108.526434 409.730766,100.93346 419.118273,101.00044 C428.505781,101.067419 436.061826,108.768988 435.995173,118.202375 L436,118.202375 Z" id="Path" fill="#FBBEBE"></path>
                    <path d="M438,230.721174 C435.741112,230.721174 428.2131,230.805922 419.798013,230.940523 L419.696218,230.940523 L416.918658,230.990375 L416.831405,230.990375 C406.855456,231.154887 397.020081,229.15083 393.079145,229.529707 C384.693143,230.337312 396.094228,221.553359 396.094228,221.553359 C402.346325,223.115964 408.777667,223.786944 415.207526,223.547446 L417.631226,223.41783 C425.251338,222.974146 432.915077,222.236334 436.91903,221 C437.185637,223.283229 437.568581,226.598399 438,230.721174 Z" id="Path" fill="#000000" opacity="0.1"></path>
                    <path d="M438,230.721034 C435.741112,230.721034 428.2131,230.805825 419.798013,230.940493 L419.696218,230.940493 L416.918658,230.99037 L416.831405,230.99037 C406.855456,231.154965 397.020081,229.149908 393.079145,229.528973 C384.693143,230.341969 396.094228,221.548647 396.094228,221.548647 C402.346325,223.112031 408.777667,223.783347 415.207526,223.543729 L417.631226,223.414049 C425.251338,222.970143 432.915077,222.231963 436.91903,221 C437.185637,223.284368 437.568581,226.586228 438,230.721034 Z" id="Path" fill="#5F5D7E"></path>
                    <path d="M414.225052,139.593972 L401.114602,145.800975 L391,225 C391,225 396.982064,222.259752 400.406579,223.990691 C403.831095,225.721631 414.374362,224.136968 414.374362,224.136968 C414.374362,224.136968 422.080726,223.703014 423.212598,224.570922 C424.34447,225.43883 437.739092,220.943262 437.739092,220.943262 C437.739092,220.943262 440.14733,215.462766 438.307436,214.60461 C436.467542,213.746454 438.895046,205.238032 438.895046,205.238032 L437.739092,148.10727 L435.456082,140.749557 L429.329523,137 L423.068103,142.046543 L420.077071,142.480496 L414.225052,139.593972 Z" id="Path" fill="#000000" opacity="0.1"></path>
                    <path d="M414.220392,139.598704 L401.112572,145.800488 L391,225 C391,225 396.980864,222.259904 400.404692,223.990747 C403.82852,225.721591 414.369672,224.13214 414.369672,224.13214 C414.369672,224.13214 422.074489,223.703086 423.206134,224.56607 C424.337779,225.429054 437.739345,220.958114 437.739345,220.958114 C437.739345,220.958114 440.1471,215.477921 438.307575,214.619813 C436.46805,213.761704 438.885436,205.229376 438.885436,205.229376 L437.729714,148.106654 L435.447162,140.754225 L429.321833,137 L423.061669,142.051139 L420.071237,142.485068 L414.220392,139.598704 Z" id="Path" fill="#E7EFFD"></path>
                    <path d="M413.31494,142.191176 C413.31494,142.191176 417.134927,146.759804 417.066713,147.705882 C416.998499,148.651961 416.847453,150.897059 416.847453,150.897059 L413.962973,156.779412 C413.962973,156.779412 412.379433,164.102941 412.379433,165.627451 C412.379433,167.151961 409.855513,180.333333 409.855513,180.333333 L406.819987,200.642157 L403,227.259804 L406.897946,234 L411.507267,230.078431 L417.636787,182.647059 L418.932854,173.294118 C418.932854,173.294118 420.302008,156.470588 420.302008,154.730392 C420.302008,152.990196 419.512674,148.421569 419.512674,148.421569 C419.512674,148.421569 420.448181,144.068627 424.341255,143.029412 C428.234328,141.990196 424.053781,142.808824 424.053781,142.808824 L421.817334,141 L419.868361,141.794118 C419.868361,141.794118 414.469706,140.161765 413.31494,142.191176 Z" id="Path" fill="#000000" opacity="0.1"></path>
                    <path d="M413.303012,142.162194 C413.303012,142.162194 417.127062,146.732507 417.053991,147.674031 C416.98092,148.615555 416.834778,150.866385 416.834778,150.866385 L413.95578,156.75091 C413.95578,156.75091 412.367703,164.077142 412.367703,165.602215 C412.367703,167.127287 409.844318,180.313525 409.844318,180.313525 L406.819178,200.624941 L403,227.252412 L406.89712,234 L411.510337,230.076984 L417.633687,182.633008 L418.934351,173.281519 C418.934351,173.281519 420.303215,156.45178 420.303215,154.710941 C420.303215,152.970103 419.514048,148.399789 419.514048,148.399789 C419.514048,148.399789 420.449357,144.045241 424.341606,143.030161 C428.233855,142.01508 424.054193,142.814395 424.054193,142.814395 L421.81822,141 L419.86966,141.799315 C419.86966,141.799315 414.457534,140.127129 413.303012,142.162194 Z" id="Path" fill="#0D2FCF"></path>
                    <path d="M411.07799,134 C411.07799,134 410.459272,134.444316 410.308492,137.39977 C410.157712,140.355223 408,147 408,147 C408,147 416.001733,141.68318 420,142.272273 L411.07799,134 Z" id="Path" fill="#000000" opacity="0.1"></path>
                    <path d="M411.07799,133 C411.07799,133 410.459272,133.439493 410.308492,136.396081 C410.157712,139.35267 408,146 408,146 C408,146 416.001733,140.681137 420,141.275451 L411.07799,133 Z" id="Path" fill="#E7EFFD"></path>
                    <path d="M431.114085,132 L420,142.480104 C420,142.480104 429.347183,148.44835 430.564789,149.90474 C431.782394,151.36113 433,135.636055 433,135.636055 L431.114085,132 Z" id="Path" fill="#000000" opacity="0.1"></path>
                    <path d="M431.101021,131 L420,141.482158 C420,141.482158 429.339317,147.448774 430.565646,148.904766 C431.791975,150.360758 433,134.63998 433,134.63998 L431.101021,131 Z" id="Path" fill="#E7EFFD"></path>
                    <path d="M410.775405,134.108802 C410.775405,134.108802 409.463498,133.457122 408.22557,135.343564 C407.313878,136.573236 406.075827,137.526687 404.649883,138.09728 C404.649883,138.09728 391.368056,140.199315 390.840334,141.938762 L384.6359,142.301351 C384.6359,142.301351 382.4461,142.590442 382.229093,147.157102 C382.012086,151.723762 380.843206,152.159849 380.843206,152.159849 C380.843206,152.159849 378.28844,156.653011 378.510379,158.97064 C378.732318,161.288269 376.537586,162.454434 376.537586,162.454434 L385.656821,186.012912 C385.656821,186.012912 385.95274,195.724415 384.270934,199.276806 C382.589128,202.829197 379.457319,218.557716 379.457319,218.557716 C379.457319,218.557716 380.769227,218.268624 380.695247,219.135898 C380.621267,220.003171 379.136741,229.50398 379.136741,229.50398 C379.136741,229.50398 378.697794,233.271965 377.967861,234.580225 C377.237927,235.888485 377.163948,242.694376 377.163948,242.694376 L376,247.623626 C376,247.623626 378.771774,253.787637 383.003414,252.915463 C387.235055,252.04329 394.894423,235.594494 394.894423,235.594494 L399.786949,217.832538 L403.579643,200.291075 L404.674543,188.404039 L406.425397,162.091845 L408.980164,144.692478 C408.980164,144.692478 411.801257,135.328864 410.775405,134.108802 Z" id="Path" fill="#000000" opacity="0.1"></path>
                    <path d="M410.779792,133.109137 C410.779792,133.109137 409.464652,132.457454 408.228322,134.339005 C407.319503,135.570328 406.082531,136.524182 404.657249,137.092732 C404.657249,137.092732 391.397483,139.194777 390.865517,140.934231 L384.669089,141.296822 C384.669089,141.296822 382.48704,141.590814 382.265387,146.157494 C382.043734,150.724173 380.881288,151.155362 380.881288,151.155362 C380.881288,151.155362 378.329818,155.653444 378.55147,157.971083 C378.773123,160.288721 376.581223,161.449991 376.581223,161.449991 L385.693617,185.008571 C385.693617,185.008571 385.984229,194.720115 384.309518,198.272521 C382.634808,201.824928 379.497189,217.558413 379.497189,217.558413 C379.497189,217.558413 380.807404,217.264421 380.738445,218.136598 C380.669486,219.008775 379.132693,228.499825 379.132693,228.499825 C379.132693,228.499825 378.694313,232.272726 377.965322,233.576092 C377.23633,234.879457 377.167372,241.695178 377.167372,241.695178 L376,246.624448 C376,246.624448 378.768198,252.783586 382.994378,251.916309 C387.220559,251.049031 394.884821,234.590365 394.884821,234.590365 L399.766109,216.833232 L403.55391,199.291694 L404.647397,187.399708 L406.395992,161.0874 L408.947462,143.692859 C408.947462,143.692859 411.799395,134.339005 410.779792,133.109137 Z" id="Path" fill="#65617D"></path>
                    <path d="M364,189.964342 L359.808955,192.984762 C359.808955,192.984762 353.400271,193.199048 348.818453,192.020472 L346.488467,190.938835 L346,190.724549 L346.488467,190.882713 C348.906377,191.632716 350.796744,191.617409 352.276798,191.096999 C358.206784,189.010256 357.552239,178.780623 357.322659,176.46939 C357.322659,176.234695 357.283582,176.086735 357.273813,176.030612 C357.272763,176.020438 357.272763,176.010175 357.273813,176 L357.308005,176.061225 C357.389843,176.20062 357.481264,176.333623 357.581547,176.459186 C357.664586,176.556125 357.75251,176.658166 357.845319,176.755105 L357.845319,176.755105 L359.940841,181.127572 C359.940841,181.127572 359.940841,181.188796 359.940841,181.311246 L364,189.964342 Z" id="Path" fill="#000000" opacity="0.1"></path>
                    <path d="M377.83944,162 L375.827047,162.585106 L375.540948,166.765141 C375.540948,166.765141 373.174569,166.39821 372.529634,169.244403 C371.884698,172.090595 370.735453,173.429397 370.735453,173.429397 C370.735453,173.429397 366.788254,176.801193 366.574892,179.662261 L364.150323,181.204361 C364.150323,181.204361 358.481681,179.880436 357.19181,177.535054 C357.19181,177.535054 359.776401,196.461738 346,191.840394 C346,191.840394 361.425108,198.732742 362.14278,199.689737 C362.860453,200.646732 367.593211,203.428464 371.899246,201.083082 C376.20528,198.737701 377.136315,195.132854 377.136315,195.132854 C377.136315,195.132854 381.296875,189.182626 381.4375,188.309926 C381.578125,187.437226 384.831897,186.400894 384.831897,186.400894 L391,171.143517 L377.83944,162 Z" id="Path" fill="#65617D"></path>
                    <path d="M429.43818,141.524894 L431.508579,132 C431.508579,132 432.435191,135.101809 433.36663,135.823613 L436.436033,138.208494 C436.436033,138.208494 439.505436,139.647226 440.576832,139.647226 C441.648227,139.647226 447.429902,141.163991 448.144166,141.958952 C448.858429,142.753912 451.715484,142.173542 451.715484,142.173542 C451.715484,142.173542 454.070624,142.968503 456.141023,143.47084 C458.211423,143.973176 459.210427,147.440764 458.780903,148.835603 C458.426695,150.223225 458.80415,151.697388 459.779907,152.737249 C460.638954,153.605365 461.068477,156.419427 461.068477,156.419427 C462.114181,156.768347 462.981356,157.520238 463.48153,158.511685 C464.195794,160.096729 463.964141,163.55944 463.964141,163.55944 L453.346708,178.712458 C453.346708,178.712458 453.486665,184.564927 453.061968,185.857347 C452.63727,187.149768 454.55806,209.233084 454.55806,209.233084 L456.773243,247.18147 C456.773243,247.18147 453.843797,249.707786 453.201925,249.995532 C452.560053,250.283278 451.918181,236.578746 451.918181,236.071532 C451.918181,235.564318 435.427377,211.105875 435.427377,211.105875 C435.427377,211.105875 433.212194,207.501729 433.212194,206.716523 C433.212194,205.931316 431.141795,198.635238 431.141795,198.635238 L428,184.564927 L429.43818,141.524894 Z" id="Path" fill="#000000" opacity="0.1"></path>
                    <path d="M464.996605,162.738167 C464.996605,163.226075 464.996605,163.56761 464.996605,163.56761 L454.368161,178.69274 L454.368161,178.69274 C454.368161,178.69274 454.513095,184.547629 454.087957,185.835705 C453.836739,186.591961 454.382655,194.359447 454.889921,200.741276 C455.247424,205.342243 455.585601,209.221107 455.585601,209.221107 L456.527668,225.322052 L457.79825,247.180304 C457.79825,247.180304 454.870597,249.707665 454.228059,249.99553 C453.585521,250.283395 452.942984,236.573197 452.942984,236.065773 C452.942984,235.55835 436.430248,211.094672 436.430248,211.094672 C436.430248,211.094672 434.212768,207.479278 434.212768,206.703505 C434.212768,205.927732 432.140222,198.618879 432.140222,198.618879 L429,184.54275 L430.425178,141.523953 L431.594306,132 C431.594306,132 433.381817,135.10797 434.30939,135.825194 L437.381977,138.206182 C437.381977,138.206182 440.454563,139.669905 441.52707,139.669905 C442.599576,139.669905 448.392078,141.182418 449.107082,141.977707 C449.822086,142.772996 452.677273,142.192386 452.677273,142.192386 C452.677273,142.192386 455.034855,142.987675 457.107401,143.49022 C459.179947,143.992764 460.184818,147.461786 459.75485,148.857201 C459.398366,150.245397 459.776451,151.721105 460.75489,152.760461 C461.609996,153.624057 462.039965,156.439283 462.039965,156.439283 C463.086566,156.791377 463.95415,157.544907 464.45552,158.537284 C464.967618,159.586285 465.015929,161.591585 464.996605,162.738167 Z" id="Path" fill="#65617D"></path>
                    <path d="M377,354 C377.37414,354 393.298134,354.628875 392.995748,357.309587 C392.693361,359.9903 377,354 377,354 Z" id="Path" fill="#000000" opacity="0.1"></path>
                    <path d="M380,358 C380,358 390.239656,359.907694 387.54966,361.652673 C384.859664,363.397652 380,358 380,358 Z" id="Path" fill="#000000" opacity="0.1"></path>
                    <path d="M419,353 C419,353 435.173099,354.316777 432.753207,355.989084 C430.333316,357.661391 424.596584,357.933525 424.344317,357.999364 C424.09205,358.065203 419,353 419,353 Z" id="Path" fill="#000000" opacity="0.1"></path>
                    <path d="M416,359 C416,359 425.696182,360.667941 425.993672,362.592489 C426.291163,364.517036 416,359 416,359 Z" id="Path" fill="#000000" opacity="0.1"></path>
                    <path d="M421,317 C421,317 429.497854,319.365714 430,321 L421,317 Z" id="Path" fill="#000000" opacity="0.1"></path>
                    <path d="M388.108807,323 C388.108807,323 383.4635,324.148833 387.9619,326.455136 C392.4603,328.761439 388.108807,323 388.108807,323 Z" id="Path" fill="#000000" opacity="0.1"></path>
                    <path d="M410,253 C410.480905,253 418.252334,251.516366 420.955021,252.163364 C422.889265,252.584772 424.934032,252.810228 427,252.829884 L410,253 Z" id="Path" fill="#000000" opacity="0.1"></path>
                    <path d="M409,262.865293 L408.923591,263.564184 L402.357211,280.736926 C402.357211,280.736926 401.297039,285.938193 400.380134,288.89065 C399.800301,290.898432 399.339462,292.938397 399,295 L404.830946,259 L409,262.865293 Z" id="Path" fill="#000000" opacity="0.1"></path>
                    <polygon id="Path" fill="#3F3D56" points="420 231.947299 417.527508 232 417.449838 232 416 224.142292 418.157497 224"></polygon>
                    <path d="M453,222.809802 L451.265457,224.245459 L445.488347,229.093196 C445.488347,229.093196 429.839852,237.592288 425.529348,229.519107 C421.731215,222.407818 439.471503,217.330376 443.744402,216.22492 C444.322583,216.076568 444.651629,216 444.651629,216 L453,222.809802 Z" id="Path" fill="#FBBEBE"></path>
                    <path d="M385,151 C385,151 388.19167,152.499543 388.922176,154.548919 C389.652681,156.598294 385,151 385,151 Z" id="Path" fill="#000000" opacity="0.1"></path>
                    <path d="M375,173 C375,173 369.208532,178.549424 371.563036,180.694175 C373.91754,182.838927 375,173 375,173 Z" id="Path" fill="#000000" opacity="0.1"></path>
                    <path d="M458,155 C458,155 454.126499,155.414918 454,159 L458,155 Z" id="Path" fill="#000000" opacity="0.1"></path>
                    <path d="M417,213 C417.44,212.563835 427.65,197.773442 430,199.081936 L417,213 Z" id="Path" fill="#000000" opacity="0.1"></path>
                    <path d="M435.999982,118.133768 C436.004106,120.936143 435.312355,123.695618 433.98692,126.16411 L433.861406,126.139951 C432.784876,125.91286 432.224888,124.656609 431.399388,123.873868 C430.361058,122.883537 428.807532,122.665852 427.537399,123.332714 C426.26407,124.098236 425.531632,125.517648 425.645025,127 C425.099519,124.709758 425.273308,122.279396 424.742285,119.984322 C424.211262,117.689248 422.613364,115.370016 420.421685,115.331362 C419.456188,115.331362 418.379659,115.674415 417.694156,114.968982 C417.28382,114.543789 417.211407,113.872178 416.892793,113.350351 C415.328688,110.818522 410.56396,112.098932 408.618483,113.398668 C406.673006,114.698405 404.41857,116.780882 402,117.892181 C402.066654,108.496417 409.730762,100.933726 419.118264,101.000438 C428.505767,101.06715 436.061808,108.738003 435.995154,118.133768 L435.999982,118.133768 Z" id="Path" fill="#000000" opacity="0.1"></path>
                    <path d="M417.311735,113.255408 C417.622666,113.776184 417.705257,114.452706 418.118213,114.881007 C418.803233,115.596466 419.915783,115.226569 420.863151,115.246037 C423.068818,115.284974 424.676915,117.621165 425.211328,119.933021 C425.745741,122.244877 425.570842,124.693011 426.11983,127 C426.004372,125.505311 426.744092,124.074114 428.029141,123.305897 C429.307381,122.63416 430.870822,122.853437 431.915779,123.851009 C432.746548,124.639473 433.310111,125.90491 434.393511,126.133662 C435.476912,126.362414 436.521446,125.320862 436.914968,124.186836 C437.30849,123.05281 437.27934,121.787373 437.53683,120.599809 C438.02266,118.356092 439.48015,116.511474 440.296344,114.374833 C441.25905,111.776776 441.233108,108.914556 440.223469,106.334441 C439.684198,104.981397 438.882579,103.76463 438.333591,102.416453 C437.50768,100.362552 437.293915,98.0360943 436.283389,96.0892682 C434.592702,92.8137333 430.608897,91.1783993 427.329546,92.4097668 C425.770032,92.9938147 424.414567,94.132708 422.825904,94.6437498 C420.702827,95.330006 418.429144,94.8140971 416.233193,94.507472 C414.037242,94.2008469 411.603235,94.1716445 409.834814,95.6171629 C407.799187,97.2865663 407.245341,100.420956 405.331172,102.250973 C404.529553,103.019969 403.533602,103.511543 402.688258,104.197799 C401.842914,104.884055 401.109311,105.964544 401.230768,107.118038 C401.357084,108.60736 402.814573,109.960404 402.275302,111.342651 C402.081203,111.743506 401.810506,112.10233 401.478541,112.398804 C399.878018,114.079507 398.687445,116.108466 398,118.32689 C401.842914,119.533922 406.006475,115.284974 409.01862,113.274876 C410.947365,111.994838 415.737647,110.700198 417.311735,113.255408 Z" id="Path" fill="#7C5C5C"></path>
                    <path d="M453,222.607081 L451.179576,224 C449.576221,221.492745 443,216.478236 443,216.478236 L443.286137,216.218224 C443.892945,216.074289 444.238283,216 444.238283,216 L453,222.607081 Z" id="Path" fill="#000000" opacity="0.1"></path>
                    <path d="M455,219.815343 C455,219.815343 454.419974,221.486267 453.826864,222.924274 C453.233755,224.362281 452.57959,225.678767 452.549062,224.610388 C452.483646,222.514138 445,215.470942 445,215.470942 L446.016136,214.326612 L447.189272,213 L455,219.815343 Z" id="Path" fill="#E7EFFD"></path>
                    <path d="M456.99921,208.624454 L458,225 C455.639163,221.451965 449.162258,212.361056 445,212.653831 L455.08488,201.434101 C455.504923,200.982236 455.89246,200.50308 456.244769,200 C456.624556,204.679436 456.99921,208.624454 456.99921,208.624454 Z" id="Path" fill="#000000" opacity="0.1"></path>
                    <path d="M456,218.87054 C456,218.87054 455.354369,220.552497 454.694175,222 C452.18932,218.396534 448.747573,214.140673 446,213.335372 L447.305825,212 L456,218.87054 Z" id="Path" fill="#000000" opacity="0.1"></path>
                    <path d="M462.191873,160 L464.832468,162.018617 C464.832468,162.018617 469.226856,162.091755 469.667781,165.699911 C470.108706,169.308067 474.126573,170.965869 474.126573,170.965869 C474.126573,170.965869 477.128827,173.920656 477.128827,175.29078 C477.128827,176.660904 479.402811,179.113475 479.402811,179.33289 C479.402811,179.552305 481.602482,183.950355 481.305229,184.740248 C481.007976,185.530142 483.653526,188.996897 482.845989,190.293883 C482.183828,191.459311 481.596431,192.664385 481.087243,193.902039 C481.087243,193.902039 477.644065,200.39672 475.885319,201.620567 C474.126573,202.844415 466.061113,213.161791 466.061113,213.161791 C466.061113,213.161791 457.416011,222.972074 457.416011,226 C457.416011,226 448.993847,212.152482 444,212.513298 L453.749892,201.474291 C453.749892,201.474291 455.434325,199.675089 455.508638,198.592642 C455.582952,197.510195 460.200279,192.531915 462.399949,192.317376 C462.399949,192.317376 462.761607,189.357713 461.810398,189.284574 C460.859189,189.211436 460.051652,186.905142 460.051652,186.905142 C460.051652,186.905142 453.611174,179.406028 453.526953,174.642287 C453.442731,169.878546 462.191873,160 462.191873,160 Z" id="Path" fill="#65617D"></path>
                    <path d="M466,168 C466,168 459.87181,172.401982 461.184289,173.816562 C462.496767,175.231143 466,168 466,168 Z" id="Path" fill="#000000" opacity="0.1"></path>
                    <path d="M466,186 C466,186 477.789391,183.75 479,186 L466,186 Z" id="Path" fill="#000000" opacity="0.1"></path>
                    <path d="M397,377.047986 C397,377.047986 390.962251,381.229658 387.945805,380.644019 C384.92936,380.058379 381.835196,381.712554 381.835196,381.712554 C379.755145,384.114521 377.132939,385.919163 374.213934,386.957623 C369.356534,388.704268 362.507599,388.015884 358.626536,386.649392 C356.790438,386.002106 356.639859,385.169882 357.523906,384.137307 C361.744987,385.02604 371.173201,386.798371 373.713622,385.508936 C377.016654,383.834213 381.762335,380.186809 381.762335,380.186809 C381.762335,380.186809 387.945805,379.277526 388.805565,379.277526 C389.417598,379.277526 394.192422,377.191828 396.88828,376 L397,377.047986 Z" id="Path" fill="#000000" opacity="0.1"></path>
                    <path d="M434,385 L433.934855,385.404105 C433.934855,385.404105 432.431514,388.612305 424.228285,389.780267 C416.025056,390.948229 416,387.079662 416,387.079662 C416,387.079662 416.030067,386.665701 416.080178,386.039831 C418.685969,387.010669 424.368597,388.094853 434,385 Z" id="Path" fill="#000000" opacity="0.1"></path>
                    <path d="M388,167 C388,167 388,183.296808 387.21875,184.905714 C386.4375,186.514619 388,167 388,167 Z" id="Path" fill="#000000" opacity="0.1"></path>
                    <path d="M454,172 L454.950083,178 C454.950083,178 455.328787,172.109453 454,172 Z" id="Path" fill="#000000" opacity="0.1"></path>
                    <g id="Group" opacity="0.1" transform="translate(397.000000, 105.000000)" fill="#000000">
                        <path d="M4.78622222,4.47333333 C5.31422222,3.11422222 3.92577778,1.78444444 3.74488889,0.327555556 C3.56096507,0.73852563 3.48200832,1.18874707 3.51511111,1.63777778 C3.608,2.73288889 4.41466667,3.75466667 4.62977778,4.77155556 C4.6904043,4.67683165 4.74274649,4.57705437 4.78622222,4.47333333 L4.78622222,4.47333333 Z" id="Path"></path>
                        <path d="M28.7906667,20.0493333 C28.2724444,17.7711111 28.424,15.356 27.896,13.0728889 C27.368,10.7897778 25.74,8.404 23.5253333,8.36488889 C22.5475556,8.36488889 21.4524444,8.71688889 20.7631111,8.00311111 C20.3426667,7.57288889 20.2742222,6.88844444 19.9466667,6.36533333 C18.3626667,3.79866667 13.5422222,5.09911111 11.5671111,6.41422222 C8.63377778,8.36977778 4.54666667,12.4911111 0.752888889,11.5622222 C0.572,11.9973333 0.405777778,12.4422222 0.264,12.8968889 C4.13111111,14.1093333 8.32088889,9.84133333 11.352,7.82222222 C13.3075556,6.512 18.1475556,5.21155556 19.7315556,7.77822222 C20.0444444,8.30133333 20.1275556,8.98088889 20.5431111,9.41111111 C21.2324444,10.1297778 22.352,9.75822222 23.3053333,9.77777778 C25.5248889,9.81688889 27.1431111,12.1635556 27.6808889,14.4857778 C28.2186667,16.808 28.0426667,19.2671111 28.5951111,21.5844444 C28.5594716,21.0648816 28.6259065,20.5433675 28.7906667,20.0493333 Z" id="Path"></path>
                        <path d="M39.6635556,17.3408889 C39.2724444,18.4848889 38.2408889,19.5408889 37.1262222,19.2964444 C36.0115556,19.052 35.4688889,17.7955556 34.6377778,16.9986667 C33.5804024,16.0080719 32.0137967,15.7907053 30.7266667,16.456 C29.4986687,17.1879051 28.7633927,18.527492 28.8053333,19.9564444 C29.0982476,19.0733363 29.7054723,18.3286596 30.5115556,17.864 C31.7978439,17.1892503 33.3711296,17.4095103 34.4226667,18.4115556 C35.2586667,19.2035556 35.8257778,20.4746667 36.916,20.7044444 C38.0062222,20.9342222 39.0573333,19.888 39.4533333,18.7488889 C39.6593008,18.0724613 39.7920613,17.3758783 39.8493333,16.6711111 C39.8017836,16.8981109 39.7397304,17.1218289 39.6635556,17.3408889 L39.6635556,17.3408889 Z" id="Path"></path>
                        <path d="M43.0662222,7.48488889 C42.2546667,9.63111111 40.7782222,11.4791111 40.2893333,13.7377778 C40.1915556,14.1924444 40.1328889,14.6568889 40.0791111,15.1262222 C40.568,12.8773333 42.0346667,11.0342222 42.8511111,8.89288889 C43.2115032,7.92959248 43.436899,6.92106983 43.5208889,5.896 C43.4095888,6.4363302 43.2576001,6.96747325 43.0662222,7.48488889 Z" id="Path"></path>
                    </g>
                    <ellipse id="Oval" fill="#E6E8EC" cx="336" cy="164" rx="1" ry="1"></ellipse>
                    <ellipse id="Oval" fill="#4285F4" opacity="0.1" cx="399" cy="385.5" rx="42" ry="4.5"></ellipse>
                    <path d="M242.354581,104.767662 L115,187.506557 L198.110905,337.612839 C198.896018,339.031916 200.238025,340.057505 201.812082,340.441353 L277.116426,358.836444 C279.775378,359.480482 282.522501,358.178151 283.710365,355.710449 L321.063034,277.99948 L362,223.199471 L264.853842,108.108234 C259.261079,101.485562 249.625688,100.05495 242.354581,104.767662 Z" id="Path" fill="#DCDFED"></path>
                    <path d="M365,223.197757 L364.639629,223.685395 L340.660371,255.78662 L340.226952,256.366909 L324.063841,278.003417 L292.117468,344.473384 L291.221412,346.331286 L286.711909,355.708569 C285.523223,358.180399 282.770388,359.483441 280.10836,358.83433 L204.805501,340.430863 C203.230949,340.048147 201.88857,339.02233 201.104397,337.602561 L193.862894,324.548486 L192.562638,322.19807 L140.294282,227.762051 L139.846254,226.957448 L118,187.507515 L120.639472,185.791029 L140.649783,172.79547 L141.112421,172.493134 L183.251439,145.117124 L185.91039,143.390885 L245.3472,104.774814 C252.618553,100.053219 262.261773,101.482206 267.855757,108.110259 L312.171609,160.628896 L314.119558,162.96956 L346.285075,201.073611 L346.46039,201.283295 L362.633241,220.437725 L364.668849,222.851534 L365,223.197757 Z" id="Path" fill="#000000" opacity="0.1"></path>
                    <path d="M344,201.70552 L340.083153,228.925105 L338.902268,237.139587 L338.226782,254.637891 L338.173326,256.003731 L334.659827,347.432373 C334.591335,349.149526 333.764878,350.747841 332.40341,351.79614 C331.041942,352.844438 329.285725,353.234723 327.608531,352.861708 L289.732721,344.404194 L289.324514,344.311842 L192.185745,322.628526 L190.402268,322.229953 L137,310.301942 L138.224622,228.098796 L138.263499,225.352534 L138.632829,200.470917 L139.041037,173.0083 L181.091253,145.720667 L183.7446,144 C222.74784,148.000307 274.61933,155.6947 309.759179,161.182363 L311.703024,163.51547 L343.776458,201.496512 L344,201.70552 Z" id="Path" fill="#000000" opacity="0.1"></path>
                    <path d="M349,168.200083 L344.386549,200.329857 L340.157146,229.75294 L338.975831,237.960637 L338.300099,255.485968 L334.731844,348.423773 C334.663327,350.143579 333.836569,351.744362 332.474605,352.79428 C331.112641,353.844198 329.355784,354.235086 327.677979,353.861494 L289.380013,345.298423 L192.205852,323.581616 L137,311.235994 L138.263959,226.155379 L138.633424,201.235332 L139.066087,172.084865 L139.508473,142.101944 C148.638148,141.668679 163.659818,142.647176 181.593455,144.453259 C221.748469,148.488953 276.487629,156.652837 312.277122,162.275547 C334.192231,165.717328 349,168.200083 349,168.200083 Z" id="Path" fill="#0D2FCF"></path>
                    <path d="M359.971653,220.607481 L339.361503,230.704779 L234.175135,282.238509 L137.238679,202.205361 L117.642702,186 L115,187.714544 L136.872991,227.119824 L135.605275,312.247895 L190.975246,324.600403 L198.210983,337.639703 C198.996116,339.057865 200.340139,340.08252 201.916617,340.464803 L277.311639,358.837698 C279.972226,359.478407 282.719774,358.17805 283.908642,355.715475 L288.423665,346.348806 L326.835485,354.916654 C328.518277,355.290454 330.280358,354.899348 331.646371,353.848844 C333.012383,352.798341 333.841599,351.196665 333.91032,349.4759 L337.489182,256.486257 L361.931738,223.851475 L362,223.0283 L359.971653,220.607481 Z" id="Path" fill="#000000" opacity="0.1"></path>
                    <path d="M115.703734,187 L107.009992,336.386437 C106.843831,339.242321 108.766587,341.797515 111.549461,342.41904 L342.433423,393.864964 C344.071244,394.22485 345.784162,393.857495 347.132274,392.85724 C348.480387,391.856986 349.332346,390.321288 349.469357,388.644536 L363,222.809103 L234.885536,285.860327 L115.703734,187 Z" id="Path" fill="#DCDFED"></path>
                    <path d="M109.478887,340.002313 L229.242528,266.27203 C232.903824,264.056468 237.632185,264.794976 240.439942,268.02092 L347.633268,392.770208 C348.022744,393.217147 348.212613,392.896517 347.633268,392.770208 L109.478887,340.002313 C108.797306,339.851715 108.884938,340.356949 109.478887,340.002313 Z" id="Path" fill="#000000" opacity="0.1"></path>
                    <path d="M110.622695,339.236268 L229.396515,267.344323 C233.272876,264.99839 238.271521,265.786397 241.241698,269.211646 L347.687356,391.873275 C348.048747,392.291934 348.102124,392.895372 347.819855,393.371193 C347.537586,393.847014 346.983047,394.088384 346.443319,393.970347 L111.008103,341.587531 C110.495078,341.47638 110.102018,341.06227 110.016951,340.543298 C109.931884,340.024327 110.172103,339.505999 110.622695,339.236268 L110.622695,339.236268 Z" id="Path" fill="#E3E5F1"></path>
                </g>
            </g>
        </g>
    </g>
</svg>