<?xml version="1.0" encoding="UTF-8"?>
<svg width="977px" height="430px" viewBox="0 0 977 430" version="1.1" xmlns="http://www.w3.org/2000/svg" xmlns:xlink="http://www.w3.org/1999/xlink">
    <!-- Generator: sketchtool 53 (72520) - https://sketchapp.com -->
    <title>ECCF4507-348F-4C9D-9A10-EF357D09ED22</title>
    <desc>Created with sketchtool.</desc>
    <defs>
        <linearGradient x1="50.0011482%" y1="100.009238%" x2="50.0011482%" y2="0%" id="linearGradient-1">
            <stop stop-color="#808080" stop-opacity="0.25" offset="0%"></stop>
            <stop stop-color="#808080" stop-opacity="0.12" offset="54%"></stop>
            <stop stop-color="#808080" stop-opacity="0.1" offset="100%"></stop>
        </linearGradient>
        <rect id="path-2" x="0" y="0" width="242" height="58"></rect>
        <filter x="-47.3%" y="-33.3%" width="194.6%" height="166.7%" filterUnits="objectBoundingBox" id="filter-4">
            <feOffset dx="6" dy="5" in="SourceAlpha" result="shadowOffsetOuter1"></feOffset>
            <feGaussianBlur stdDeviation="6" in="shadowOffsetOuter1" result="shadowBlurOuter1"></feGaussianBlur>
            <feColorMatrix values="0 0 0 0 0   0 0 0 0 0   0 0 0 0 0  0 0 0 0.151919158 0" type="matrix" in="shadowBlurOuter1" result="shadowMatrixOuter1"></feColorMatrix>
            <feMerge>
                <feMergeNode in="shadowMatrixOuter1"></feMergeNode>
                <feMergeNode in="SourceGraphic"></feMergeNode>
            </feMerge>
        </filter>
        <linearGradient x1="-0.0534515576%" y1="49.9968928%" x2="99.9767032%" y2="49.9968928%" id="linearGradient-5">
            <stop stop-color="#808080" stop-opacity="0.25" offset="0%"></stop>
            <stop stop-color="#808080" stop-opacity="0.12" offset="54%"></stop>
            <stop stop-color="#808080" stop-opacity="0.1" offset="100%"></stop>
        </linearGradient>
    </defs>
    <g id="Page-1" stroke="none" stroke-width="1" fill="none" fill-rule="evenodd">
        <g id="CRED-SV-SCROLL" transform="translate(-103.000000, -3700.000000)">
            <g id="Group-11" transform="translate(103.000000, 3700.000000)">
                <g id="noun_Scanner_1015656" opacity="0.307082403" transform="translate(615.000000, 26.000000)" fill="#0F2EBF" fill-rule="nonzero">
                    <path d="M45.3125,3.125 C45.3125,1.39911016 43.9133898,2.31296463e-16 42.1875,0 L7.8125,0 C6.08661016,-2.31296463e-16 4.6875,1.39911016 4.6875,3.125 L4.6875,14.0625 L0,14.0625 L0,20.3125 L50,20.3125 L50,14.0625 L45.3125,14.0625 L45.3125,3.125 Z M39.0625,14.0625 L10.9375,14.0625 L10.9375,6.25 L39.0625,6.25 L39.0625,14.0625 Z M10.9375,25 L10.9375,32.03125 L19.53125,32.03125 C21.2571398,32.03125 22.65625,33.4303602 22.65625,35.15625 L22.65625,43.75 L39.0625,43.75 L39.0625,25 L45.3125,25 L45.3125,46.875 C45.3125,48.6008898 43.9133898,50 42.1875,50 L18.9947917,50 C18.1662694,49.9992706 17.3719473,49.669552 16.7864583,49.0833333 L5.60416667,37.9010417 C5.01794797,37.3155527 4.68822938,36.5212306 4.6875,35.6927083 L4.6875,25 L10.9375,25 Z" id="Shape"></path>
                </g>
                <g id="noun_Scanner_1015656" transform="translate(345.000000, 50.000000)" fill="#0F2EBF" fill-rule="nonzero">
                    <path d="M53.46875,3.6875 C53.46875,1.65094998 51.8178,2.72929827e-16 49.78125,0 L9.21875,0 C7.18219998,-2.72929827e-16 5.53125,1.65094998 5.53125,3.6875 L5.53125,16.59375 L0,16.59375 L0,23.96875 L59,23.96875 L59,16.59375 L53.46875,16.59375 L53.46875,3.6875 Z M46.09375,16.59375 L12.90625,16.59375 L12.90625,7.375 L46.09375,7.375 L46.09375,16.59375 Z M12.90625,29.5 L12.90625,37.796875 L23.046875,37.796875 C25.083425,37.796875 26.734375,39.447825 26.734375,41.484375 L26.734375,51.625 L46.09375,51.625 L46.09375,29.5 L53.46875,29.5 L53.46875,55.3125 C53.46875,57.34905 51.8178,59 49.78125,59 L22.4138542,59 C21.4361979,58.9991393 20.4988978,58.6100714 19.8080208,57.9183333 L6.61291667,44.7232292 C5.9211786,44.0323522 5.53211067,43.0950521 5.53125,42.1173958 L5.53125,29.5 L12.90625,29.5 Z" id="Shape"></path>
                </g>
                <g id="noun_Scanner_1015656" transform="translate(415.000000, 156.000000)" fill="#0F2EBF" fill-rule="nonzero">
                    <path d="M44.40625,3.0625 C44.40625,1.37112795 43.035122,2.26670534e-16 41.34375,0 L7.65625,0 C5.96487795,-2.26670534e-16 4.59375,1.37112795 4.59375,3.0625 L4.59375,13.78125 L0,13.78125 L0,19.90625 L49,19.90625 L49,13.78125 L44.40625,13.78125 L44.40625,3.0625 Z M38.28125,13.78125 L10.71875,13.78125 L10.71875,6.125 L38.28125,6.125 L38.28125,13.78125 Z M10.71875,24.5 L10.71875,31.390625 L19.140625,31.390625 C20.831997,31.390625 22.203125,32.761753 22.203125,34.453125 L22.203125,42.875 L38.28125,42.875 L38.28125,24.5 L44.40625,24.5 L44.40625,45.9375 C44.40625,47.628872 43.035122,49 41.34375,49 L18.6148958,49 C17.802944,48.9992852 17.0245084,48.676161 16.4507292,48.1016667 L5.49208333,37.1430208 C4.91758901,36.5692416 4.5944648,35.790806 4.59375,34.9788542 L4.59375,24.5 L10.71875,24.5 Z" id="Shape"></path>
                </g>
                <g id="noun_Scanner_1015656" transform="translate(415.000000, 276.000000)" fill="#0F2EBF" fill-rule="nonzero">
                    <path d="M35.34375,2.4375 C35.34375,1.09130592 34.2524441,1.80411242e-16 32.90625,0 L6.09375,0 C4.74755592,-1.80411242e-16 3.65625,1.09130592 3.65625,2.4375 L3.65625,10.96875 L0,10.96875 L0,15.84375 L39,15.84375 L39,10.96875 L35.34375,10.96875 L35.34375,2.4375 Z M30.46875,10.96875 L8.53125,10.96875 L8.53125,4.875 L30.46875,4.875 L30.46875,10.96875 Z M8.53125,19.5 L8.53125,24.984375 L15.234375,24.984375 C16.5805691,24.984375 17.671875,26.0756809 17.671875,27.421875 L17.671875,34.125 L30.46875,34.125 L30.46875,19.5 L35.34375,19.5 L35.34375,36.5625 C35.34375,37.9086941 34.2524441,39 32.90625,39 L14.8159375,39 C14.1696901,38.9994311 13.5501189,38.7422506 13.0934375,38.285 L4.37125,29.5628125 C3.91399942,29.1061311 3.65681892,28.4865599 3.65625,27.8403125 L3.65625,19.5 L8.53125,19.5 Z" id="Shape"></path>
                </g>
                <g id="noun_Scanner_1015656" opacity="0.619675409" transform="translate(500.000000, 314.000000)" fill="#0F2EBF" fill-rule="nonzero">
                    <path d="M35.34375,2.4375 C35.34375,1.09130592 34.2524441,1.80411242e-16 32.90625,0 L6.09375,0 C4.74755592,-1.80411242e-16 3.65625,1.09130592 3.65625,2.4375 L3.65625,10.96875 L0,10.96875 L0,15.84375 L39,15.84375 L39,10.96875 L35.34375,10.96875 L35.34375,2.4375 Z M30.46875,10.96875 L8.53125,10.96875 L8.53125,4.875 L30.46875,4.875 L30.46875,10.96875 Z M8.53125,19.5 L8.53125,24.984375 L15.234375,24.984375 C16.5805691,24.984375 17.671875,26.0756809 17.671875,27.421875 L17.671875,34.125 L30.46875,34.125 L30.46875,19.5 L35.34375,19.5 L35.34375,36.5625 C35.34375,37.9086941 34.2524441,39 32.90625,39 L14.8159375,39 C14.1696901,38.9994311 13.5501189,38.7422506 13.0934375,38.285 L4.37125,29.5628125 C3.91399942,29.1061311 3.65681892,28.4865599 3.65625,27.8403125 L3.65625,19.5 L8.53125,19.5 Z" id="Shape"></path>
                </g>
                <g id="noun_Scanner_1015656" opacity="0.101678757" transform="translate(810.000000, 354.000000)" fill="#0F2EBF" fill-rule="nonzero">
                    <path d="M35.34375,2.4375 C35.34375,1.09130592 34.2524441,1.80411242e-16 32.90625,0 L6.09375,0 C4.74755592,-1.80411242e-16 3.65625,1.09130592 3.65625,2.4375 L3.65625,10.96875 L0,10.96875 L0,15.84375 L39,15.84375 L39,10.96875 L35.34375,10.96875 L35.34375,2.4375 Z M30.46875,10.96875 L8.53125,10.96875 L8.53125,4.875 L30.46875,4.875 L30.46875,10.96875 Z M8.53125,19.5 L8.53125,24.984375 L15.234375,24.984375 C16.5805691,24.984375 17.671875,26.0756809 17.671875,27.421875 L17.671875,34.125 L30.46875,34.125 L30.46875,19.5 L35.34375,19.5 L35.34375,36.5625 C35.34375,37.9086941 34.2524441,39 32.90625,39 L14.8159375,39 C14.1696901,38.9994311 13.5501189,38.7422506 13.0934375,38.285 L4.37125,29.5628125 C3.91399942,29.1061311 3.65681892,28.4865599 3.65625,27.8403125 L3.65625,19.5 L8.53125,19.5 Z" id="Shape"></path>
                </g>
                <g id="noun_Scanner_1015656" opacity="0.0447358631" transform="translate(948.000000, 328.000000)" fill="#0F2EBF" fill-rule="nonzero">
                    <path d="M35.34375,2.4375 C35.34375,1.09130592 34.2524441,1.80411242e-16 32.90625,0 L6.09375,0 C4.74755592,-1.80411242e-16 3.65625,1.09130592 3.65625,2.4375 L3.65625,10.96875 L0,10.96875 L0,15.84375 L39,15.84375 L39,10.96875 L35.34375,10.96875 L35.34375,2.4375 Z M30.46875,10.96875 L8.53125,10.96875 L8.53125,4.875 L30.46875,4.875 L30.46875,10.96875 Z M8.53125,19.5 L8.53125,24.984375 L15.234375,24.984375 C16.5805691,24.984375 17.671875,26.0756809 17.671875,27.421875 L17.671875,34.125 L30.46875,34.125 L30.46875,19.5 L35.34375,19.5 L35.34375,36.5625 C35.34375,37.9086941 34.2524441,39 32.90625,39 L14.8159375,39 C14.1696901,38.9994311 13.5501189,38.7422506 13.0934375,38.285 L4.37125,29.5628125 C3.91399942,29.1061311 3.65681892,28.4865599 3.65625,27.8403125 L3.65625,19.5 L8.53125,19.5 Z" id="Shape"></path>
                </g>
                <g id="noun_Scanner_1015656" opacity="0.307082403" transform="translate(535.000000, 216.000000)" fill="#0F2EBF" fill-rule="nonzero">
                    <path d="M26.28125,1.8125 C26.28125,0.811483891 25.4697661,1.34151949e-16 24.46875,0 L4.53125,0 C3.53023389,-1.34151949e-16 2.71875,0.811483891 2.71875,1.8125 L2.71875,8.15625 L0,8.15625 L0,11.78125 L29,11.78125 L29,8.15625 L26.28125,8.15625 L26.28125,1.8125 Z M22.65625,8.15625 L6.34375,8.15625 L6.34375,3.625 L22.65625,3.625 L22.65625,8.15625 Z M6.34375,14.5 L6.34375,18.578125 L11.328125,18.578125 C12.3291411,18.578125 13.140625,19.3896089 13.140625,20.390625 L13.140625,25.375 L22.65625,25.375 L22.65625,14.5 L26.28125,14.5 L26.28125,27.1875 C26.28125,28.1885161 25.4697661,29 24.46875,29 L11.0169792,29 C10.5364362,28.999577 10.0757294,28.8083402 9.73614583,28.4683333 L3.25041667,21.9826042 C2.91040982,21.6430206 2.71917304,21.1823138 2.71875,20.7017708 L2.71875,14.5 L6.34375,14.5 Z" id="Shape"></path>
                </g>
                <g id="noun_Scanner_1015656" opacity="0.619675409" transform="translate(485.000000, 76.000000)" fill="#0F2EBF" fill-rule="nonzero">
                    <path d="M35.34375,2.4375 C35.34375,1.09130592 34.2524441,1.80411242e-16 32.90625,0 L6.09375,0 C4.74755592,-1.80411242e-16 3.65625,1.09130592 3.65625,2.4375 L3.65625,10.96875 L0,10.96875 L0,15.84375 L39,15.84375 L39,10.96875 L35.34375,10.96875 L35.34375,2.4375 Z M30.46875,10.96875 L8.53125,10.96875 L8.53125,4.875 L30.46875,4.875 L30.46875,10.96875 Z M8.53125,19.5 L8.53125,24.984375 L15.234375,24.984375 C16.5805691,24.984375 17.671875,26.0756809 17.671875,27.421875 L17.671875,34.125 L30.46875,34.125 L30.46875,19.5 L35.34375,19.5 L35.34375,36.5625 C35.34375,37.9086941 34.2524441,39 32.90625,39 L14.8159375,39 C14.1696901,38.9994311 13.5501189,38.7422506 13.0934375,38.285 L4.37125,29.5628125 C3.91399942,29.1061311 3.65681892,28.4865599 3.65625,27.8403125 L3.65625,19.5 L8.53125,19.5 Z" id="Shape"></path>
                </g>
                <g id="noun_Scanner_1015656" opacity="0.0447358631" transform="translate(954.000000, 26.000000)" fill="#0F2EBF" fill-rule="nonzero">
                    <path d="M45.3125,3.125 C45.3125,1.39911016 43.9133898,2.31296463e-16 42.1875,0 L7.8125,0 C6.08661016,-2.31296463e-16 4.6875,1.39911016 4.6875,3.125 L4.6875,14.0625 L0,14.0625 L0,20.3125 L50,20.3125 L50,14.0625 L45.3125,14.0625 L45.3125,3.125 Z M39.0625,14.0625 L10.9375,14.0625 L10.9375,6.25 L39.0625,6.25 L39.0625,14.0625 Z M10.9375,25 L10.9375,32.03125 L19.53125,32.03125 C21.2571398,32.03125 22.65625,33.4303602 22.65625,35.15625 L22.65625,43.75 L39.0625,43.75 L39.0625,25 L45.3125,25 L45.3125,46.875 C45.3125,48.6008898 43.9133898,50 42.1875,50 L18.9947917,50 C18.1662694,49.9992706 17.3719473,49.669552 16.7864583,49.0833333 L5.60416667,37.9010417 C5.01794797,37.3155527 4.68822938,36.5212306 4.6875,35.6927083 L4.6875,25 L10.9375,25 Z" id="Shape"></path>
                </g>
                <g id="noun_Scanner_1015656" opacity="0.101678757" transform="translate(765.000000, 236.000000)" fill="#0F2EBF" fill-rule="nonzero">
                    <path d="M45.3125,3.125 C45.3125,1.39911016 43.9133898,2.31296463e-16 42.1875,0 L7.8125,0 C6.08661016,-2.31296463e-16 4.6875,1.39911016 4.6875,3.125 L4.6875,14.0625 L0,14.0625 L0,20.3125 L50,20.3125 L50,14.0625 L45.3125,14.0625 L45.3125,3.125 Z M39.0625,14.0625 L10.9375,14.0625 L10.9375,6.25 L39.0625,6.25 L39.0625,14.0625 Z M10.9375,25 L10.9375,32.03125 L19.53125,32.03125 C21.2571398,32.03125 22.65625,33.4303602 22.65625,35.15625 L22.65625,43.75 L39.0625,43.75 L39.0625,25 L45.3125,25 L45.3125,46.875 C45.3125,48.6008898 43.9133898,50 42.1875,50 L18.9947917,50 C18.1662694,49.9992706 17.3719473,49.669552 16.7864583,49.0833333 L5.60416667,37.9010417 C5.01794797,37.3155527 4.68822938,36.5212306 4.6875,35.6927083 L4.6875,25 L10.9375,25 Z" id="Shape"></path>
                </g>
                <g id="noun_Scanner_1015656" opacity="0.0447358631" transform="translate(925.000000, 216.000000)" fill="#0F2EBF" fill-rule="nonzero">
                    <path d="M54.375,3.125 C54.375,1.39911016 52.6960678,2.31296463e-16 50.625,0 L9.375,0 C7.30393219,-2.31296463e-16 5.625,1.39911016 5.625,3.125 L5.625,14.0625 L0,14.0625 L0,20.3125 L60,20.3125 L60,14.0625 L54.375,14.0625 L54.375,3.125 Z M46.875,14.0625 L13.125,14.0625 L13.125,6.25 L46.875,6.25 L46.875,14.0625 Z M13.125,25 L13.125,32.03125 L23.4375,32.03125 C25.5085678,32.03125 27.1875,33.4303602 27.1875,35.15625 L27.1875,43.75 L46.875,43.75 L46.875,25 L54.375,25 L54.375,46.875 C54.375,48.6008898 52.6960678,50 50.625,50 L22.79375,50 C21.7995232,49.9992706 20.8463368,49.669552 20.14375,49.0833333 L6.725,37.9010417 C6.02153756,37.3155527 5.62587526,36.5212306 5.625,35.6927083 L5.625,25 L13.125,25 Z" id="Shape"></path>
                </g>
                <g id="noun_Scanner_1015656" opacity="0.307082403" transform="translate(594.000000, 126.000000)" fill="#0F2EBF" fill-rule="nonzero">
                    <path d="M35.34375,2.4375 C35.34375,1.09130592 34.2524441,1.80411242e-16 32.90625,0 L6.09375,0 C4.74755592,-1.80411242e-16 3.65625,1.09130592 3.65625,2.4375 L3.65625,10.96875 L0,10.96875 L0,15.84375 L39,15.84375 L39,10.96875 L35.34375,10.96875 L35.34375,2.4375 Z M30.46875,10.96875 L8.53125,10.96875 L8.53125,4.875 L30.46875,4.875 L30.46875,10.96875 Z M8.53125,19.5 L8.53125,24.984375 L15.234375,24.984375 C16.5805691,24.984375 17.671875,26.0756809 17.671875,27.421875 L17.671875,34.125 L30.46875,34.125 L30.46875,19.5 L35.34375,19.5 L35.34375,36.5625 C35.34375,37.9086941 34.2524441,39 32.90625,39 L14.8159375,39 C14.1696901,38.9994311 13.5501189,38.7422506 13.0934375,38.285 L4.37125,29.5628125 C3.91399942,29.1061311 3.65681892,28.4865599 3.65625,27.8403125 L3.65625,19.5 L8.53125,19.5 Z" id="Shape"></path>
                </g>
                <g id="noun_Scanner_1015656" opacity="0.101678757" transform="translate(864.000000, 56.000000)" fill="#0F2EBF" fill-rule="nonzero">
                    <path d="M35.34375,2.4375 C35.34375,1.09130592 34.2524441,1.80411242e-16 32.90625,0 L6.09375,0 C4.74755592,-1.80411242e-16 3.65625,1.09130592 3.65625,2.4375 L3.65625,10.96875 L0,10.96875 L0,15.84375 L39,15.84375 L39,10.96875 L35.34375,10.96875 L35.34375,2.4375 Z M30.46875,10.96875 L8.53125,10.96875 L8.53125,4.875 L30.46875,4.875 L30.46875,10.96875 Z M8.53125,19.5 L8.53125,24.984375 L15.234375,24.984375 C16.5805691,24.984375 17.671875,26.0756809 17.671875,27.421875 L17.671875,34.125 L30.46875,34.125 L30.46875,19.5 L35.34375,19.5 L35.34375,36.5625 C35.34375,37.9086941 34.2524441,39 32.90625,39 L14.8159375,39 C14.1696901,38.9994311 13.5501189,38.7422506 13.0934375,38.285 L4.37125,29.5628125 C3.91399942,29.1061311 3.65681892,28.4865599 3.65625,27.8403125 L3.65625,19.5 L8.53125,19.5 Z" id="Shape"></path>
                </g>
                <g id="noun_Scanner_1015656" opacity="0.307082403" transform="translate(645.000000, 226.000000)" fill="#0F2EBF" fill-rule="nonzero">
                    <path d="M35.34375,2.4375 C35.34375,1.09130592 34.2524441,1.80411242e-16 32.90625,0 L6.09375,0 C4.74755592,-1.80411242e-16 3.65625,1.09130592 3.65625,2.4375 L3.65625,10.96875 L0,10.96875 L0,15.84375 L39,15.84375 L39,10.96875 L35.34375,10.96875 L35.34375,2.4375 Z M30.46875,10.96875 L8.53125,10.96875 L8.53125,4.875 L30.46875,4.875 L30.46875,10.96875 Z M8.53125,19.5 L8.53125,24.984375 L15.234375,24.984375 C16.5805691,24.984375 17.671875,26.0756809 17.671875,27.421875 L17.671875,34.125 L30.46875,34.125 L30.46875,19.5 L35.34375,19.5 L35.34375,36.5625 C35.34375,37.9086941 34.2524441,39 32.90625,39 L14.8159375,39 C14.1696901,38.9994311 13.5501189,38.7422506 13.0934375,38.285 L4.37125,29.5628125 C3.91399942,29.1061311 3.65681892,28.4865599 3.65625,27.8403125 L3.65625,19.5 L8.53125,19.5 Z" id="Shape"></path>
                </g>
                <g id="noun_Scanner_1015656" opacity="0.101678757" transform="translate(835.000000, 151.000000)" fill="#0F2EBF" fill-rule="nonzero">
                    <path d="M35.34375,2.4375 C35.34375,1.09130592 34.2524441,1.80411242e-16 32.90625,0 L6.09375,0 C4.74755592,-1.80411242e-16 3.65625,1.09130592 3.65625,2.4375 L3.65625,10.96875 L0,10.96875 L0,15.84375 L39,15.84375 L39,10.96875 L35.34375,10.96875 L35.34375,2.4375 Z M30.46875,10.96875 L8.53125,10.96875 L8.53125,4.875 L30.46875,4.875 L30.46875,10.96875 Z M8.53125,19.5 L8.53125,24.984375 L15.234375,24.984375 C16.5805691,24.984375 17.671875,26.0756809 17.671875,27.421875 L17.671875,34.125 L30.46875,34.125 L30.46875,19.5 L35.34375,19.5 L35.34375,36.5625 C35.34375,37.9086941 34.2524441,39 32.90625,39 L14.8159375,39 C14.1696901,38.9994311 13.5501189,38.7422506 13.0934375,38.285 L4.37125,29.5628125 C3.91399942,29.1061311 3.65681892,28.4865599 3.65625,27.8403125 L3.65625,19.5 L8.53125,19.5 Z" id="Shape"></path>
                </g>
                <g id="noun_Scanner_1015656" opacity="0.101678757" transform="translate(723.000000, 126.000000)" fill="#0F2EBF" fill-rule="nonzero">
                    <path d="M35.34375,2.4375 C35.34375,1.09130592 34.2524441,1.80411242e-16 32.90625,0 L6.09375,0 C4.74755592,-1.80411242e-16 3.65625,1.09130592 3.65625,2.4375 L3.65625,10.96875 L0,10.96875 L0,15.84375 L39,15.84375 L39,10.96875 L35.34375,10.96875 L35.34375,2.4375 Z M30.46875,10.96875 L8.53125,10.96875 L8.53125,4.875 L30.46875,4.875 L30.46875,10.96875 Z M8.53125,19.5 L8.53125,24.984375 L15.234375,24.984375 C16.5805691,24.984375 17.671875,26.0756809 17.671875,27.421875 L17.671875,34.125 L30.46875,34.125 L30.46875,19.5 L35.34375,19.5 L35.34375,36.5625 C35.34375,37.9086941 34.2524441,39 32.90625,39 L14.8159375,39 C14.1696901,38.9994311 13.5501189,38.7422506 13.0934375,38.285 L4.37125,29.5628125 C3.91399942,29.1061311 3.65681892,28.4865599 3.65625,27.8403125 L3.65625,19.5 L8.53125,19.5 Z" id="Shape"></path>
                </g>
                <g id="noun_Scanner_1015656" opacity="0.31" transform="translate(605.000000, 326.000000)" fill="#0F2EBF" fill-rule="nonzero">
                    <path d="M26.28125,1.8125 C26.28125,0.811483891 25.4697661,1.34151949e-16 24.46875,0 L4.53125,0 C3.53023389,-1.34151949e-16 2.71875,0.811483891 2.71875,1.8125 L2.71875,8.15625 L0,8.15625 L0,11.78125 L29,11.78125 L29,8.15625 L26.28125,8.15625 L26.28125,1.8125 Z M22.65625,8.15625 L6.34375,8.15625 L6.34375,3.625 L22.65625,3.625 L22.65625,8.15625 Z M6.34375,14.5 L6.34375,18.578125 L11.328125,18.578125 C12.3291411,18.578125 13.140625,19.3896089 13.140625,20.390625 L13.140625,25.375 L22.65625,25.375 L22.65625,14.5 L26.28125,14.5 L26.28125,27.1875 C26.28125,28.1885161 25.4697661,29 24.46875,29 L11.0169792,29 C10.5364362,28.999577 10.0757294,28.8083402 9.73614583,28.4683333 L3.25041667,21.9826042 C2.91040982,21.6430206 2.71917304,21.1823138 2.71875,20.7017708 L2.71875,14.5 L6.34375,14.5 Z" id="Shape"></path>
                </g>
                <g id="noun_Scanner_1015656" opacity="0.307082403" transform="translate(715.000000, 336.000000)" fill="#0F2EBF" fill-rule="nonzero">
                    <path d="M26.28125,1.8125 C26.28125,0.811483891 25.4697661,1.34151949e-16 24.46875,0 L4.53125,0 C3.53023389,-1.34151949e-16 2.71875,0.811483891 2.71875,1.8125 L2.71875,8.15625 L0,8.15625 L0,11.78125 L29,11.78125 L29,8.15625 L26.28125,8.15625 L26.28125,1.8125 Z M22.65625,8.15625 L6.34375,8.15625 L6.34375,3.625 L22.65625,3.625 L22.65625,8.15625 Z M6.34375,14.5 L6.34375,18.578125 L11.328125,18.578125 C12.3291411,18.578125 13.140625,19.3896089 13.140625,20.390625 L13.140625,25.375 L22.65625,25.375 L22.65625,14.5 L26.28125,14.5 L26.28125,27.1875 C26.28125,28.1885161 25.4697661,29 24.46875,29 L11.0169792,29 C10.5364362,28.999577 10.0757294,28.8083402 9.73614583,28.4683333 L3.25041667,21.9826042 C2.91040982,21.6430206 2.71917304,21.1823138 2.71875,20.7017708 L2.71875,14.5 L6.34375,14.5 Z" id="Shape"></path>
                </g>
                <g id="noun_Scanner_1015656" opacity="0.101678757" transform="translate(865.000000, 296.000000)" fill="#0F2EBF" fill-rule="nonzero">
                    <path d="M26.28125,1.8125 C26.28125,0.811483891 25.4697661,1.34151949e-16 24.46875,0 L4.53125,0 C3.53023389,-1.34151949e-16 2.71875,0.811483891 2.71875,1.8125 L2.71875,8.15625 L0,8.15625 L0,11.78125 L29,11.78125 L29,8.15625 L26.28125,8.15625 L26.28125,1.8125 Z M22.65625,8.15625 L6.34375,8.15625 L6.34375,3.625 L22.65625,3.625 L22.65625,8.15625 Z M6.34375,14.5 L6.34375,18.578125 L11.328125,18.578125 C12.3291411,18.578125 13.140625,19.3896089 13.140625,20.390625 L13.140625,25.375 L22.65625,25.375 L22.65625,14.5 L26.28125,14.5 L26.28125,27.1875 C26.28125,28.1885161 25.4697661,29 24.46875,29 L11.0169792,29 C10.5364362,28.999577 10.0757294,28.8083402 9.73614583,28.4683333 L3.25041667,21.9826042 C2.91040982,21.6430206 2.71917304,21.1823138 2.71875,20.7017708 L2.71875,14.5 L6.34375,14.5 Z" id="Shape"></path>
                </g>
                <g id="noun_Scanner_1015656" opacity="0.101678757" transform="translate(755.000000, 46.000000)" fill="#0F2EBF" fill-rule="nonzero">
                    <path d="M26.28125,1.8125 C26.28125,0.811483891 25.4697661,1.34151949e-16 24.46875,0 L4.53125,0 C3.53023389,-1.34151949e-16 2.71875,0.811483891 2.71875,1.8125 L2.71875,8.15625 L0,8.15625 L0,11.78125 L29,11.78125 L29,8.15625 L26.28125,8.15625 L26.28125,1.8125 Z M22.65625,8.15625 L6.34375,8.15625 L6.34375,3.625 L22.65625,3.625 L22.65625,8.15625 Z M6.34375,14.5 L6.34375,18.578125 L11.328125,18.578125 C12.3291411,18.578125 13.140625,19.3896089 13.140625,20.390625 L13.140625,25.375 L22.65625,25.375 L22.65625,14.5 L26.28125,14.5 L26.28125,27.1875 C26.28125,28.1885161 25.4697661,29 24.46875,29 L11.0169792,29 C10.5364362,28.999577 10.0757294,28.8083402 9.73614583,28.4683333 L3.25041667,21.9826042 C2.91040982,21.6430206 2.71917304,21.1823138 2.71875,20.7017708 L2.71875,14.5 L6.34375,14.5 Z" id="Shape"></path>
                </g>
                <g id="undraw_post_online_dkuk-(1)">
                    <g id="Group" opacity="0.2" transform="translate(270.000000, 222.000000)">
                        <path d="M13.4482915,169.779739 C13.1070606,170.420585 12.7133845,171.031635 12.2713568,171.606536 C8.36311558,168.837298 4.3879397,166.118649 0.345829146,163.450588 L0.60798995,162.927843 C1.54329446,161.107285 2.94299622,159.570676 4.66311558,158.476078 C6.89427136,157.093333 9.4098995,156.789804 11.4792965,157.913987 C13.5486935,159.03817 14.7033166,161.286536 14.8260302,163.911503 C14.8891669,165.955872 14.4137998,167.980614 13.4482915,169.779739 L13.4482915,169.779739 Z" id="Path" fill="#3F3D56"></path>
                        <ellipse id="Oval" fill="#3F3D56" transform="translate(12.474282, 156.062632) rotate(-62.090000) translate(-12.474282, -156.062632) " cx="12.4742824" cy="156.062632" rx="9.56785373" ry="7.27506401"></ellipse>
                        <ellipse id="Oval" fill="#3F3D56" transform="translate(17.915624, 145.712647) rotate(-62.090000) translate(-17.915624, -145.712647) " cx="17.915624" cy="145.712647" rx="9.56785373" ry="7.27506401"></ellipse>
                        <ellipse id="Oval" fill="#3F3D56" transform="translate(23.356966, 135.362662) rotate(-62.090000) translate(-23.356966, -135.362662) " cx="23.3569657" cy="135.362662" rx="9.56785373" ry="7.27506401"></ellipse>
                        <ellipse id="Oval" fill="#3F3D56" transform="translate(28.792729, 125.018297) rotate(-62.090000) translate(-28.792729, -125.018297) " cx="28.7927294" cy="125.018297" rx="9.56785373" ry="7.27506401"></ellipse>
                        <path d="M41.9736181,41.3418301 C41.6761093,39.7493542 41.489723,38.1378242 41.4158291,36.519085 L59.7782412,42.7470588 L41.4660302,33.1465359 C42.0031387,23.5050965 46.4579849,14.5124461 53.7820101,8.28522876 L71.5252764,34.1414379 L57.7478894,5.3848366 C68.7840365,-1.57564988 82.7532591,-1.74389415 93.9513363,4.94880501 C105.149414,11.6415042 111.701946,24.074884 110.93326,37.1718725 C110.164573,50.268861 102.203334,61.8372084 90.3004523,67.1530719 C90.7544774,69.6343538 90.9414894,72.1577608 90.8582412,74.6794771 L62.968794,74.4546405 L90.4566332,79.0188235 C88.5688446,90.7043599 80.9557329,100.640329 70.2144724,105.437124 C73.4514382,123.428261 62.4235213,140.905181 44.8827541,145.58255 C27.3419869,150.25992 9.17948648,140.566829 3.16251365,123.317001 C-2.85445919,106.067173 5.29491318,87.0540108 21.8820603,79.6427451 C19.0212972,63.7218242 27.3407113,47.8951916 42.0182412,41.3362092 L41.9736181,41.3418301 Z" id="Path" fill="#577ACB"></path>
                        <path d="M86.8142714,89.7997386 C83.1715861,96.7533738 77.3071255,102.264998 70.1698492,105.442745 C73.406815,123.433882 62.3788981,140.910802 44.838131,145.588171 C27.2973638,150.26554 9.13486337,140.57245 3.11789053,123.322622 C-2.89908231,106.072794 5.25029006,87.0596317 21.8374372,79.648366 C20.4875879,72.1781699 88.6438191,86.3203922 86.8142714,89.7997386 Z" id="Path" fill="#577ACB"></path>
                    </g>
                    <g id="Group" opacity="0.2">
                        <path d="M121.40836,347.91949 C121.739949,349.272725 122.187327,350.594813 122.745531,351.871083 C131.365338,348.564076 140.083987,345.387856 148.901479,342.34242 C148.823151,341.983694 148.744823,341.613758 148.655305,341.221401 C147.760193,337.388216 145.86184,333.86316 143.155563,331.008917 C139.636399,327.376815 135.070997,325.605605 130.679035,326.681783 C126.287074,327.757962 123.053248,331.429299 121.59299,336.260892 C120.494102,340.06096 120.430354,344.086411 121.40836,347.91949 L121.40836,347.91949 Z" id="Path" fill="#3F3D56"></path>
                        <ellipse id="Oval" fill="#3F3D56" transform="translate(129.729030, 322.712886) rotate(-13.720000) translate(-129.729030, -322.712886) " cx="129.72903" cy="322.712886" rx="14.027767" ry="18.3884434"></ellipse>
                        <ellipse id="Oval" fill="#3F3D56" transform="translate(124.401920, 300.874039) rotate(-13.720000) translate(-124.401920, -300.874039) " cx="124.40192" cy="300.874039" rx="14.027767" ry="18.3884434"></ellipse>
                        <ellipse id="Oval" fill="#3F3D56" transform="translate(119.081732, 279.035031) rotate(-13.720000) translate(-119.081732, -279.035031) " cx="119.081732" cy="279.035031" rx="14.027767" ry="18.3884434"></ellipse>
                        <ellipse id="Oval" fill="#3F3D56" transform="translate(113.761544, 257.201629) rotate(-13.720000) translate(-113.761544, -257.201629) " cx="113.761544" cy="257.201629" rx="14.027767" ry="18.3884434"></ellipse>
                        <path d="M128.334791,95.3146497 C129.620357,92.4871148 130.706555,89.5728 131.585402,86.593121 L94.3516399,89.4573248 L133.157556,80.2593631 C136.680316,62.0559004 132.566429,43.2023969 121.783215,28.1319745 L76.3977492,67.8496815 L115.707203,20.8621656 C98.3122069,2.69770748 72.2530738,-4.2231274 48.1605822,2.92300376 C24.0680906,10.0691349 5.97027776,30.0874664 1.25011569,54.811554 C-3.47004639,79.5356416 5.97660882,104.831851 25.7363344,120.380637 C23.7320069,124.783924 22.210623,129.392137 21.1989068,134.124331 L73.5611576,146.94879 L19.9624437,142.397452 C17.9833059,165.068148 27.5675127,187.206567 45.4414148,201.250955 C30.9272363,233.199556 43.3606537,270.958456 74.0011993,287.983831 C104.641745,305.009206 143.197987,295.582638 162.565586,266.330833 C181.933184,237.079028 175.607022,197.826973 148.034277,176.168153 C160.880904,147.892164 152.740486,114.481072 128.334791,95.3146497 Z" id="Path" fill="#577ACB"></path>
                        <path d="M21.6297106,164.223694 C25.1807193,178.890063 33.5711868,191.925411 45.4414148,201.217325 C30.9272363,233.165925 43.3606537,270.924825 74.0011993,287.9502 C104.641745,304.975575 143.197987,295.549007 162.565586,266.297202 C181.933184,237.045398 175.607022,197.793343 148.034277,176.134522 C154.071125,162.884076 19.8393569,156.886624 21.6297106,164.223694 Z" id="Path" fill="#577ACB"></path>
                    </g>
                    <g id="Group" opacity="0.9" transform="translate(105.000000, 2.000000)">
                        <rect id="Rectangle" fill="#E5E7EB" x="200.946649" y="93.2235471" width="6.02537838" height="49.8022101" rx="2.29"></rect>
                        <rect id="Rectangle" fill="#E5E7EB" x="0.587432432" y="54.2093861" width="3.38472973" height="16.3951432" rx="1.69236486"></rect>
                        <rect id="Rectangle" fill="#E5E7EB" x="0.464351351" y="84.224161" width="3.81551351" height="28.534502" rx="1.90775676"></rect>
                        <rect id="Rectangle" fill="#E5E7EB" x="0.525891892" y="122.744898" width="3.63089189" height="28.7812142" rx="1.81544595"></rect>
                        <rect id="Rectangle" fill="#0D2FCF" x="2.50078378" y="0.0280354707" width="201.696324" height="410.837394" rx="38.99"></rect>
                        <rect id="Rectangle" fill="#E5E7EB" x="83.8965405" y="12.2963574" width="28.1687838" height="5.7304502" rx="2.8652251"></rect>
                        <ellipse id="Oval" fill="#E5E7EB" cx="119.562081" cy="15.1615825" rx="3.24486486" ry="3.2521146"></ellipse>
                    </g>
                    <path d="M280.963068,13 L257.845913,13 L257.845913,15.8004147 C257.84282,23.092117 251.930212,29.00157 244.63771,29.0015694 L170.933922,29.0015694 C163.64142,29.00157 157.728812,23.092117 157.725719,15.8004147 L157.725719,13 L136.036932,13 C127.179979,13 120,20.1791921 120,29.0351744 L120,385.964826 C120,394.820808 127.179979,402 136.036932,402 L280.963068,402 C289.820021,402 297,394.820808 297,385.964826 L297,29.0351744 C297,20.1791921 289.820021,13 280.963068,13 Z" id="Path" fill="#191C27"></path>
                    <ellipse id="Oval" fill="#FFFFFF" opacity="0.306338356" cx="49" cy="421.5" rx="32" ry="5.5"></ellipse>
                    <path d="M61.8282955,412.969338 C63.2089421,411.676225 64.5050594,410.133565 64.8995299,408.301655 C65.2940004,406.469745 64.51633,404.223813 62.7524834,403.548899 C60.7801311,402.788912 58.6725317,404.161426 57.0777439,405.550955 C55.4829561,406.940484 53.6458508,408.528517 51.5551573,408.233597 C53.7522952,406.23347 54.739531,403.216068 54.1530271,400.293431 C54.0628773,399.702117 53.8133986,399.146987 53.4317097,398.688383 C52.3384629,397.508702 50.35484,398.013469 49.0418168,398.943603 C44.8773357,401.892807 43.7108301,407.592712 43.688289,412.725462 C43.265642,410.870866 43.6206654,408.94254 43.6093949,407.053915 C43.5981243,405.16529 43.0853127,403.049803 41.4961602,402.028924 C40.502877,401.494335 39.387302,401.232229 38.2615023,401.268937 C36.3905852,401.200879 34.3167975,401.38804 33.0263156,402.766225 C31.4315278,404.467689 31.8485394,407.354507 33.2291861,409.243132 C34.6098328,411.131757 36.7174321,412.311439 38.6559728,413.615894 C40.1267841,414.608415 41.6201366,415.765411 42.5274187,417.336429 C42.6467388,417.546529 42.7431006,417.769017 42.8148186,418 L54.5531329,418 C57.1916054,416.659451 59.6386567,414.967353 61.8282955,412.969338 L61.8282955,412.969338 Z" id="Path" fill="#FFFFFF" opacity="0.306338356"></path>
                    <g id="Group" opacity="0.4" transform="translate(329.000000, 378.000000)" fill="#FFFFFF">
                        <ellipse id="Oval" cx="18.5112121" cy="13.7983333" rx="18.2981818" ry="3.128"></ellipse>
                        <path d="M26.0737879,8.68133333 C26.9081696,7.99359295 27.5177801,7.0673166 27.8228788,6.02366667 C28.0471212,4.964 27.5986364,3.69466667 26.6007576,3.30933333 C25.4795455,2.87866667 24.2854545,3.66066667 23.3772727,4.44266667 C22.4690909,5.22466667 21.4319697,6.14266667 20.2434848,5.97266667 C21.4939809,4.83176882 22.054705,3.1077048 21.7178788,1.43933333 C21.6671969,1.10292716 21.5255755,0.787207475 21.3086364,0.527 C20.6863636,-0.147333333 19.5595455,0.141666667 18.8195455,0.668666667 C16.4537879,2.36866667 15.7922727,5.60433333 15.7754545,8.52833333 C15.54,7.47433333 15.7418182,6.375 15.7362121,5.29266667 C15.7306061,4.21033333 15.4334848,3.026 14.5309091,2.42533333 C13.967514,2.122494 13.3355023,1.97401644 12.6977273,1.99466667 C11.6325758,1.955 10.455303,2.06266667 9.72090909,2.84466667 C8.81833333,3.825 9.05378788,5.46266667 9.83863636,6.53933333 C10.6234848,7.616 11.8175758,8.29033333 12.9219697,9.03266667 C13.8013419,9.56507433 14.552108,10.2891101 15.1195455,11.152 C15.1871004,11.2722709 15.2416083,11.3995645 15.2821212,11.5316667 L21.9533333,11.5316667 C23.447932,10.7741302 24.8340377,9.81528857 26.0737879,8.68133333 Z" id="Path"></path>
                    </g>
                    <g id="Group" opacity="0.4" transform="translate(49.000000, 343.000000)" fill="#FFFFFF">
                        <ellipse id="Oval" cx="18.5560606" cy="13.7813333" rx="18.2981818" ry="3.128"></ellipse>
                        <path d="M26.1242424,8.66433333 C26.9604031,7.97695713 27.5687395,7.04766735 27.8677273,6.001 C28.0919697,4.947 27.6490909,3.67766667 26.6456061,3.29233333 C25.5243939,2.86166667 24.330303,3.64366667 23.4277273,4.42566667 C22.5251515,5.20766667 21.4768182,6.12566667 20.2939394,5.95566667 C21.5395564,4.81156408 22.0993511,3.09035804 21.7683333,1.42233333 C21.7153571,1.08491667 21.5740602,0.767963968 21.3590909,0.504333333 C20.7368182,-0.164333333 19.61,0.124666667 18.8643939,0.651666667 C16.4986364,2.35166667 15.8371212,5.58166667 15.8259091,8.50566667 C15.5848485,7.45166667 15.7866667,6.35233333 15.7810606,5.27 C15.7754545,4.18766667 15.4839394,3.00333333 14.5813636,2.43666667 C14.0174072,2.12937598 13.3828976,1.97881065 12.7425758,2.00033333 C11.6830303,1.96066667 10.5001515,2.06833333 9.77136364,2.856 C8.86878788,3.83633333 9.10424242,5.474 9.88909091,6.55066667 C10.6739394,7.62733333 11.8680303,8.296 12.9668182,9.044 C13.8485251,9.57330237 14.5999155,10.2979403 15.1643939,11.1633333 C15.231546,11.2845647 15.2878311,11.411627 15.3325758,11.543 L21.9981818,11.543 C23.4953634,10.7753945 24.8832369,9.80710403 26.1242424,8.66433333 L26.1242424,8.66433333 Z" id="Path"></path>
                    </g>
                    <rect id="Rectangle" fill="#D6D8E0" x="134" y="42" width="29" height="29"></rect>
                    <rect id="Rectangle" fill="#D6D8E0" x="184" y="44" width="60" height="5"></rect>
                    <rect id="Rectangle" fill="#D6D8E0" x="184" y="54" width="99" height="5"></rect>
                    <rect id="Rectangle" fill="#D6D8E0" x="184" y="64" width="99" height="5"></rect>
                    <rect id="Rectangle" fill="#D6D8E0" x="134" y="94" width="29" height="29"></rect>
                    <rect id="Rectangle" fill="#D6D8E0" x="184" y="97" width="60" height="5"></rect>
                    <rect id="Rectangle" fill="#D6D8E0" x="184" y="106" width="99" height="5"></rect>
                    <rect id="Rectangle" fill="#D6D8E0" x="184" y="116" width="99" height="5"></rect>
                    <rect id="Rectangle" fill="#D6D8E0" x="134" y="147" width="29" height="29"></rect>
                    <rect id="Rectangle" fill="#D6D8E0" x="184" y="149" width="60" height="5"></rect>
                    <rect id="Rectangle" fill="#D6D8E0" x="184" y="159" width="99" height="5"></rect>
                    <rect id="Rectangle" fill="#D6D8E0" x="184" y="169" width="99" height="5"></rect>
                    <rect id="Rectangle" fill="#D6D8E0" x="134" y="199" width="29" height="29"></rect>
                    <rect id="Rectangle" fill="#D6D8E0" x="184" y="202" width="60" height="5"></rect>
                    <rect id="Rectangle" fill="#D6D8E0" x="184" y="211" width="99" height="5"></rect>
                    <rect id="Rectangle" fill="#D6D8E0" x="184" y="221" width="99" height="5"></rect>
                    <rect id="Rectangle" fill="#D6D8E0" x="135" y="252" width="29" height="29"></rect>
                    <rect id="Rectangle" fill="#D6D8E0" x="185" y="254" width="60" height="5"></rect>
                    <rect id="Rectangle" fill="#D6D8E0" x="184" y="264" width="99" height="5"></rect>
                    <rect id="Rectangle" fill="#D6D8E0" x="184" y="274" width="99" height="5"></rect>
                    <rect id="Rectangle" fill="#D6D8E0" x="135" y="304" width="29" height="29"></rect>
                    <rect id="Rectangle" fill="#D6D8E0" x="185" y="307" width="60" height="5"></rect>
                    <rect id="Rectangle" fill="#D6D8E0" x="185" y="316" width="99" height="5"></rect>
                    <rect id="Rectangle" fill="#D6D8E0" x="185" y="326" width="99" height="5"></rect>
                    <rect id="Rectangle" fill="#D6D8E0" x="135" y="357" width="29" height="29"></rect>
                    <rect id="Rectangle" fill="#D6D8E0" x="185" y="359" width="60" height="5"></rect>
                    <rect id="Rectangle" fill="#D6D8E0" x="185" y="369" width="99" height="5"></rect>
                    <rect id="Rectangle" fill="#D6D8E0" x="185" y="379" width="99" height="5"></rect>
                    <rect id="Rectangle" fill="url(#linearGradient-1)" x="87" y="128" width="244" height="61"></rect>
                    <g id="Group-4" transform="translate(88.000000, 130.000000)">
                        <mask id="mask-3" fill="white">
                            <use xlink:href="#path-2"></use>
                        </mask>
                        <use id="Mask" fill="#FFFFFF" xlink:href="#path-2"></use>
                        <g mask="url(#mask-3)">
                            <g transform="translate(154.000000, 16.000000)">
                                <path d="M74,28.759187 L74,98.235895 C74,101.972221 71.0509596,105 67.4180404,105 L6.58195959,105 C2.94624659,105 0,101.972221 0,98.235895 L0,6.76410501 C-0.000199556122,3.02777935 2.94604704,0 6.58195959,0 L46.0152472,0 L74,28.759187 Z" id="Path" fill="#0F2EBF" fill-rule="evenodd"></path>
                                <rect id="Rectangle" fill="#78B9EB" fill-rule="evenodd" x="18" y="51" width="38" height="4"></rect>
                                <rect id="Rectangle" fill="#78B9EB" fill-rule="evenodd" x="18" y="43" width="38" height="4"></rect>
                                <rect id="Rectangle" fill="#78B9EB" fill-rule="evenodd" x="18" y="63" width="38" height="4"></rect>
                                <polygon id="Path" fill="#0522AB" fill-rule="evenodd" points="50 27.593188 74 38 74 28.2287647 60.3927598 24"></polygon>
                                <path d="M74,29 L52.5855457,29 C48.9476522,29 46,25.9468678 46,22.1792562 L46,0 L74,29 Z" id="Path" fill="#ACD1FC" fill-rule="evenodd"></path>
                                <path d="M26.5,12 C21.2533422,12 17,16.4772023 17,22 C17,27.5227977 21.2533422,32 26.5,32 C31.7466578,32 36,27.5227977 36,22 C36,16.4772023 31.7466578,12 26.5,12 Z M26.5,15.7931034 C27.9474256,15.7931034 29.1206897,17.0281183 29.1206897,18.5517241 C29.1206897,20.07533 27.9474256,21.3103448 26.5,21.3103448 C25.0525744,21.3103448 23.8793103,20.07533 23.8793103,18.5517241 C23.8793103,17.0281183 25.0525744,15.7931034 26.5,15.7931034 Z M32.0689655,27.862069 L20.9310345,27.862069 L20.9310345,26.8275862 C20.9310345,24.5422616 22.6910106,22.6896552 24.862069,22.6896552 L28.137931,22.6896552 C30.3089894,22.6896552 32.0689655,24.5422616 32.0689655,26.8275862 L32.0689655,27.862069 Z" id="Shape" fill="#78B9EB" fill-rule="nonzero"></path>
                            </g>
                        </g>
                        <g filter="url(#filter-4)" mask="url(#mask-3)">
                            <g transform="translate(116.000000, 6.000000)">
                                <path d="M74,28.759187 L74,98.235895 C74,101.972221 71.0509596,105 67.4180404,105 L6.58195959,105 C2.94624659,105 0,101.972221 0,98.235895 L0,6.76410501 C-0.000199556122,3.02777935 2.94604704,0 6.58195959,0 L46.0152472,0 L74,28.759187 Z" id="Path" fill="#0F2EBF" fill-rule="evenodd"></path>
                                <rect id="Rectangle" fill="#78B9EB" fill-rule="evenodd" x="18" y="51" width="38" height="4"></rect>
                                <rect id="Rectangle" fill="#78B9EB" fill-rule="evenodd" x="18" y="43" width="38" height="4"></rect>
                                <rect id="Rectangle" fill="#78B9EB" fill-rule="evenodd" x="18" y="63" width="38" height="4"></rect>
                                <polygon id="Path" fill="#0522AB" fill-rule="evenodd" points="50 27.593188 74 38 74 28.2287647 60.3927598 24"></polygon>
                                <path d="M74,29 L52.5855457,29 C48.9476522,29 46,25.9468678 46,22.1792562 L46,0 L74,29 Z" id="Path" fill="#ACD1FC" fill-rule="evenodd"></path>
                                <path d="M26.5,12 C21.2533422,12 17,16.4772023 17,22 C17,27.5227977 21.2533422,32 26.5,32 C31.7466578,32 36,27.5227977 36,22 C36,16.4772023 31.7466578,12 26.5,12 Z M26.5,15.7931034 C27.9474256,15.7931034 29.1206897,17.0281183 29.1206897,18.5517241 C29.1206897,20.07533 27.9474256,21.3103448 26.5,21.3103448 C25.0525744,21.3103448 23.8793103,20.07533 23.8793103,18.5517241 C23.8793103,17.0281183 25.0525744,15.7931034 26.5,15.7931034 Z M32.0689655,27.862069 L20.9310345,27.862069 L20.9310345,26.8275862 C20.9310345,24.5422616 22.6910106,22.6896552 24.862069,22.6896552 L28.137931,22.6896552 C30.3089894,22.6896552 32.0689655,24.5422616 32.0689655,26.8275862 L32.0689655,27.862069 Z" id="Shape" fill="#78B9EB" fill-rule="nonzero"></path>
                            </g>
                        </g>
                    </g>
                    <rect id="Rectangle" fill="#FFFFFF" x="135" y="144" width="29" height="29"></rect>
                    <path d="M174.095827,181.858048 C172.566397,180.349596 170.024845,179.850517 168.186156,180.960827 C166.757939,181.818794 165.970733,183.416968 165.251001,184.92542 C164.199518,187.168471 162.658843,189.265723 162.186519,191.688218 C160.887629,198.366902 155.557118,203.553958 153.420415,210.008337 C152.6557,212.313071 152.295834,214.786035 151.08691,216.888895 C150.515584,217.809619 149.876569,218.686815 149.175123,219.513265 C146.408474,222.993353 143.961985,226.715052 141.86535,230.63319 C140.650803,230.86871 139.571206,231.894906 138.536592,232.696797 C137.210922,233.724579 135.67544,234.450037 134.03827,234.822087 C133.379212,234.89955 132.747541,235.130022 132.193958,235.495003 C131.417998,236.13988 131.311163,237.300659 130.681398,238.080119 C130.223913,238.590965 129.643317,238.976978 128.994527,239.201644 C128.994527,239.005377 128.966412,238.80911 128.960789,238.607236 C128.932675,237.569825 128.915806,236.526806 128.915806,235.483787 C132.661479,231.085218 132.647178,224.624291 128.882069,220.242256 C128.926366,218.618332 129.143121,217.003663 129.528703,215.425304 C129.725504,214.65706 129.69739,213.714978 129.073247,213.215899 C128.763988,212.974771 128.364762,212.885049 128.033011,212.655137 C127.56554,212.260974 127.182986,211.77645 126.90843,211.230799 C125.188135,208.79941 121.951521,207.974628 119.272529,209.284953 C117.242661,210.350402 116.011245,212.4813 114.211917,213.928068 C113.289761,214.668275 112.227032,215.22343 111.304876,215.969244 C109.459398,217.575288 108.147424,219.703166 107.543154,222.070343 C106.95188,224.428384 106.608901,226.84151 106.519786,229.270536 C106.423737,229.999041 106.452256,230.738515 106.60413,231.457511 C106.786019,232.059395 107.065213,232.627631 107.430696,233.139799 C109.144334,235.920883 111.552661,238.210597 114.419964,239.784837 C114.431415,239.92854 114.431415,240.072922 114.419964,240.216625 C114.419964,240.44093 114.346866,240.659627 114.29626,240.883932 L113.970132,240.79421 C112.766831,240.525044 111.46794,240.55869 110.388343,239.958674 C108.544031,238.92687 107.987364,236.409046 106.221772,235.253875 C106.07171,235.156691 105.913711,235.072279 105.749449,235.001531 C105.624777,231.812019 105.014267,228.659985 103.938874,225.653617 C103.421567,224.218064 102.786179,222.754473 102.8649,221.223591 C102.932374,219.804861 103.612746,218.498284 104.220019,217.214138 C106.339853,212.784112 107.8243,208.08492 109.280631,203.402552 C110.214033,200.460416 111.151183,197.516412 112.092082,194.570539 C113.007804,193.892681 113.836798,193.105487 114.560537,192.22655 C116.061027,190.484507 117.051276,188.363874 117.422594,186.097414 C117.782744,183.812979 117.214016,181.479656 115.842558,179.614997 C115.235802,178.722391 114.272747,178.133866 113.199794,178 C112.257557,178.020362 111.36508,178.425853 110.73134,179.121525 C109.7992,180.181943 109.081304,181.411999 108.617129,182.744053 C107.694973,184.914204 106.761571,187.168471 106.851537,189.523674 C106.924635,191.475128 107.655612,193.656495 106.514163,195.243454 C102.774933,200.441724 99.9522362,206.419455 96.9889667,212.105589 C96.2399845,213.463608 95.5970696,214.877178 95.0659341,216.33374 C94.349506,218.696109 94.0098614,221.156101 94.0594346,223.623656 C94.0313201,228.249948 94.666708,232.85381 95.2964731,237.440849 C95.5832411,239.510064 95.9487298,241.708254 96.9327377,243.497087 C96.2880958,245.713873 95.9494785,248.007951 95.9262382,250.315961 C95.9001368,250.848879 95.984355,251.381448 96.1736459,251.880489 C96.5045774,252.461063 96.923778,252.986951 97.4163073,253.43941 C98.7498897,254.950212 99.3647589,256.961504 99.103178,258.957315 C98.9382719,260.81537 99.1077504,262.687862 99.6036163,264.486436 C100.728197,269.466009 101.852777,274.439974 102.752442,279.4588 C102.966054,280.392368 103.038078,281.352604 102.966112,282.307475 C102.791802,283.664521 102.038333,284.954275 102.201397,286.316929 C102.362481,286.947837 102.482685,287.588431 102.561263,288.234737 C102.524604,288.727879 102.410768,289.21226 102.223889,289.67029 C100.941867,293.388147 97.4950279,301.91174 97.5343882,305.848294 L98.4340526,305.635205 C97.5287653,310.743753 95.4089311,315.627996 94.2955965,320.719722 C93.5234179,324.429496 93.1725875,328.214191 93.2497366,332.002268 C93.3238616,333.70349 93.2938169,335.407637 93.1597702,337.105209 C92.9854602,338.613661 92.59748,340.088467 92.3838097,341.591311 C92.1419557,343.606107 92.051737,345.636137 92.1139104,347.664371 C92.0553725,350.851716 92.2433597,354.038818 92.6762006,357.197337 C93.5365047,362.58066 92.0295668,367.930336 91.619095,373.364127 C91.4111136,377.165671 90.9792799,380.951739 90.3258274,384.702749 C90.0165678,386.2841 89.6285875,387.854236 89.4149172,389.45241 C88.7851522,394.196462 89.7016853,399.086313 88.7120544,403.768682 C88.2453536,405.961264 87.413164,408.423013 88.6389567,410.29596 C89.026937,410.884761 89.5836043,411.344586 90.005322,411.910957 C90.4752024,412.456451 90.6245247,413.207416 90.3989251,413.890449 C90.1571403,414.406351 89.5948501,414.742809 89.4542776,415.292356 C89.2293615,416.155931 90.1346487,416.862492 90.9443467,417.232595 L91.1748857,417.322317 C91.0679231,417.920039 91.2281272,418.534535 91.6134721,419.004605 C92.0946241,419.45711 92.6921735,419.767691 93.3397031,419.901826 L103.955743,423.109388 C106.322985,423.827165 108.898274,424.533726 111.265516,423.950533 C111.318881,424.286491 111.464895,424.601025 111.687233,424.858968 C112.168385,425.311473 112.765935,425.622053 113.413464,425.756189 L123.950783,428.941321 C126.661022,429.760034 129.635538,430.567533 132.238941,429.457223 C132.98487,429.15089 133.639322,428.658488 134.139482,428.027278 C134.976437,426.79997 135.223632,425.265361 134.814231,423.83838 C134.682369,423.121112 134.323749,422.464772 133.790863,421.965433 C133.069712,421.465135 132.217455,421.18637 131.339277,421.163542 C130.589972,421.141109 129.855544,420.949373 129.191328,420.602779 C128.990891,420.472695 128.823439,420.29802 128.702136,420.092485 C129.309409,419.494338 129.89794,418.873761 130.467727,418.230753 C130.006649,418.073739 129.843585,417.412039 129.798602,416.929783 C129.129476,409.785666 131.82847,402.80417 132.851838,395.704914 C133.368743,392.143095 133.459345,388.532631 133.121737,384.949485 C132.998033,383.598047 132.812478,382.252216 132.756249,380.89517 C132.491972,373.82956 135.876959,367.033116 135.758878,359.961898 C135.702649,356.653398 137.445749,353.389758 138.294807,350.187803 C139.03703,347.350344 139.059522,344.378301 139.076391,341.439905 L139.21134,318.302835 C139.21134,315.173779 139.21134,311.971823 138.210464,309.016604 C137.705264,307.372876 137.567078,305.638766 137.805615,303.936093 C140.667672,302.674377 143.377911,300.807037 146.43677,301.13228 C147.252091,298.973343 146.284952,291.778758 145.520237,289.597391 C142.513895,281.014877 141.930358,271.77348 143.833366,262.882654 C144.524983,259.691914 143.574713,256.2993 144.34505,253.119775 C144.486472,252.37346 144.770941,251.661364 145.182863,251.022522 C145.607294,250.375222 146.336165,249.991644 147.111518,250.007542 C147.111518,248.061695 147.072158,246.082203 146.942831,244.108318 C148.184719,243.097044 149.243983,241.881346 150.074788,240.513829 C151.761658,237.710015 152.723175,234.552921 153.887116,231.502372 C155.950721,226.11905 158.767795,221.066578 161.135037,215.801016 C163.502279,210.535453 163.732818,204.77642 165.633359,199.325807 C166.680094,196.323785 168.844331,193.83816 171.677979,192.383564 C172.802559,191.822801 174.000237,191.419052 174.815558,190.499401 C175.432637,189.732772 175.811772,188.8031 175.906401,187.824563 C176.261904,185.663418 175.593252,183.459962 174.095827,181.858048 L174.095827,181.858048 Z M108.307869,413.525953 C108.538408,413.27361 108.763324,413.021267 108.976994,412.746493 C108.268509,412.634341 107.402582,412.118439 107.385713,411.400663 C107.436398,410.681128 107.591715,409.972765 107.846791,409.297802 C108.179482,408.080443 108.233291,406.804036 108.004232,405.563123 C107.846791,404.69394 107.5544,403.880835 107.374467,402.994829 C107.202886,402.034322 107.090219,401.06427 107.037093,400.090078 C106.733856,396.593974 106.047517,393.141515 104.990357,389.794475 C103.972611,386.547659 105.367091,383.261589 105.726957,379.88019 C105.901267,378.276408 105.822546,376.622158 106.384837,375.113707 C106.716588,374.216486 107.262009,373.431418 107.593761,372.522983 C108.364098,370.442553 107.908643,368.126603 107.436319,365.956451 C110.765077,359.939467 111.867166,352.761704 113.121074,345.98769 C113.825811,342.185719 114.530548,338.385617 115.235285,334.587384 C115.544544,332.905096 115.887541,331.133086 116.922156,329.77604 C118.017307,334.808948 118.448296,339.963 118.204177,345.107293 C118.074738,346.600858 118.093572,348.103523 118.260406,349.593395 C118.51906,351.225214 119.199431,352.767312 119.593034,354.371093 C120.470207,357.909506 119.958523,361.627363 120.155324,365.266713 C120.228422,366.735911 120.419601,368.20511 120.481453,369.674308 C120.756975,376.173548 118.575289,382.493344 116.421717,388.633696 C115.100335,392.396414 114.807944,396.675033 114.172556,400.617195 C113.576529,404.391129 112.986124,408.170669 112.682487,411.978248 C112.592521,413.139027 112.519423,414.333452 112.37885,415.511054 C112.017179,415.431279 111.651032,415.373229 111.282384,415.337217 C110.533079,415.314784 109.798651,415.123048 109.134436,414.776454 C108.73702,414.45386 108.448499,414.01736 108.307869,413.525953 L108.307869,413.525953 Z" id="Shape" fill="url(#linearGradient-5)" fill-rule="nonzero"></path>
                    <path d="M131.310491,421.022097 C132.192617,421.047343 133.048828,421.329824 133.77644,421.835662 C134.310983,422.342319 134.671656,423.008798 134.805804,423.737801 C135.216947,425.18833 134.968116,426.749028 134.127102,427.994697 C133.623171,428.634615 132.964703,429.131923 132.215426,429.438489 C129.596769,430.584356 126.604826,429.753602 123.878709,428.922849 L113.200471,425.662858 C112.549555,425.528014 111.948421,425.212632 111.464126,424.751893 C110.862362,423.931319 110.844159,422.813399 111.418879,421.973166 C111.993175,421.165222 112.775853,420.532925 113.681218,420.145509 C117.006855,418.506919 120.751026,418.128783 124.427326,418.060031 C125.784729,418.031384 127.119508,417.733459 128.041411,418.793386 C128.527814,419.366319 128.442977,419.973628 129.172581,420.460622 C129.833725,420.810221 130.564949,421.002261 131.310491,421.022097 L131.310491,421.022097 Z" id="Path" fill="#3F3D56"></path>
                    <path d="M111.310054,415.017393 C112.192194,415.037353 113.049327,415.318351 113.77595,415.825799 C114.307368,416.335257 114.66744,417.001109 114.805292,417.729279 C115.217238,419.180781 114.968356,420.742934 114.126605,421.989175 C113.623025,422.631269 112.964614,423.13087 112.21497,423.439718 C109.59637,424.586392 106.604491,423.74932 103.878432,422.917981 L93.2004235,419.655692 C92.5487137,419.523078 91.9469937,419.207159 91.464116,418.744086 C90.8623649,417.922933 90.8441619,416.804225 91.4188702,415.9634 C91.9918668,415.153646 92.7749085,414.520597 93.6811601,414.134454 C97.0067263,412.494709 100.74516,412.116307 104.398759,412.047506 C105.750477,412.047506 107.090884,411.720704 108.012767,412.781378 C108.499159,413.354715 108.414323,413.968186 109.143912,414.44979 C109.814179,414.803002 110.554898,414.997096 111.310054,415.017393 Z" id="Path" fill="#3F3D56"></path>
                    <path d="M120.394321,300.000703 C114.174036,299.372481 107.916763,299.195931 101.671202,299.472428 C101.258887,299.467236 100.848643,299.531831 100.457667,299.663506 C99.0819536,300.225501 98.8694451,302.035126 98.7352292,303.518793 C98.2095503,309.515282 95.5755632,315.107135 94.2613658,320.991225 C93.4926009,324.686245 93.1436431,328.457013 93.2211926,332.23113 C93.2942378,333.917369 93.264356,335.606522 93.1317153,337.289087 C92.9583531,338.795234 92.5724824,340.262042 92.3599739,341.785049 C92.1194401,343.791098 92.0297087,345.812513 92.091542,347.832117 C92.0338796,351.002178 92.2208507,354.171961 92.650775,357.312977 C93.5064014,362.674411 92.0076571,367.990886 91.5994171,373.40852 C91.3922402,377.194181 90.9627471,380.964241 90.3131813,384.699005 C90.0056032,386.272591 89.6197325,387.834938 89.407224,389.425385 C88.7808831,394.151765 89.6924328,399.024263 88.7081828,403.683204 C88.2440195,405.863745 87.4163548,408.314044 88.6354826,410.179869 C89.0213533,410.769964 89.5749939,411.22518 89.9944186,411.787175 C90.4608213,412.329871 90.6094466,413.078802 90.3858816,413.759778 C90.1454115,414.271194 89.5861785,414.608391 89.4463703,415.153526 C89.2226771,416.013379 90.1230421,416.721493 90.9283376,417.08679 C96.9960148,419.834947 104.819683,417.896063 108.913269,412.618928 C108.208635,412.506529 107.347416,411.995113 107.330639,411.281379 C107.381018,410.563907 107.535508,409.85769 107.78921,409.185137 C108.120523,407.97283 108.174059,406.70082 107.945796,405.464729 C107.78921,404.604876 107.498409,403.778743 107.319455,402.90765 C107.148812,401.952584 107.036754,400.98788 106.983915,400.018995 C106.682254,396.537276 105.999595,393.099584 104.948307,389.768202 C103.936095,386.536729 105.322993,383.265917 105.680902,379.893945 C105.854264,378.303499 105.775972,376.651233 106.335205,375.150706 C106.665152,374.257133 107.207608,373.46472 107.537556,372.571148 C108.303705,370.497385 107.850726,368.198825 107.38097,366.035143 C110.691629,360.038654 111.787726,352.895694 113.034815,346.151752 C113.73572,342.36765 114.436626,338.583549 115.137531,334.799448 C115.445109,333.113462 115.786241,331.365657 116.81523,330.011249 C117.904617,335.022854 118.333311,340.15669 118.090281,345.280659 C117.963454,346.756946 117.982186,348.242219 118.146204,349.714801 C118.403451,351.338968 119.080123,352.873215 119.471586,354.474901 C120.34399,357.992991 119.835088,361.69654 120.030819,365.321409 C120.103519,366.782597 120.293659,368.243784 120.355174,369.710592 C120.629198,376.179157 118.459375,382.473504 116.317512,388.582392 C115.003315,392.3309 114.712514,396.590824 114.080581,400.513551 C113.487794,404.273299 112.900599,408.033047 112.598613,411.826515 C112.324589,415.310885 112.20715,419.081873 110.048511,421.81879 C112.017011,423.105759 114.058211,424.415208 116.362251,424.859184 C119.054894,425.281555 121.809814,424.746929 124.152366,423.347417 C126.477216,421.946483 128.555734,420.169117 130.303928,418.087142 C129.845357,417.929783 129.683179,417.266628 129.638441,416.788933 C128.972954,409.679693 131.657272,402.739052 132.675076,395.657912 C133.189131,392.110888 133.279248,388.514813 132.943507,384.946283 C132.820476,383.603114 132.635929,382.265565 132.580006,380.916777 C132.317167,373.880596 135.683749,367.108554 135.56631,360.072374 C135.510387,356.779081 137.244009,353.525129 138.08845,350.338616 C138.826638,347.52864 138.849007,344.555685 138.865784,341.63331 L139,318.591505 C139,315.472432 139,312.285919 138.004565,309.341064 C136.774253,305.806114 138.177928,301.737268 138.390436,298 C132.579911,299.844425 126.465514,300.524188 120.394321,300.000703 L120.394321,300.000703 Z" id="Path" fill="#3F3D56"></path>
                    <path d="M140.385023,234.181504 C142.760916,229.386581 145.663056,224.863532 149.039291,220.693636 C149.742933,219.878214 150.38528,219.013165 150.961205,218.105393 C152.176534,216.030336 152.538306,213.581546 153.307071,211.305677 C155.455093,204.92432 160.813843,199.798037 162.119615,193.199134 C162.59444,190.806125 164.143277,188.736646 165.20033,186.505403 C165.923875,185.010469 166.715251,183.437442 168.151034,182.600726 C169.999464,181.485104 172.554479,182.003868 174.092011,183.493223 C175.591472,185.069591 176.262152,187.244769 175.906524,189.378129 C175.814384,190.347187 175.432712,191.267422 174.809903,192.022153 C173.990263,192.931385 172.763629,193.344165 171.655702,193.890819 C168.81034,195.317548 166.633326,197.773595 165.579061,200.746316 C163.691062,206.13477 163.453649,211.835598 161.056909,217.028818 C158.660168,222.222038 155.845129,227.214446 153.770592,232.530384 C152.600485,235.548141 151.656486,238.666304 149.938068,241.455359 C148.219651,244.244414 145.517665,246.581642 142.273021,247 C142.277504,244.984446 141.956945,242.981028 141.32337,241.064891 C140.639394,238.850382 139.356234,236.234249 140.385023,234.181504 Z" id="Path" fill="#A0616A"></path>
                    <path d="M105.470097,238.066454 C105.610859,234.096913 105.004935,230.136591 103.685016,226.399145 C103.178142,224.967401 102.555567,223.513199 102.6327,221.99162 C102.698815,220.582335 103.365465,219.279728 103.960492,218.005196 C106.037576,213.59767 107.492086,208.92064 108.919049,204.260454 L111.673803,195.479092 C112.569486,194.804883 113.381638,194.022475 114.092476,193.148999 C115.559954,191.418138 116.530343,189.308198 116.896816,187.051454 C117.249041,184.776531 116.691364,182.452678 115.348644,180.600184 C114.752814,179.710658 113.808618,179.127184 112.759176,179 C111.835048,179.016389 110.959086,179.423078 110.340502,180.122936 C109.427562,181.176522 108.724021,182.400712 108.268927,183.727562 C107.365368,185.8836 106.450789,188.129473 106.538941,190.465181 C106.610565,192.407861 107.326801,194.575128 106.208371,196.152853 C102.544548,201.323976 99.7787755,207.269924 96.8752649,212.923908 C96.1415366,214.274005 95.5115671,215.680013 94.9910133,217.129305 C94.2881542,219.482902 93.9553015,221.935044 94.0048114,224.394704 C93.9772639,228.998743 94.5998382,233.574709 95.2169031,238.139445 C95.6025686,240.991704 96.1204624,244.102237 98.2416228,246 C100.450935,243.142127 102.665757,240.323557 105.470097,238.066454 Z" id="Path" fill="#A0616A"></path>
                    <circle id="Oval" fill="#A0616A" cx="119.5" cy="228.5" r="11.5"></circle>
                    <path d="M114.371639,240.625044 C114.088025,242.775086 112.947899,244.690682 111.836134,246.543378 C111.161134,247.687017 110.310294,248.904993 109,249.030794 C112.407054,250.83742 115.987698,252.289704 119.686555,253.365187 C120.946107,253.790715 122.266357,254.005134 123.594748,253.999907 C124.718884,253.915362 125.819282,253.630775 126.844958,253.159332 C131.391944,251.150234 134.768545,247.143116 136,242.294758 C134.536475,242.334329 133.072813,242.22127 131.632353,241.957384 C130.826891,241.808711 129.959034,241.568547 129.488235,240.899518 C129.161232,240.317108 129.007626,239.652046 129.045798,238.983922 C128.989076,237.005426 128.989076,235.026929 129.045798,233.048433 C126.154062,232.860763 123.253002,233.219544 120.492017,234.1063 C119.357563,234.477983 118.223109,234.92972 117.060294,235.221348 C116.345588,235.398612 114.377311,235.221348 113.84979,235.638777 C113.05,236.273496 114.581513,239.166904 114.371639,240.625044 Z" id="Path" fill="#A0616A"></path>
                    <path d="M119.509414,247.708145 C119.244603,244.563961 117.009164,241.941862 113.957808,241.196283 C112.760183,240.931984 111.467419,240.960101 110.392915,240.364024 C108.557303,239.334947 108.003262,236.826924 106.245999,235.674133 C104.488736,234.521342 101.981559,235.162407 100.448152,236.624483 C98.9147442,238.086559 98.1368476,240.155959 97.5100533,242.180373 C96.5715896,244.924543 96.063708,247.798713 96.0046277,250.699778 C95.9786184,251.23236 96.0624527,251.764595 96.2508683,252.263075 C96.5818213,252.842533 96.9988948,253.367812 97.4876678,253.820749 C98.8135979,255.318623 99.4262945,257.321543 99.1665812,259.309158 C99.0025487,261.163134 99.1712531,263.031641 99.6646588,264.825684 C100.783934,269.779873 101.90321,274.739686 102.79863,279.738862 C103.008435,280.660224 103.080113,281.607906 103.011293,282.550547 C102.837805,283.900155 102.08789,285.187907 102.250185,286.537516 C102.410501,287.168299 102.530139,287.808819 102.608353,288.455085 C102.571785,288.944147 102.458457,289.424318 102.272571,289.877798 C100.996597,293.589222 97.5660171,302.080511 97.6051918,306 C103.565334,304.46482 112.351647,304.121794 118.502066,304.099301 C120.196941,304.075745 121.89175,304.150849 123.577981,304.324236 C127.624162,304.757235 131.765482,305.943766 135.688542,304.847209 C139.326188,303.829379 142.555298,300.91085 146.32166,301.281992 C147.133135,299.128242 146.170558,291.958445 145.409451,289.787824 C142.417544,281.241419 141.836483,272.030008 143.730537,263.172413 C144.418892,259.989586 143.473104,256.615564 144.239808,253.449606 C144.379621,252.704423 144.662872,251.993834 145.073668,251.357713 C145.497418,250.710738 146.222616,250.328332 146.993225,250.345506 C147.062974,245.262009 146.593967,240.185495 145.594131,235.20177 C145.219174,233.430409 144.441277,231.338515 142.667225,231.034853 C141.066661,230.764931 139.717934,232.120163 138.436364,233.121123 C137.113283,234.142223 135.585962,234.863526 133.959262,235.23551 C133.303689,235.311084 132.67494,235.540297 132.12365,235.904692 C131.35135,236.545756 131.245018,237.70417 130.618224,238.485818 C129.498949,239.886038 126.997368,239.762323 126.202682,241.376231 C126.02375,241.857649 125.881564,242.352061 125.777357,242.855177 C125.402055,243.811413 124.76339,244.640415 123.936149,245.245109 C122.685198,246.420246 121.164497,247.266364 119.509414,247.708145 Z" id="Path" fill="#FFFFFF"></path>
                    <path d="M128.892706,216.657668 C129.087946,215.896907 129.060054,214.991769 128.440864,214.480893 C128.134058,214.242114 127.738,214.153266 127.408881,213.925593 C126.945044,213.53754 126.565446,213.059525 126.293223,212.520685 C124.569971,210.12448 121.359423,209.319024 118.701172,210.616007 C116.68741,211.665524 115.465765,213.764556 113.680712,215.186124 C112.765873,215.919119 111.711577,216.463313 110.796737,217.190755 C108.968095,218.769286 107.66628,220.865216 107.064862,223.199098 C106.479844,225.521117 106.141431,227.89788 106.055192,230.290275 C105.959877,231.007977 105.988174,231.736603 106.138866,232.444838 C106.321092,233.031561 106.59805,233.584841 106.958875,234.082972 C108.794132,236.85947 111.226265,239.386084 114.266433,240.813204 C117.3066,242.240324 121.005005,242.479103 124.006125,240.985347 C124.306999,240.859415 124.566085,240.651547 124.753615,240.385623 C124.925619,239.980418 124.964664,239.531485 124.865181,239.102881 C124.70661,237.407039 125.045718,235.701825 125.841382,234.194032 C126.399211,233.083432 127.230376,232.128317 127.682217,230.973293 C128.092124,229.685522 128.269652,228.335654 128.206576,226.986242 C128.251202,223.504513 128.011336,220.022784 128.892706,216.657668 Z" id="Path" fill="#2D293D"></path>
                    <rect id="Rectangle" fill="#FFFFFF" x="135" y="145" width="29" height="29"></rect>
                    <g id="Group" opacity="0.1" transform="translate(142.000000, 158.000000)" fill="#000000">
                        <path d="M0.88,2.69454545 C0.8415,2.44363636 0.6325,2.24727273 0.5225,2.01818182 C0.450263568,1.86364856 0.40737989,1.69722969 0.396,1.52727273 C0.396,1.62 0.396,1.70727273 0.396,1.8 C0.375621131,2.07208315 0.420869261,2.34506774 0.528,2.59636364 C0.616,2.78181818 0.77,2.94545455 0.847,3.14181818 C0.885858118,2.9960444 0.897048277,2.84437614 0.88,2.69454545 Z" id="Path"></path>
                        <path d="M10.7085,0.943636364 C10.4899819,1.65026094 10.3842047,2.38642288 10.395,3.12545455 C10.4665728,2.58868917 10.5712693,2.05678179 10.7085,1.53272727 C10.8000425,1.13222464 10.8315478,0.720525667 10.802,0.310909091 C10.7846403,0.523598949 10.7534083,0.734950428 10.7085,0.943636364 Z" id="Path"></path>
                    </g>
                </g>
            </g>
        </g>
    </g>
</svg>