<?xml version="1.0" encoding="UTF-8"?>
<svg width="180px" height="48px" viewBox="0 0 180 48" version="1.1" xmlns="http://www.w3.org/2000/svg" xmlns:xlink="http://www.w3.org/1999/xlink">
    <!-- Generator: sketchtool 53 (72520) - https://sketchapp.com -->
    <title>A1F16461-C2FA-4004-A007-FAEE2F6ABA3B</title>
    <desc>Created with sketchtool.</desc>
    <g id="Page-1" stroke="none" stroke-width="1" fill="none" fill-rule="evenodd">
        <g id="CRED-SV-SCROLL" transform="translate(-729.000000, -2948.000000)">
            <g id="Group-10" transform="translate(75.000000, 2520.000000)">
                <g id="Group-16" transform="translate(654.000000, 428.000000)">
                    <rect id="Rectangle" fill="#191C27" fill-rule="nonzero" x="0" y="0" width="180" height="48" rx="24"></rect>
                    <g id="rupee" transform="translate(18.000000, 10.000000)">
                        <g id="Group">
                            <path d="M28,14 C28,21.732 21.732,28 14,28 C9.924,28 6.25485714,26.2582857 3.69657143,23.4782857 C3.02457143,22.7485714 2.42971429,21.9468571 1.92342857,21.0868571 C0.701142857,19.008 0,16.5857143 0,14 C0,6.268 6.268,0 14,0 C16.5862857,0 19.0085714,0.701142857 21.0868571,1.924 C21.9468571,2.42971429 22.748,3.02457143 23.4777143,3.69714286 C26.2577143,6.25428571 28,9.924 28,14 Z" id="Path" fill="#F0CD00"></path>
                            <path d="M28,14 C28,21.5577143 22.012,27.7165714 14.5211429,27.9902857 C7.03028571,27.7165714 1.04228571,21.5577143 1.04228571,14 C1.04228571,6.44228571 7.03028571,0.283428571 14.5211429,0.00971428571 C22.012,0.283428571 28,6.44228571 28,14 Z" id="Path" fill="#FFDE50"></path>
                            <path d="M23.4777143,3.69714286 L3.69657143,23.4782857 C3.02457143,22.7485714 2.42971429,21.9468571 1.92342857,21.0868571 L21.0868571,1.924 C21.9468571,2.42971429 22.748,3.02457143 23.4777143,3.69714286 Z" id="Path" fill="#FFEA94"></path>
                            <path d="M27.0342857,8.88171429 L8.88114286,27.0348571 C7.596,26.5297143 6.40342857,25.84 5.33657143,24.9982857 L24.9982857,5.33657143 C25.84,6.40342857 26.5297143,7.596 27.0342857,8.88171429 Z" id="Path" fill="#FFEA94"></path>
                            <path d="M24.8788571,14 C24.8788571,20.008 20.008,24.8788571 14,24.8788571 C11.9074286,24.8788571 9.95314286,24.288 8.29428571,23.264 C7.57142857,22.8182857 6.90514286,22.2897143 6.30742857,21.692 C5.868,21.2531429 5.46571429,20.776 5.10628571,20.2668571 C4.61142857,19.5657143 4.19714286,18.8034286 3.87771429,17.9937143 C3.40457143,16.7965714 3.13828571,15.4948571 3.12228571,14.1337143 C3.12114286,14.0891429 3.12114286,14.0445714 3.12114286,14 C3.12114286,7.992 7.99142857,3.12114286 14,3.12114286 C14.0445714,3.12114286 14.0897143,3.12114286 14.1342857,3.12228571 C15.4954286,3.13828571 16.7965714,3.40514286 17.9937143,3.87771429 C18.8034286,4.19771429 19.5657143,4.61142857 20.2668571,5.10628571 C20.776,5.46628571 21.2525714,5.868 21.692,6.30742857 C22.2897143,6.90457143 22.8182857,7.57142857 23.264,8.29428571 C24.288,9.95314286 24.8788571,11.9074286 24.8788571,14 Z" id="Path" fill="#FAA300"></path>
                            <path d="M21.692,6.30742857 L6.30742857,21.692 C5.868,21.2531429 5.46571429,20.776 5.10628571,20.2668571 C4.61142857,19.5657143 4.19714286,18.8034286 3.87771429,17.9937143 C3.40457143,16.7965714 3.13828571,15.4948571 3.12228571,14.1337143 C3.12114286,14.0891429 3.12114286,14.0445714 3.12114286,14 C3.12114286,7.992 7.99142857,3.12114286 14,3.12114286 C14.0445714,3.12114286 14.0897143,3.12114286 14.1342857,3.12228571 C15.4954286,3.13828571 16.7965714,3.40514286 17.9937143,3.87771429 C18.8034286,4.19771429 19.5657143,4.61142857 20.2668571,5.10628571 C20.776,5.46628571 21.2525714,5.868 21.692,6.30742857 Z" id="Path" fill="#FFBD00"></path>
                            <path d="M24.8785714,14 C24.8785714,20.008 20.0077143,24.8788571 13.9997143,24.8788571 C13.7934286,24.8788571 13.5888571,24.8731429 13.3854286,24.8617143 C19.1077143,24.5434286 23.6494286,19.8017143 23.6494286,14 C23.6494286,8.19828571 19.1077143,3.45657143 13.3854286,3.13828571 C13.5888571,3.12685714 13.7934286,3.12114286 13.9997143,3.12114286 C20.0077143,3.12114286 24.8785714,7.992 24.8785714,14 Z" id="Path" fill="#F68E00"></path>
                        </g>
                        <path d="M17.8644007,11.2958004 L15.9714135,11.2958004 C15.8635883,10.8932033 15.6963145,10.5131621 15.4802668,10.163628 L17.8644007,10.163628 C18.4915922,10.163628 19,9.67929985 19,9.08181399 C19,8.48432812 18.4915922,8 17.8644007,8 L11.5184448,8 L7.13559929,8 C6.5084078,8 6,8.48432812 6,9.08181399 C6,9.67929985 6.5084078,10.163628 7.13559929,10.163628 L11.5184448,10.163628 C12.3876325,10.163628 13.1464399,10.6208567 13.5450352,11.2958004 L7.13559929,11.2958004 C6.5084078,11.2958004 6,11.7801285 6,12.3776144 C6,12.9751002 6.5084078,13.4594284 7.13559929,13.4594284 L13.5450352,13.4594284 C13.1464399,14.1343721 12.3876325,14.5915467 11.5185015,14.5915467 L7.13565607,14.5915467 C6.68249517,14.5915467 6.27271417,14.8482071 6.09311914,15.2445296 C5.91346733,15.6408522 5.99841016,16.1010018 6.30911013,16.4152146 L12.4850101,22.66004 C12.7084392,22.8859768 13.0097705,23 13.3117832,23 C13.5910838,23 13.8709522,22.9024204 14.0902932,22.7055843 C14.5468042,22.2959014 14.5681534,21.6112213 14.138102,21.1763321 L9.76564725,16.7551747 L11.5184448,16.7551747 C13.6604121,16.7551747 15.4645387,15.3516833 15.9714135,13.4594284 L17.8644007,13.4594284 C18.4915922,13.4594284 19,12.9751002 19,12.3776144 C19,11.7801285 18.4915922,11.2958004 17.8644007,11.2958004 Z" id="Path" fill="#F68E00"></path>
                        <path d="M19.8642403,11.2958004 L17.9712696,11.2958004 C17.8634454,10.8932033 17.6961731,10.5131621 17.4801272,10.163628 L19.8642403,10.163628 C20.4914263,10.163628 20.9998297,9.67929985 20.9998297,9.08181399 C20.9998297,8.48432812 20.4914263,8 19.8642403,8 L13.5183965,8 L9.13558937,8 C8.50840336,8 8,8.48432812 8,9.08181399 C8,9.67929985 8.50840336,10.163628 9.13558937,10.163628 L13.5183965,10.163628 C14.3875767,10.163628 15.1463775,10.6208567 15.5449693,11.2958004 L9.13558937,11.2958004 C8.50840336,11.2958004 8,11.7801285 8,12.3776144 C8,12.9751002 8.50840336,13.4594284 9.13558937,13.4594284 L15.5449693,13.4594284 C15.1463775,14.1343721 14.3875767,14.5915467 13.5184533,14.5915467 L9.13564615,14.5915467 C8.68248921,14.5915467 8.27271179,14.8482071 8.09311833,15.2445296 C7.91346809,15.6408522 7.99841017,16.1010018 8.30910743,16.4152146 L14.4849534,22.66004 C14.7083806,22.8859768 15.0097093,23 15.3117193,23 C15.5910175,23 15.8708835,22.9024204 16.0902226,22.7055843 C16.5467295,22.2959014 16.5681354,21.6112213 16.1380309,21.1763321 L11.7657279,16.7551747 L13.5185101,16.7551747 C15.6604588,16.7551747 17.4645696,15.3516833 17.9714399,13.4594284 L19.8644106,13.4594284 C20.4915966,13.4594284 21,12.9751002 21,12.3776144 C21,11.7801285 20.4914263,11.2958004 19.8642403,11.2958004 Z" id="Path" fill="#FFEA94"></path>
                    </g>
                    <text id="+-499" font-family="AvenirNext-Medium, Avenir Next" font-size="30" font-weight="400" fill="#FFFFFF">
                        <tspan x="57" y="34">+   499</tspan>
                    </text>
                    <g id="india-rupee-currency-symbol-(1)" transform="translate(80.000000, 13.000000)" fill="#FFFFFF">
                        <path d="M14.831666,4.52151133 L13.1347116,4.52151133 C13.0225016,3.61146108 12.6799338,2.75959507 12.136342,2.10022072 L14.8316152,2.10022072 C15.4772161,2.10022072 16,1.65414159 16,1.05694313 C16,0.459462904 15.4771653,0.00108009473 14.8316152,0.00108009473 L5.69215837,0.00108009473 C5.65871359,0.00108009473 5.62648684,0 5.59212855,0 C5.5698997,0 5.5476201,0.00108009473 5.52539126,0.00108009473 L1.16838479,0.00108009473 C0.522834686,0.00108009473 0,0.459791629 0,1.05694313 C0,1.65409463 0.522834686,2.10022072 1.16838479,2.10022072 L6.34988867,2.10022072 C7.98624653,2.21043734 9.70030387,2.79622436 10.1517829,4.52151133 L1.16838479,4.52151133 C0.522834686,4.52151133 0,5.00562857 0,5.60306183 C0,6.2002603 0.522834686,6.68461234 1.16838479,6.68461234 L10.0353606,6.68461234 C9.48369948,8.04806757 7.96838225,8.87964659 5.86237653,8.87964659 L3.53859915,8.87964659 L3.5318493,8.87964659 L2.17685383,8.87964659 C1.54749323,8.87964659 1.03724474,9.35178886 1.03724474,9.93414777 C1.03724474,10.5166475 1.54749323,10.9887898 2.17685383,10.9887898 L3.51576129,10.9887898 C3.52129313,10.9893534 3.52626671,10.9918423 3.53179854,10.9918423 L5.6463304,10.9918423 C7.94371737,11.0726146 8.96553387,11.9944519 9.55140104,14.5164731 C10.0097822,16.389827 10.347275,17.6100053 10.6127017,18.3408537 C10.811594,19.016993 11.2051664,20.0357102 11.8879169,20.6441792 C12.1549168,20.8817531 12.4992609,21 12.8424378,21 C13.2036312,21 13.5647739,20.8692616 13.8350726,20.6091936 C14.3304004,20.1328248 14.3393833,19.3956367 13.8854681,18.9029256 C13.8833874,18.8971025 13.8843009,18.8907159 13.8810021,18.8848928 C13.461902,18.1654558 12.9549523,16.2357491 12.3364016,13.7881136 C11.8447279,11.7978747 10.9261893,10.5582547 9.53429802,10.007829 C11.2820031,9.38700935 12.4842895,8.1995626 12.9555106,6.68433058 L14.8315645,6.68433058 C15.4771653,6.68433058 15.9999492,6.19997853 15.9999492,5.60278007 C15.9999492,5.00558161 15.4772668,4.52151133 14.831666,4.52151133 Z" id="Path"></path>
                    </g>
                </g>
            </g>
        </g>
    </g>
</svg>