<?xml version="1.0" encoding="UTF-8"?>
<svg width="934px" height="280px" viewBox="0 0 934 280" version="1.1" xmlns="http://www.w3.org/2000/svg" xmlns:xlink="http://www.w3.org/1999/xlink">
    <!-- Generator: sketchtool 53 (72520) - https://sketchapp.com -->
    <title>28CB3D1A-FD63-44C8-8FDF-47031559E587</title>
    <desc>Created with sketchtool.</desc>
    <defs>
        <rect id="path-1" x="0" y="0" width="910" height="256" rx="31"></rect>
        <filter x="-2.1%" y="-6.6%" width="104.2%" height="114.8%" filterUnits="objectBoundingBox" id="filter-3">
            <feOffset dx="0" dy="2" in="SourceAlpha" result="shadowOffsetOuter1"></feOffset>
            <feGaussianBlur stdDeviation="6" in="shadowOffsetOuter1" result="shadowBlurOuter1"></feGaussianBlur>
            <feColorMatrix values="0 0 0 0 0   0 0 0 0 0   0 0 0 0 0  0 0 0 0.12 0" type="matrix" in="shadowBlurOuter1"></feColorMatrix>
        </filter>
    </defs>
    <g id="Page-1" stroke="none" stroke-width="1" fill="none" fill-rule="evenodd">
        <g id="CRED-SV-SCROLL" transform="translate(-75.000000, -4256.000000)">
            <g id="Path-+-Path-+-Path-+-Path-+-Path-+-Path-+-Path-+-Path-+-Path-+-Path-+-Path-+-Path-Mask" transform="translate(87.000000, 4266.000000)">
                <g id="Mask">
                    <mask id="mask-2" fill="white">
                        <use xlink:href="#path-1"></use>
                    </mask>
                    <g fill-rule="nonzero">
                        <use fill="black" fill-opacity="1" filter="url(#filter-3)" xlink:href="#path-1"></use>
                        <use fill="#272D41" xlink:href="#path-1"></use>
                    </g>
                </g>
                <g id="Group-5" transform="translate(780.000000, 65.000000)">
                    <path d="M107.684861,200.519954 L87.0706952,208.497604 L56.9294133,220.15 C55.7882533,218.056128 54.113156,215.145647 52.0402231,211.774514 C44.9001209,199.944139 33.0802157,181.539008 22.5689802,165.363849 C10.7281363,147.09482 0.520512198,131.736271 0.520512198,131.736271 L7.91187898,129.6424 L68.204912,112.158572 L107.684861,200.519954 Z" id="Path" fill="#E6ECF8"></path>
                    <path d="M107.622045,200.593239 L87.007879,208.57089 C75.4906178,210.967341 63.7386117,212.049115 51.977407,211.795452 C44.8373048,199.965078 33.0173996,181.559946 22.5061641,165.384788 L7.84906283,129.6424 L68.1420958,112.158572 L107.622045,200.593239 Z" id="Path" fill="#000000" opacity="0.1"></path>
                    <path d="M122.70839,196.070476 C122.70839,196.070476 90.6721543,215.020015 42.8376574,210.727578 L4.70825542,117.770148 L22.9877546,114.62934 L86.159861,103.783085 L121.986004,194.259278 L122.70839,196.070476 Z" id="Path" fill="#FFFFFF"></path>
                    <path d="M121.452067,194.259278 C113.099205,194.717176 104.722722,194.479049 96.4093625,193.547361 C86.9031854,192.42714 77.3446615,190.13435 69.1890316,185.90473 C62.7604398,182.708252 56.7771418,178.685364 51.3911229,173.938254 C38.1055076,161.992716 29.8870615,144.896254 22.5061641,114.62934 L85.6782705,103.783085 L121.452067,194.259278 Z" id="Path" fill="#000000" opacity="0.312727865"></path>
                    <path d="M145.05,188.919905 C145.05,188.919905 121.420659,193.547361 97.4039515,190.699696 C87.8977744,189.579475 78.3392505,187.276216 70.1836206,183.057064 C63.7586803,179.854311 57.776165,175.831949 52.3857119,171.090588 C35.9488198,156.297385 27.2592526,133.631225 18.3184209,87.8487224 C18.3184209,87.8487224 57.5680442,97.2711446 96.3674851,76.5627544 C96.3151383,76.6046319 109.401836,158.265625 145.05,188.919905 Z" id="Path" fill="#F9FAFB"></path>
                    <path d="M97.885542,190.814859 C88.3793649,189.694637 78.820841,187.391379 70.6652111,183.172227 C64.2402707,179.969474 58.2577555,175.947112 52.8673024,171.205751 C66.8648341,170.064591 68.8749509,162.41149 68.8749509,162.41149 C79.2082073,178.858852 97.885542,190.814859 97.885542,190.814859 Z" id="Path" fill="#000000" opacity="0.1"></path>
                    <path d="M39.257137,104.086697 C39.257137,104.086697 71.1782096,102.285967 80.0876333,95.4075989 L81.4486499,99.7419131 C81.4486499,99.7419131 60.3528934,109.049172 39.257137,109.164335 L39.257137,104.086697 Z" id="Path" fill="#414141" opacity="0.3"></path>
                    <path d="M39.257137,126.177042 C39.257137,126.177042 70.1626819,124.491476 93.5093503,113.205508 L94.3050216,115.016707 C94.3050216,115.016707 75.7637885,125.831553 39.257137,128.626872 L39.257137,126.177042 Z" id="Path" fill="#414141" opacity="0.3"></path>
                    <path d="M41.3510086,134.552529 C41.3510086,134.552529 72.2670229,132.856493 95.6136913,121.580994 L96.3988932,123.381724 C96.3988932,123.381724 77.8681294,134.19657 41.3510086,136.991889 L41.3510086,134.552529 Z" id="Path" fill="#414141" opacity="0.3"></path>
                    <path d="M43.4448802,142.928015 C43.4448802,142.928015 74.3504251,141.242448 97.6970936,129.95648 L98.4927648,131.767679 C98.4927648,131.767679 79.9515317,142.582526 43.4448802,145.377845 L43.4448802,142.928015 Z" id="Path" fill="#414141" opacity="0.3"></path>
                    <path d="M46.5856876,151.303502 C46.5856876,151.303502 77.5017019,149.607465 100.84837,138.331967 L101.633572,140.132696 C101.633572,140.132696 83.1028085,150.947543 46.5856876,153.742862 L46.5856876,151.303502 Z" id="Path" fill="#414141" opacity="0.3"></path>
                    <path d="M48.6795592,159.678988 C48.6795592,159.678988 79.5851041,157.993421 102.931773,146.707453 L103.727444,148.518652 C103.727444,148.518652 85.1862107,159.333499 48.6795592,162.128818 L48.6795592,159.678988 Z" id="Path" fill="#414141" opacity="0.3"></path>
                    <g id="Group-6" transform="translate(92.962813, 42.270181) rotate(-30.000000) translate(-92.962813, -42.270181) translate(60.962813, 12.770181)">
                        <path d="M51.9842829,58.7836914 C47.8477776,59.0108683 43.6995748,58.8927264 39.5826323,58.430489 C34.8749823,57.8747147 30.1414091,56.7371953 26.1025773,54.6387577 C22.9190094,53.0528925 19.9559599,51.057021 17.2886951,48.7018414 C10.7093913,42.7753134 6.63945166,34.2932624 2.98428289,19.2769676 L34.2683798,13.8958256 L51.9842829,58.7836914 Z" id="Path" fill="#000000" opacity="0.1"></path>
                        <path d="M63.4842829,55.7610881 C63.4842829,55.7610881 51.7378145,58.0534376 39.798781,56.642761 C35.0731305,56.0878257 30.3214576,54.9468373 26.2671825,52.8567539 C23.0732569,51.2701737 20.0992668,49.2775759 17.4195989,46.9288002 C9.24859516,39.6005426 4.92889256,28.372179 0.484282891,5.69244039 C0.484282891,5.69244039 19.9958071,10.3601204 39.2835394,0.101596989 C39.2575171,0.122342233 45.7630933,40.5755691 63.4842829,55.7610881 Z" id="Path" fill="#F9FAFB"></path>
                        <path d="M40.6624861,56.4890924 C35.8057419,55.9369361 30.9222536,54.8016615 26.7555094,52.7220448 C23.4729815,51.1434099 20.4164903,49.1607907 17.6624861,46.8237772 C24.8138815,46.2613003 25.8408582,42.4890924 25.8408582,42.4890924 C31.1201605,50.5959851 40.6624861,56.4890924 40.6624861,56.4890924 Z" id="Path" fill="#000000" opacity="0.1"></path>
                        <path d="M10.761851,14.0896799 C10.761851,14.0896799 26.6499404,13.1733938 31.0844317,9.67339376 L31.761851,11.8788732 C31.761851,11.8788732 21.261851,16.6147941 10.761851,16.6733938 L10.761851,14.0896799 Z" id="Path" fill="#414141" opacity="0.3"></path>
                        <path d="M10.5740289,25.0316831 C10.5740289,25.0316831 25.7326443,24.1572771 37.1837664,18.3025589 L37.5740289,19.242138 C37.5740289,19.242138 28.4798866,24.8524571 10.5740289,26.3025589 L10.5740289,25.0316831 Z" id="Path" fill="#414141" opacity="0.3"></path>
                        <path d="M12.5381305,29.6343307 C12.5381305,29.6343307 27.7018809,28.753896 39.153003,22.9006351 L39.5381305,23.8354177 C39.5381305,23.8354177 30.4491232,29.4495481 12.5381305,30.9006351 L12.5381305,29.6343307 Z" id="Path" fill="#414141" opacity="0.3"></path>
                        <path d="M12.7701813,33.2278355 C12.7701813,33.2278355 27.9287967,32.3534296 39.3799188,26.4987113 L39.7701813,27.4382904 C39.7701813,27.4382904 30.676039,33.0486095 12.7701813,34.4987113 L12.7701813,33.2278355 Z" id="Path" fill="#414141" opacity="0.3"></path>
                        <path d="M14.7342829,37.8304832 C14.7342829,37.8304832 29.8980334,36.9500484 41.3491555,31.0967875 L41.7342829,32.0315701 C41.7342829,32.0315701 32.6452757,37.6457006 14.7342829,39.0967875 L14.7342829,37.8304832 Z" id="Path" fill="#414141" opacity="0.3"></path>
                        <path d="M15.8323591,41.923988 C15.8323591,41.923988 30.9909745,41.049582 42.4420966,35.1948637 L42.8323591,36.1344428 C42.8323591,36.1344428 33.7382168,41.7447619 15.8323591,43.1948637 L15.8323591,41.923988 Z" id="Path" fill="#414141" opacity="0.3"></path>
                    </g>
                    <g id="Group-6" transform="translate(26.771470, 58.127876) scale(-1, 1) rotate(-30.000000) translate(-26.771470, -58.127876) translate(9.271470, 41.627876)">
                        <path d="M29.0490381,32.8598083 C26.7697392,32.9860177 24.4839949,32.9203833 22.2154755,32.6635847 C19.6214643,32.3548212 17.0131689,31.722866 14.7876901,30.5570673 C13.0334792,29.6760311 11.4007785,28.5672136 9.93106117,27.2587805 C6.30573052,23.966265 4.06311069,19.2540144 2.04903811,10.9116284 L19.287214,7.92210506 L29.0490381,32.8598083 Z" id="Path" fill="#000000" opacity="0.1"></path>
                        <path d="M34.3660254,31.5224244 C34.3660254,31.5224244 28.0266615,32.8093574 21.5833736,32.0173986 C19.0330225,31.705856 16.4686276,31.0653011 14.2806062,29.8919209 C12.5569002,29.0012092 10.9518897,27.8825579 9.50571974,26.563947 C5.09597171,22.4498374 2.76470364,16.1461947 0.366025404,3.41370985 C0.366025404,3.41370985 10.8960543,6.03416179 21.3053067,0.274990748 C21.2912629,0.286637201 24.8022088,22.9972207 34.3660254,31.5224244 Z" id="Path" fill="#F9FAFB"></path>
                        <path d="M22.1961524,32.3012702 C19.6621989,31.9857523 17.114292,31.337024 14.9403385,30.1486716 C13.2277152,29.2465945 11.6330242,28.1136692 10.1961524,26.778233 C13.9273152,26.4568176 14.4631292,24.3012702 14.4631292,24.3012702 C17.2175478,28.9337803 22.1961524,32.3012702 22.1961524,32.3012702 Z" id="Path" fill="#000000" opacity="0.1"></path>
                        <path d="M7.00480947,8.21845581 C7.00480947,8.21845581 15.327142,7.69486373 17.6499708,5.69486373 L18.0048095,6.9551377 C18.0048095,6.9551377 12.5048095,9.66137819 7.00480947,9.69486373 L7.00480947,8.21845581 Z" id="Path" fill="#414141" opacity="0.3"></path>
                        <path d="M6.71891109,14.4316553 C6.71891109,14.4316553 15.1403641,13.8851516 21.5020986,10.2259526 L21.7189111,10.8131896 C21.7189111,10.8131896 16.6666098,14.319639 6.71891109,15.2259526 L6.71891109,14.4316553 Z" id="Path" fill="#414141" opacity="0.3"></path>
                        <path d="M7.45096189,17.1665632 C7.45096189,17.1665632 15.8752677,16.6162915 22.2370022,12.9580034 L22.4509619,13.5422426 C22.4509619,13.5422426 17.4015134,17.0510741 7.45096189,17.9580034 L7.45096189,17.1665632 Z" id="Path" fill="#414141" opacity="0.3"></path>
                        <path d="M7.8169873,18.5297315 C7.8169873,18.5297315 16.2384403,17.9832278 22.6001748,14.3240289 L22.8169873,14.9112658 C22.8169873,14.9112658 17.764686,18.4177152 7.8169873,19.3240289 L7.8169873,18.5297315 Z" id="Path" fill="#414141" opacity="0.3"></path>
                        <path d="M8.54903811,21.2646394 C8.54903811,21.2646394 16.9733439,20.7143677 23.3350784,17.0560797 L23.5490381,17.6403188 C23.5490381,17.6403188 18.4995896,21.1491503 8.54903811,22.0560797 L8.54903811,21.2646394 Z" id="Path" fill="#414141" opacity="0.3"></path>
                        <path d="M9.28108891,23.9938331 C9.28108891,23.9938331 17.7025419,23.4473294 24.0642764,19.7881305 L24.2810889,20.3753674 C24.2810889,20.3753674 19.2287877,23.8818168 9.28108891,24.7881305 L9.28108891,23.9938331 Z" id="Path" fill="#414141" opacity="0.3"></path>
                    </g>
                </g>
            </g>
        </g>
    </g>
</svg>