<?xml version="1.0" encoding="UTF-8"?>
<svg width="199px" height="334px" viewBox="0 0 199 334" version="1.1" xmlns="http://www.w3.org/2000/svg" xmlns:xlink="http://www.w3.org/1999/xlink">
    <!-- Generator: sketchtool 53 (72520) - https://sketchapp.com -->
    <title>5E0BDE8F-60F7-4A8D-915E-F57BE7AA9CF1</title>
    <desc>Created with sketchtool.</desc>
    <g id="Page-1" stroke="none" stroke-width="1" fill="none" fill-rule="evenodd" opacity="0.588797433">
        <g id="CRED-SV-SCROLL" transform="translate(-858.000000, -915.000000)" fill="#262F48">
            <g id="Path" transform="translate(-31.000000, 265.000000)">
                <path d="M1087.17403,849.172282 C1085.76721,846.568318 1078.32407,830.44085 1078.32407,830.44085 L1065.8623,799.668462 C1065.8623,799.668462 1057.01234,786.696161 1057.01234,784.282268 C1057.01234,781.868375 1040.91879,772.231808 1040.91879,772.231808 C1040.91879,772.231808 1027.84839,768.525437 1026.84068,768.1548 C1025.83296,767.784162 1010.34803,762.899355 1010.34803,762.899355 C1010.34803,762.899355 1004.25184,755.296541 1003.36385,757.263769 L1003.27405,757.121216 C1002.0263,754.902588 1001.23712,752.476504 1000.94932,749.974572 C1000.94932,749.755991 1000.87947,749.518403 1000.84954,749.290318 C1009.00627,744.027058 1013.90884,735.267326 1013.94987,725.883156 C1013.95957,724.676384 1013.88959,723.470225 1013.74035,722.271819 C1013.84799,722.205514 1013.96149,722.148277 1014.07958,722.100756 C1014.32901,721.996217 1014.26915,721.910686 1014.07958,721.825154 L1014.26915,721.739623 C1014.60838,721.59707 1014.38888,721.492531 1014.05962,721.368985 C1014.51858,721.178915 1013.93989,721.055369 1013.48093,720.855795 C1013.48093,720.73225 1013.43105,720.5992 1013.40111,720.475655 C1013.50975,720.234502 1013.57388,719.977301 1013.59068,719.715373 L1013.71041,719.772395 C1013.83,719.294408 1013.83,718.796343 1013.71041,718.318356 C1013.6862,718.416051 1013.65281,718.511471 1013.61064,718.603462 C1013.59114,718.145021 1013.4829,717.693956 1013.29136,717.27297 C1013.0578,716.944294 1012.77164,716.652486 1012.44328,716.408149 L1012.36346,716.351128 L1013.22152,708.035551 C1025.79305,707.46534 1027.99805,687.127814 1025.13454,685.958881 C1022.27102,684.789948 1025.13454,682.366552 1025.13454,677.462737 C1025.13454,672.558922 1015.64603,667.084896 1015.64603,667.084896 C1015.64603,667.084896 1011.65507,668.9856 1005.49901,659.539104 C999.342954,650.092608 976.564545,648.591052 975.04798,651.04296 C973.531415,653.494867 963.354464,656.74507 950.104474,660.289882 C936.854484,663.834693 939.298948,678.783726 941.503953,681.995914 C943.322904,684.646873 944.388624,687.702005 944.596948,690.862696 C944.596948,692.763399 948.787457,700.670325 948.787457,700.670325 C947.460463,703.416842 950.782938,718.460909 951.780678,722.737492 C951.780678,722.870541 951.780678,723.00359 951.780678,723.13664 C951.733773,723.204206 951.690482,723.273988 951.650972,723.345717 C951.436358,723.791213 951.366852,724.287752 951.451423,724.771244 C951.375815,725.297008 951.451688,725.832459 951.670926,726.320318 C951.828239,734.468162 955.664016,742.156293 962.197086,747.418125 C962.197086,747.67472 962.197086,747.931315 962.246973,748.197414 C962.426566,751.694708 962.536317,755.800227 962.346747,759.772698 C962.346747,759.972271 962.346747,760.171845 962.346747,760.371419 C960.867668,760.661736 959.618325,761.598249 958.974385,762.899355 C957.72721,765.189702 950.493593,768.706004 950.493593,768.706004 C950.493593,768.706004 937.822292,769.266711 936.615026,771.490534 C935.407761,773.714357 917.109205,781.1271 917.109205,781.1271 C917.109205,781.1271 907.451079,786.506091 908.857893,792.626356 C909.596221,795.819538 907.530899,800.789877 905.395735,804.800361 C900.917546,803.187559 896.25617,802.080754 891.507191,801.502641 L901.76396,810.844598 L901.424729,811.348284 L895.587948,831.001558 C895.587948,831.001558 893.592468,837.863097 891.596987,839.554723 C889.601507,841.246349 893.402897,856.423466 893.402897,856.423466 C893.402897,856.423466 891.197891,867.181447 889.411936,869.956474 C887.625981,872.731501 892.225564,879.602544 892.225564,879.602544 L901.484593,899.61695 L925.939206,905.528138 L930.209534,906.392958 C930.129715,906.868134 930.049896,907.34331 929.960099,907.827989 C928.772788,914.204849 927.226291,920.068519 925.330584,921.655606 C920.711047,925.552048 920.910595,942.971995 920.910595,942.971995 L921.110143,967.633622 C921.110143,967.633622 922.716505,998.044876 921.918313,999.147284 C921.409465,999.850544 922.42716,1000.99097 925.111081,1001.99834 C925.04124,1002.46401 924.96142,1002.94869 924.891579,1003.39536 C924.133296,1008.44172 923.794064,1014.19135 925.530132,1016.70028 C926.284134,1018.07546 926.697133,1019.59698 926.737398,1021.14793 C926.737398,1023.56182 930.558743,1028.57017 930.558743,1028.57017 C930.558743,1028.57017 927.565522,1049.14529 932.554224,1056.18739 C937.542925,1063.2295 941.803275,1076.02123 939.388744,1078.99583 C939.388744,1078.99583 935.168303,1087.71056 937.183738,1091.607 C939.199174,1095.50344 937.183738,1097.72727 934.559681,1098.64911 C931.935625,1099.57095 932.175082,1107.20227 932.175082,1107.20227 L936.974213,1143.31564 C936.974213,1143.31564 939.588292,1150.73788 937.383286,1153.33234 C935.17828,1155.9268 935.168303,1168.8991 938.590552,1173.35625 C942.012801,1177.8134 933.731557,1186.04345 933.731557,1186.04345 C933.731557,1186.04345 928.742856,1192.90499 936.724778,1195.12881 C936.724778,1195.12881 938.33114,1195.49945 935.317964,1198.46455 C932.304789,1201.42964 931.696167,1205.11701 933.711602,1206.438 C934.131556,1206.67281 934.568311,1206.87923 935.018642,1207.05573 C934.938823,1207.49289 934.859004,1207.94906 934.759229,1208.43374 C933.99097,1212.30167 932.534269,1217.34803 929.890257,1219.78093 C924.759592,1224.78713 920.332578,1230.40626 916.720086,1236.49762 C913.956346,1241.48697 912.729125,1246.14369 915.812143,1248.339 C923.055737,1253.52792 932.304789,1255.19104 937.762428,1253.15729 C943.220067,1251.12353 950.832825,1244.8132 950.832825,1244.8132 L952.648712,1237.58102 C952.648712,1237.58102 951.441446,1233.13338 957.467797,1231.46076 C963.494148,1229.78814 969.13138,1223.85794 969.13138,1223.85794 L969.13138,1214.22138 C970.595903,1213.42933 972.008637,1212.5534 973.361799,1211.59841 C973.361799,1211.59841 976.175426,1202.14241 973.361799,1198.99674 C970.548171,1195.85108 969.540454,1194.72966 973.162251,1192.68641 C976.784048,1190.64315 977.272941,1186.20501 974.608974,1182.30857 C971.945008,1178.41213 967.724567,1172.672 971.346364,1164.50848 C974.968161,1156.34496 976.335065,1131.3222 976.335065,1131.3222 C976.335065,1131.3222 974.648884,1114.27289 976.335065,1110.41446 C978.021246,1106.55603 974.399449,1098.73464 974.399449,1098.73464 C974.399449,1098.73464 975.556827,1089.10758 977.821698,1084.61241 C980.086568,1080.11725 981.812659,1056.61505 981.812659,1056.61505 C981.812659,1056.61505 985.803619,1046.60785 985.803619,1040.11695 C985.803619,1033.62604 979.57772,1018.05928 988.79684,1013.97277 C988.79684,1013.97277 992.787801,1017.31801 991.211372,1030.66095 C991.211372,1030.66095 995.830909,1046.23721 995.830909,1051.05549 C995.830909,1055.87378 999.253158,1073.30323 999.253158,1073.30323 C999.253158,1073.30323 999.652254,1078.86278 1001.05907,1080.90604 C1002.46588,1082.9493 1001.05907,1088.50885 1001.05907,1088.50885 C1001.05907,1088.50885 1006.28723,1093.14657 1004.88041,1096.11167 C1003.4736,1099.07677 1005.11987,1105.76724 1005.11987,1105.76724 L1003.8727,1147.2786 C1003.8727,1147.2786 1000.26088,1165.07869 1008.70176,1175.78915 C1008.70176,1175.78915 1005.70854,1191.54599 1003.8727,1192.6579 C1002.03685,1193.76981 1010.51764,1203.41588 1010.51764,1203.41588 C1010.51764,1203.41588 1008.17296,1209.65969 1012.93218,1209.9638 L1012.93218,1220.28462 C1014.57986,1223.06365 1016.84416,1225.46688 1019.56715,1227.32673 C1023.98714,1230.29182 1022.18123,1240.4891 1022.18123,1240.4891 C1022.18123,1240.4891 1027.80848,1253.4709 1042.69477,1250.68637 C1057.58105,1247.90184 1059.58651,1246.60936 1058.77834,1241.97165 C1058.489,1240.28002 1057.85044,1237.21989 1056.92254,1233.83664 C1055.32616,1227.88743 1052.87172,1220.70278 1049.93836,1217.15796 C1045.31882,1211.5699 1041.49748,1199.89007 1041.49748,1199.89007 C1041.49748,1199.89007 1039.68159,1195.99363 1041.49748,1194.70115 C1043.31337,1193.40868 1042.49522,1190.99478 1042.49522,1190.99478 C1042.49522,1190.99478 1044.25124,1186.1765 1042.66484,1183.2114 C1041.07843,1180.2463 1045.70794,1174.12604 1045.70794,1174.12604 L1044.30113,1145.61549 L1045.70794,1104.08512 C1045.70794,1104.08512 1039.47207,1097.22358 1042.08615,1093.14657 C1044.70023,1089.06956 1039.09293,1083.31993 1039.09293,1083.31993 C1039.09293,1083.31993 1038.4843,1083.13937 1040.09067,1078.50165 C1041.05231,1075.76912 1040.9064,1072.79284 1039.68159,1070.15756 C1039.68159,1070.15756 1036.26932,1058.66781 1042.29567,1049.95309 C1042.29567,1049.95309 1044.90975,1038.45383 1045.71792,1032.52364 C1046.27665,1028.39911 1049.70888,1013.00341 1051.81411,1004.01308 L1052.15334,1002.54954 C1055.14657,1002.7016 1057.3815,1002.88217 1057.3815,1002.88217 C1057.3815,1002.88217 1052.76197,972.290345 1057.3815,965.989513 C1062.00104,959.688681 1053.75971,911.486843 1053.75971,911.486843 C1053.75971,911.486843 1051.76423,903.066727 1050.57692,894.466044 C1050.50707,893.981365 1050.44721,893.515692 1050.37737,893.002502 C1054.11072,892.712921 1057.85877,892.633587 1061.60194,892.764915 C1071.26007,893.316119 1080.70867,889.799817 1080.90822,886.274012 C1081.10777,882.748208 1086.3459,868.844562 1087.14409,865.698898 C1087.94229,862.553234 1088.57086,851.766742 1087.17403,849.172282 Z"></path>
            </g>
        </g>
    </g>
</svg>