<?xml version="1.0" encoding="UTF-8"?>
<svg width="245px" height="551px" viewBox="0 0 245 551" version="1.1" xmlns="http://www.w3.org/2000/svg" xmlns:xlink="http://www.w3.org/1999/xlink">
    <!-- Generator: sketchtool 53 (72520) - https://sketchapp.com -->
    <title>364F453B-29FF-43B1-B0CE-627811BAD76F</title>
    <desc>Created with sketchtool.</desc>
    <defs>
        <path d="M402.243325,63.7317166 C357.957735,62.4449666 315.773037,50.5301565 275.49768,37.4894402 C235.222324,24.4487239 195.317713,10.0160905 152.088748,3.10599559 C124.28281,-1.33576642 92.4913545,-1.96676882 70.0859476,10.461504 C48.533256,22.4134318 41.5632342,43.0571084 37.8187012,62.2037009 C35.0010329,76.6115891 33.3450348,91.7803919 41.0627273,105.266522 C46.4261838,114.632577 55.9419937,122.501548 62.5227324,131.47168 C85.4286463,162.68774 69.2394112,201.172701 44.4179772,231.646405 C32.7765578,245.94294 19.2752301,259.583727 10.2908226,274.80202 C1.30641505,290.020313 -2.83975926,307.47186 5.01387346,322.980909 C12.8057152,338.366233 31.3677236,349.922237 51.4806855,358.051033 C92.3245189,374.562262 185.581096,486.162487 221.837846,508.605411 C283.301156,546.651192 400.800029,540.673465 451.932023,489.968876 C517.504998,424.944017 593.592412,402.463831 617.425245,394.470207 C641.258078,386.476584 689.799126,369.308879 699.959028,324.8288 C716.320157,253.19973 601.788164,264.48845 587.023052,239.651474 C577.340748,223.36449 587.251679,204.389576 599.449217,188.92383 C625.611515,155.7529 669.470748,126.646368 671.78173,88.7058018 C673.369758,62.661487 652.286678,36.5800544 619.685761,24.2569486 C585.515352,11.3399583 538.121676,12.9669547 512.917138,34.3468008 C486.964929,56.3947671 441.350832,64.8638091 402.243325,63.7317166 Z" id="path-1"></path>
        <linearGradient x1="35.6536823%" y1="108.559404%" x2="75.490728%" y2="3.20692407%" id="linearGradient-3">
            <stop stop-color="#808080" stop-opacity="0.25" offset="0%"></stop>
            <stop stop-color="#808080" stop-opacity="0.12" offset="54%"></stop>
            <stop stop-color="#808080" stop-opacity="0.1" offset="100%"></stop>
        </linearGradient>
    </defs>
    <g id="Page-1" stroke="none" stroke-width="1" fill="none" fill-rule="evenodd">
        <g id="CRED-SV-SCROLL" transform="translate(-835.000000, -5585.000000)">
            <g id="Group-28" transform="translate(774.000000, 5559.000000)">
                <g id="Group-17" transform="translate(411.851795, 351.403228) scale(-1, 1) rotate(-15.000000) translate(-411.851795, -351.403228) translate(57.851795, 82.903228)">
                    <g id="Path" transform="translate(0.478810, 2.398926)">
                        <mask id="mask-2" fill="white">
                            <use xlink:href="#path-1"></use>
                        </mask>
                        <use id="Mask" fill="#191C27" xlink:href="#path-1"></use>
                    </g>
                    <g id="Group-18" transform="translate(532.614999, 224.481797) rotate(-7.000000) translate(-532.614999, -224.481797) translate(381.614999, 16.981797)">
                        <path d="M297.289695,247.868135 C297.289695,245.265097 294.734749,246.6086 294.379115,246.720559 L294.379115,246.720559 C293.352755,245.880379 292.235211,245.15747 291.04739,244.565355 C285.347894,241.607781 276.737817,239.807113 269.877833,238.752835 C269.853611,238.744298 269.827185,238.744298 269.802963,238.752835 C263.757192,237.819847 259.09652,237.50263 259.09652,237.50263 L255.530825,237.54928 L254.201879,237.54928 C254.668543,236.858078 255.353803,236.342435 256.148505,236.084488 C257.140535,235.963199 251.955772,235.580674 249.494413,235.412736 C249.494413,235.412736 249.494413,235.412736 249.494413,235.412736 L249.391467,235.412736 L248.249696,235.338097 C242.840322,236.606961 232.704765,229.674855 232.704765,229.674855 L231.525559,223.759707 C235.531116,219.439969 234.950871,208.64529 234.950871,208.64529 C234.950871,208.64529 235.287787,205.025293 238.694383,200.043134 C242.100978,195.060974 238.123497,191.907472 238.123497,191.907472 L244.010169,185.647118 C243.49911,183.466169 243.883207,181.172062 245.07707,179.274805 L245.07707,179.274805 C245.436309,178.744146 245.882372,178.277384 246.396658,177.893981 L246.396658,177.847332 L246.490245,177.763363 C250.336703,174.824449 253.584199,164.617552 253.584199,164.617552 C253.584199,164.617552 252.835497,162.798224 257.046947,157.862714 L257.046947,157.806734 C257.608474,157.153642 258.263589,156.453901 259.02165,155.67019 L259.02165,155.67019 C259.02165,155.604881 259.133955,155.548902 259.190108,155.483592 C265.947146,148.728754 263.289253,144.996799 263.289253,144.996799 L255.081604,135.05114 C257.018871,131.822999 241.464581,108.656889 241.464581,108.656889 C241.464581,108.656889 239.48052,103.889316 240.603574,99.3270017 C240.918222,98.2522704 240.95045,97.1149467 240.697161,96.0242216 C240.549238,95.4082556 240.246494,94.8399551 239.817436,94.3728316 C239.553344,94.0915203 239.235034,93.8662181 238.881558,93.7104096 L238.320032,93.6637602 L238.984505,93.178606 C239.25591,93.0013382 239.517955,92.8054105 239.78936,92.6188128 C240.369604,92.8427301 240.949848,93.0386577 241.539452,93.2159256 C253.147785,96.9543892 265.866725,94.5422269 275.287207,86.815623 C275.521176,86.6383551 275.745787,86.4424275 275.961039,86.2464999 C276.176291,86.0505722 276.550642,85.742686 276.840764,85.4721192 C276.971787,85.3508307 277.10281,85.2388721 277.215115,85.1175835 C277.327421,84.996295 277.654978,84.6884087 277.87023,84.4644914 C277.935741,84.6697489 278.001253,84.8656766 278.076123,85.0709341 C278.369482,85.8978621 278.722933,86.7023654 279.133665,87.478045 C279.16863,87.5496074 279.209316,87.6182482 279.255329,87.6833025 C279.252238,87.7112073 279.252238,87.7393666 279.255329,87.7672715 C279.32084,87.9072198 279.405069,88.0378382 279.47994,88.1684566 C280.013252,89.0577192 280.661433,89.8732865 281.407848,90.5942273 C281.59037,90.7742408 281.784175,90.9425174 281.988092,91.0980412 C282.279556,91.3463006 282.592771,91.5679962 282.92397,91.7604632 C282.972953,91.8031968 283.026275,91.8407195 283.083069,91.8724218 C283.13876,91.9151156 283.198285,91.9525941 283.260886,91.9843805 L283.260886,91.9843805 C283.504214,91.5552057 283.738184,91.116701 283.962794,90.6781963 C285.950201,86.8131549 287.107244,82.577408 287.360031,78.2414567 C287.371122,77.7136862 287.41488,77.1871014 287.491054,76.6647058 C287.541724,76.2656584 287.658752,75.8778199 287.837329,75.5171296 C288.183381,74.8079374 288.742846,74.224107 289.43768,73.8470798 C290.560173,73.2775359 291.739624,72.827226 292.956581,72.5035761 L293.246703,72.4009473 L293.602336,72.2796588 L294.294886,72.0090921 L294.407191,71.9531127 C294.613084,71.8691438 294.80026,71.766515 294.996794,71.6732161 C295.05575,71.6304638 295.118386,71.592998 295.18397,71.5612575 C295.408032,71.4366192 295.620946,71.2930336 295.820367,71.1320827 L295.913955,71.0574436 C295.913955,71.0574436 295.913955,71.0574436 295.913955,71.0574436 C296.095419,70.9199857 296.264517,70.7670184 296.419329,70.6002791 C296.494199,70.52564 296.540993,70.4323411 296.615863,70.357702 C296.719691,70.24462 296.813622,70.1228874 296.896626,69.9938364 L297.121237,69.6672904 C297.169757,69.5636789 297.22607,69.4638754 297.289695,69.368734 C298.005716,67.9221725 298.328422,66.3136203 298.225573,64.7037904 C298.09455,62.3899784 297.411359,60.1508055 297.439436,57.8276636 C297.523665,52.2763807 301.538581,46.9770048 301.182947,41.4630415 C300.864748,36.6861393 297.336489,32.9728442 293.695924,30.0059401 C290.055359,27.039036 286.012367,24.2680595 284.018947,20.0229608 C282.530901,16.8414693 282.325008,13.1375041 280.986703,9.89070335 C278.179069,3.08921561 269.943344,-0.745368008 262.503115,1.27921751 C258.048337,2.50143272 254.173802,5.44034718 249.840688,7.07307743 C246.976902,8.14601445 243.972734,8.63116859 241.118306,9.72276538 C237.747033,11.0214631 234.725457,13.0849965 232.292978,15.7498725 C231.862475,16.2163668 231.460047,16.6828612 231.066978,17.2053349 L230.701986,17.6998189 C230.430581,18.0730144 230.159177,18.4462099 229.915849,18.8380651 C229.803543,19.0060031 229.700597,19.1646112 229.59765,19.341879 C229.256544,19.8818242 228.944153,20.4392771 228.661772,21.0119288 C228.390368,21.5437324 228.156398,22.0848659 227.922429,22.6353292 C226.621559,25.7701713 225.816704,29.1102709 224.253788,32.0958348 C223.907313,32.7756968 223.51327,33.4304064 223.074582,34.0551111 L223.074582,34.0551111 C222.466261,34.9227906 221.764353,35.7344908 221.071803,36.5555209 C220.884627,36.7794381 220.697452,37.0033554 220.510276,37.208613 C220.434078,37.3175392 220.3496,37.4204706 220.257589,37.5164992 C220.126566,37.6937671 219.976826,37.8617051 219.836444,38.0389729 C219.696062,38.2162408 219.667986,38.2535603 219.593116,38.3561891 C219.518246,38.4588178 219.312353,38.7387145 219.190688,38.9346421 C219.069024,39.1305697 219.050307,39.1119099 218.984795,39.2145387 C218.79762,39.5037652 218.629162,39.8023216 218.460704,40.100878 L218.460704,40.1661872 C217.936527,41.1707481 217.648494,42.2810379 217.618414,43.4129879 C217.607206,43.9730879 217.689436,44.5311516 217.861742,45.0643779 C217.906622,45.2011786 217.959752,45.335151 218.020841,45.4655631 C218.161784,45.7657307 218.347998,46.0426155 218.573009,46.2865932 C218.460704,46.5944794 218.329681,46.9116956 218.226734,47.2195819 C217.983406,47.9286533 217.758795,48.6563845 217.552902,49.3747858 C217.421879,49.8692698 217.318933,50.3077745 217.206627,50.8209183 C217.206627,50.8209183 217.206627,50.8209183 217.206627,50.8209183 C216.770309,52.7104469 216.491713,54.6327537 216.373696,56.5681288 L216.373696,56.5681288 L215.774734,56.8760151 C214.720821,57.3977274 213.636361,57.8557202 212.527238,58.2475085 L212.527238,58.2475085 L212.414933,58.2475085 C211.479055,58.452766 205.021498,59.7962698 202.756673,59.4044145 L194.680048,57.9956015 C194.680048,57.9956015 192.808292,57.2212209 190.758719,56.2415828 C189.212004,55.5677418 187.768882,54.6787842 186.472399,53.6012247 C184.9282,51.9405048 174.249834,45.0923676 172.003727,45.1016975 C171.087095,44.9588742 170.251214,44.4959298 169.645315,43.7955133 C168.966823,42.9681549 168.341649,42.0987303 167.773559,41.1924748 C167.773559,41.1924748 167.558307,41.0805161 167.221391,40.8752586 C166.800246,40.2874757 166.538201,39.848971 166.538201,39.848971 C166.538201,39.848971 163.365575,38.113612 160.136796,36.1170162 L158.761056,38.9159823 C158.686185,39.0559306 158.620674,39.2052088 158.545804,39.354487 C145.518384,66.1312632 131.274323,96.7053034 116.4313,129.910372 C116.43672,129.941237 116.43672,129.972806 116.4313,130.003671 C112.519331,138.711565 108.573046,147.609168 104.592446,156.696478 L103.497469,159.215547 L102.037499,162.536987 L98.2284763,171.307081 L96.8995297,174.357954 C94.3726595,180.198464 91.8270718,186.107392 89.2627665,192.08474 C87.6904917,195.748275 86.1119777,199.446021 84.5272245,203.177976 C84.4055604,203.485862 84.2651787,203.803078 84.1341558,204.110964 C84.0592856,204.269572 83.9937742,204.43751 83.9189039,204.605448 C83.703652,205.137252 83.4696826,205.669056 83.2450719,206.210189 C83.0766139,206.592714 82.9081559,207.003229 82.7396978,207.385755 C81.1674231,211.11771 79.604507,214.849664 78.0603086,218.50698 L77.3490414,218.870846 L77.7327513,219.290691 C77.6017284,219.598577 77.4707055,219.897133 77.3490414,220.223679 C70.8914843,235.599334 64.6522986,250.667101 58.6314844,265.426983 L57.9576524,267.087703 L57.8172707,267.414249 C56.2325175,271.314142 54.6727211,275.186045 53.1378814,279.029958 C51.7652606,282.463357 50.4019985,285.865656 49.0480952,289.236855 C30.2275917,336.371445 14.3083094,378.92506 2.46945461,413.520282 C1.9079279,413.902807 1.30896608,414.341312 0.700645472,414.835796 C1.30896608,414.378631 1.89856912,413.902807 2.44137827,413.576261 C2.90973255,413.257472 3.39730932,412.967698 3.90134772,412.708581 C5.00300927,412.125119 6.0147584,411.386717 6.90551562,410.516058 C7.3079431,410.142862 7.70101179,409.760337 8.08472171,409.359152 C10.280092,406.906546 12.2707759,404.279217 14.0369048,401.503387 C14.3217377,401.166475 14.6348277,400.854352 14.9727827,400.570398 L15.468798,400.122564 L15.5436682,400.057254 C15.8150728,399.824007 16.1051949,399.56277 16.4327521,399.292204 L16.4889048,399.245554 L16.9755613,398.844369 L17.031714,398.79772 L17.5558056,398.359215 C19.1561567,397.053031 21.1121414,395.513599 22.9745383,394.058137 L23.6483704,393.544993 L25.9225535,391.790974 L27.045607,390.941955 L29.5256833,389.075977 L29.5256833,389.075977 L29.5256833,389.075977 C29.5256833,389.075977 29.5256833,389.075977 29.5256833,389.075977 L29.5256833,389.075977 L29.5256833,389.075977 C29.5484219,389.03723 29.5734216,388.999846 29.6005535,388.964019 C29.8251642,388.674792 30.339897,388.03103 31.0605229,387.144691 C31.0740018,387.123771 31.0936042,387.107486 31.1166756,387.098041 C31.2014021,386.98159 31.2919862,386.869488 31.3880802,386.762165 C32.3801107,385.605259 33.6716221,384.159127 35.1315916,382.722324 C35.3094084,382.554386 35.4872252,382.367788 35.6837595,382.19985 L36.2172099,381.686707 L36.2172099,381.686707 L37.0875763,380.912326 C37.9434512,380.154128 38.843458,379.446938 39.7829045,378.794442 C40.9850813,377.929722 42.1350857,376.995112 43.226935,375.995475 L43.4609045,375.790218 C43.6200037,375.63161 43.7978205,375.463672 43.9849961,375.305064 C44.1196868,375.191094 44.2477953,375.069611 44.368706,374.941198 L44.7711335,374.568003 L45.4356067,373.9429 L45.8567518,373.541715 L46.8487823,372.608726 L47.9624769,371.5078 L48.1309349,371.339862 C48.7018204,370.761409 49.2820647,370.173626 49.8716677,369.595173 L50.5548586,368.904761 C50.8356219,368.615535 51.1163853,368.316978 51.3971486,368.037082 C51.8744463,367.561257 52.3330265,367.104093 52.819683,366.590949 L53.8585074,365.508682 C54.1954234,365.144817 54.5323394,364.808941 54.8505379,364.473065 C55.3652707,363.941261 55.8519272,363.437447 56.3105073,362.942963 L56.4134539,362.831005 L57.6020188,361.5808 C57.6020188,361.5808 57.6020188,361.5808 57.6581715,361.515491 C57.9482936,361.226264 58.2009806,360.955697 58.4443088,360.685131 L58.4443088,360.685131 L58.6782783,360.433224 C58.9122478,360.209306 59.1181409,359.976059 59.2959577,359.789461 C59.9978661,359.0524 60.4002936,358.613896 60.4002936,358.613896 L68.8231942,349.050761 L77.4051941,339.058452 L77.788904,338.629277 C77.788904,338.629277 79.9788582,335.345157 82.2156062,332.63016 L82.5150872,332.266294 C83.2786181,331.311144 84.1343716,330.433032 85.0700337,329.644596 C85.8238706,329.014373 86.5163702,328.31464 87.1383237,327.554701 C87.1851176,327.554701 87.2225527,327.452073 87.2787054,327.396093 C89.8055756,324.447849 93.0717893,319.866874 94.1199725,318.364763 L94.4662473,317.879608 C95.3367089,317.158457 96.1387105,316.358932 96.8620946,315.491157 C97.7408192,314.476366 98.4487837,313.326324 98.958461,312.085748 C99.4521469,310.971692 100.080738,309.922052 100.830217,308.960236 C100.834179,308.944937 100.834179,308.928886 100.830217,308.913587 L100.979957,308.708329 L101.513408,308.017918 L101.513408,308.017918 C102.174516,308.145196 102.843739,308.226252 103.516186,308.260495 C106.591669,308.377379 109.665373,307.986471 112.612919,307.103589 C112.698908,307.081167 112.78332,307.053117 112.865606,307.01962 L112.865606,307.01962 C113.633026,306.842352 114.21327,306.674414 114.52211,306.581115 L114.793514,306.497146 L120.605316,298.006949 L120.605316,298.006949 L120.745697,297.811021 C120.745697,297.811021 123.815377,294.909426 126.754033,291.802574 C127.072232,291.466698 127.381071,291.130822 127.689911,290.804276 C129.786277,288.546443 131.639316,286.32593 132.004308,285.150364 C132.940186,282.21145 138.096873,276.240322 138.096873,276.240322 C138.096873,276.240322 146.940918,264.969818 150.394308,260.71539 C150.534689,260.538122 150.675071,260.360854 150.796735,260.220906 L150.796735,260.220906 L151.264674,259.651783 C151.370386,259.72514 151.470489,259.806222 151.564155,259.89436 C151.824563,260.151197 152.059613,260.432386 152.266063,260.73405 C152.284836,260.773069 152.306745,260.810511 152.331575,260.846008 L152.621697,260.435493 C152.818231,260.174256 153.089636,259.773071 153.454628,259.278587 C153.736401,259.54288 153.984692,259.840536 154.193972,260.164926 L154.278201,260.286215 C154.278201,260.286215 173.838048,233.360161 176.88901,225.765632 C177.592664,224.181301 178.47495,222.681976 179.518826,221.296616 C183.515025,215.782653 190.253345,209.41967 193.416612,206.536735 L194.35249,205.706375 L194.35249,205.706375 L194.35249,205.706375 C194.839147,205.25854 195.129269,205.015963 195.129269,205.015963 L195.466185,205.743695 C195.466185,205.799674 195.466185,205.855653 195.531696,205.920962 C196.336551,207.74029 197.964979,211.770802 197.094612,212.881058 C195.980918,214.336521 192.995467,229.031093 192.995467,229.031093 C192.995467,229.031093 188.924399,235.487375 191.563574,245.405045 C194.20275,255.322715 205.227391,258.784103 207.68875,258.578846 C209.270383,258.438897 223.102658,264.176778 232.901299,268.384557 L232.901299,268.384557 L235.315864,269.420174 L235.315864,269.420174 L237.749146,270.455792 L241.539452,272.107182 L241.539452,272.107182 L241.754703,272.200481 C242.063543,272.349759 242.381742,272.489707 242.690581,272.610996 L242.887116,272.349759 L242.980703,272.209811 L243.916581,272.648315 L242.980703,272.116512 C243.364413,271.575378 244.028887,270.59574 244.852459,269.261566 C244.893186,269.169564 244.943367,269.082018 245.0022,269.00033 L245.264245,268.561825 L245.704108,267.815434 C245.750902,267.712805 245.807055,267.628836 245.853848,267.544867 L246.30307,266.742497 C246.33139,266.704229 246.356435,266.663657 246.37794,266.621208 C246.995619,265.501622 247.641375,264.251417 248.249696,262.889253 C248.343283,262.711986 248.436871,262.516058 248.5211,262.32946 L250.935665,262.124203 L250.935665,262.124203 L252.601528,261.984254 L252.601528,261.984254 L253.537406,261.909615 L253.537406,261.909615 L254.754047,261.788327 L255.324932,261.900285 L278.384962,263.561005 L278.384962,263.561005 L280.069543,263.691624 C284.51013,264.080421 288.90943,262.585317 292.187134,259.573456 C295.464838,256.561594 297.317327,252.31197 297.289695,247.868135 L297.289695,247.868135 Z" id="Path" fill="url(#linearGradient-3)"></path>
                        <path d="M239.805735,273.701012 C239.805735,273.701012 257.806139,250.340436 245.5017,237.409345 L216.311077,245.898247 L217.847932,256.152988 C217.847932,256.152988 230.498162,270.141743 239.805735,273.701012 Z" id="Path" fill="#65617D"></path>
                        <path d="M216.311077,245.898247 L217.847052,256.152988 C217.847052,256.152988 226.774902,265.993861 235.126762,271.272983 C236.605401,272.226646 238.17762,273.03984 239.821084,273.701012 C239.821084,273.701012 239.926682,273.58145 240.109079,273.323931 C240.13038,273.294528 240.149622,273.263804 240.166678,273.231961 C242.341886,270.210947 244.243194,267.017101 245.849783,263.685395 C246.444973,262.425395 247.030563,261.073425 247.568154,259.70306 C249.488122,254.469923 250.678502,248.547005 249.00813,243.304671 C248.405929,241.362934 247.4002,239.557874 246.05138,237.997958 C245.936181,237.869199 245.820983,237.731243 245.686586,237.602484 C245.634626,237.533663 245.576831,237.469065 245.513789,237.409345 L244.870599,237.593286 L235.001965,240.462775 L216.311077,245.898247 Z" id="Path" fill="#000000" opacity="0.1"></path>
                        <path d="M249.287647,239.658745 C249.287647,239.658745 236.934355,253.235902 244.428561,261.838223 C244.428561,261.838223 248.035498,262.893491 253.35246,263.882805 C265.602964,266.144094 286.880154,268.028502 293.701564,255.647944 C303.457113,237.915668 256.903331,239.517414 256.903331,239.517414 L253.380493,239.583369 L249.287647,239.658745 Z" id="Path" fill="#FBBEBE"></path>
                        <path d="M249.591725,237.789741 C249.591725,237.789741 235.34467,251.828177 243.98774,260.722758 C243.98774,260.722758 248.147621,261.813879 254.279675,262.836804 L256.090193,262.690672 C253.729446,261.931825 251.581208,260.714766 249.796486,259.125046 C247.511784,256.991515 245.89525,253.786349 247.77043,249.285476 C248.815308,246.712726 250.035433,244.200939 251.423797,241.764538 C252.223876,240.324371 253.192123,238.965726 254.312005,237.711804 L249.591725,237.789741 Z" id="Path" fill="#000000" opacity="0.1"></path>
                        <path d="M228.069706,264.840935 L232.283095,264.490247 L246.460582,263.290522 L253.69167,262.672203 C251.615216,261.954321 249.726474,260.8012 248.159223,259.294517 C246.147425,257.264214 244.714493,254.237216 246.365686,249.97358 C247.290079,247.535133 248.364343,245.152922 249.582666,242.839833 C251.613444,239.148373 253.17923,237.745618 254.042786,237.634875 C254.906341,237.524131 249.838885,237.154985 247.400054,236.998098 L247.305158,236.998098 C246.612416,236.942726 246.156914,236.924269 246.156914,236.924269 L245.492641,237.108842 L236.040983,239.766693 L235.737316,239.978952 C233.421849,241.612423 219.472113,252.216142 228.069706,264.840935 Z" id="Path" fill="#E7EFFD"></path>
                        <path d="M120.580465,270.571802 L106.183239,303.371788 C106.183239,303.371788 103.683851,305.984589 101.437209,308.737362 C101.401913,308.791176 101.361132,308.841209 101.315516,308.886665 L100.772578,309.586522 C100.713982,309.647162 100.660739,309.712725 100.613441,309.782482 C100.617404,309.797784 100.617404,309.813838 100.613441,309.829139 C99.6483042,310.982907 98.8423496,312.260201 98.2170236,313.627033 C97.8163915,314.605644 97.2841835,315.525433 96.6350138,316.361142 C95.8229879,317.411199 94.9038034,318.374388 93.8922392,319.235224 C93.8491281,319.279723 93.8021386,319.320318 93.7518242,319.356532 C93.7518242,319.356532 90.0074221,324.703443 87.0493445,328.26805 C86.9931784,328.324039 86.9557344,328.389359 86.9089294,328.426685 C86.1547748,329.366568 85.3183584,330.237815 84.409541,331.030154 C83.6365163,331.665215 82.9250724,332.371287 82.2845928,333.139058 L81.9850407,333.502984 C79.6354284,336.302414 77.173484,339.932341 77.173484,339.932341 L68.5988033,349.665025 L59.8649855,359.509687 L59.031856,360.44283 L58.4140297,361.086699 L58.1800045,361.338648 L58.1800045,361.338648 L57.3936801,362.169145 C57.3936801,362.169145 57.3468751,362.169145 57.3375141,362.234465 L56.1486664,363.484877 L56.0456954,363.596854 C55.5776451,364.072757 55.1095948,364.585986 54.5853785,365.127209 C54.2671044,365.463141 53.9301082,365.799072 53.593112,366.162998 L52.5540404,367.245444 C52.0859902,367.721348 51.6179399,368.178588 51.1311676,368.691817 C50.8503375,368.97176 50.5695073,369.270365 50.2886772,369.55964 L49.6053238,370.250166 C49.0155805,370.828715 48.4351982,371.416595 47.8641768,371.995144 L47.6956787,372.163109 L46.5817191,373.264219 L45.5894526,374.197362 L45.1682074,374.598613 L44.503576,375.223819 L44.1010528,375.597077 C43.9801133,375.72551 43.8519744,375.847013 43.7172516,375.961003 C43.5393925,376.1383 43.3615334,376.296934 43.1930353,376.446237 L42.9590101,376.651529 C41.8399825,377.711751 40.6516473,378.696823 39.4018282,379.600261 C38.1892519,380.455791 37.0352857,381.391011 35.9476173,382.399691 L35.9476173,382.399691 L35.41404,382.91292 C35.2174589,383.080886 35.0395998,383.267514 34.8617407,383.43548 C33.4107849,384.872521 32.1189661,386.318893 31.1173386,387.47599 C31.0212217,387.583331 30.9306161,387.695451 30.8458694,387.811922 C30.8227926,387.821368 30.8031854,387.837656 30.7897034,387.858579 C30.068906,388.726402 29.5540507,389.388934 29.3293866,389.678209 L29.2076935,389.827511 C29.2076935,389.827511 29.2076935,389.827511 29.2076935,389.827511 L29.2076935,389.827511 L29.2076935,389.827511 L26.7270272,391.693798 L25.6037066,392.542958 L23.3289823,394.297268 L22.6549899,394.810496 C20.7827889,396.2662 18.8356998,397.805886 17.2349679,399.112287 L16.7107516,399.550864 L16.6545856,399.597521 L16.1678133,399.998773 L16.1116473,400.04543 C15.7840121,400.316042 15.493821,400.577322 15.2223518,400.810608 L15.1474638,400.875928 L14.6513305,401.323836 C14.354826,401.581931 14.0822547,401.866133 13.8369231,402.172997 C12.0487069,404.978917 10.0257698,407.629146 7.78971372,410.095383 C7.40591251,410.496635 7.01275029,410.879224 6.61022707,411.252481 C5.77138139,412.057421 4.82662548,412.744915 3.80192552,413.296065 C3.2477981,413.570679 2.71299351,413.882442 2.20119363,414.229208 C14.0428652,379.628256 29.965935,337.067591 48.7909164,289.925194 C50.1389011,286.547215 51.5024875,283.144353 52.8816756,279.716606 C54.4356025,275.872056 55.99577,271.999512 57.5621782,268.098973 L57.7025933,267.772373 L58.3765856,266.111378 C64.3676289,251.367714 70.6082991,236.29745 77.098596,220.900586 C77.220289,220.592649 77.3513431,220.294043 77.4823972,219.967443 L77.098596,219.547529 L77.8100324,219.183603 C79.3639592,215.45103 80.9272471,211.793108 82.490535,208.060535 C82.659033,207.677946 82.8275311,207.267363 82.9960292,206.884775 C83.2206934,206.343552 83.4547185,205.81166 83.6700216,205.279768 C83.7449096,205.111802 83.8104367,204.943837 83.8853247,204.785202 C84.0163788,204.467934 84.1567939,204.150665 84.2784869,203.852059 C85.8698578,200.119486 87.4487474,196.421128 89.0151556,192.756986 L105.509247,211.139908 L106.201961,211.895754 L117.715997,224.539845 L118.418073,225.295691 L122.003338,229.233556 L123.941066,231.361122 L124.877166,232.378249 L136.409925,245.041003 L136.559701,245.208968 L137.102639,245.796849 L120.580465,270.571802 Z" id="Path" fill="#3F3D56"></path>
                        <path d="M203.477472,64.0656655 L201.212275,95.1667506 C201.212275,95.1667506 228.413057,107.783824 229.214163,103.151555 C229.536447,101.349116 233.081573,98.375092 237.317307,95.4190921 C243.993193,90.7417628 252.381789,86.082458 252.381789,86.082458 C252.381789,86.082458 225.024469,45.7168364 221.774004,54.1522509 C220.586156,57.2344216 217.832929,59.3883363 214.812666,60.8753484 C211.233276,62.5262017 207.406089,63.6033726 203.477472,64.0656655 L203.477472,64.0656655 Z" id="Path" fill="#FBBEBE"></path>
                        <path d="M221.884704,53.380376 C220.710715,56.5577153 220.974635,57.2916621 217.998709,58.824589 C217.316157,68.2451212 217.334359,79.4029706 224.123474,86.8817955 C227.748869,90.8968509 232.242567,93.9922359 237.24667,95.9214187 C243.84467,91.0996669 252.135399,86.2964962 252.135399,86.2964962 C252.135399,86.2964962 225.097248,44.6845001 221.884704,53.380376 Z" id="Path" fill="#000000" opacity="0.1"></path>
                        <path d="M226.811426,36.4735724 C217.562694,45.0359867 213.582314,57.8844927 216.369658,70.1791823 C219.157002,82.473872 228.288606,92.3468893 240.324682,96.0791642 C252.360758,99.8114392 265.47274,96.8359502 274.721471,88.2735354 L275.082952,87.9211547 C289.275313,74.5849407 289.974545,52.2630979 276.644731,38.0639227 C263.314918,23.8647476 241.003787,23.1651787 226.811426,36.5013919 L226.811426,36.4735724 Z" id="Path" fill="#FBBEBE"></path>
                        <path d="M122.157593,260.369216 C120.948693,261.905445 118.943456,261.570268 115.719725,257.482968 C114.221719,255.701322 112.589369,254.030147 110.836157,252.483241 L110.836157,252.483241 C110.509946,252.185306 110.164546,251.87806 109.828741,251.552194 C106.250016,248.3587 101.663875,244.550714 96.7227394,240.230653 L96.406123,239.960649 C94.2089969,238.03338 91.9159264,235.994385 89.6324503,233.880907 L88.2700402,232.614682 L88.2700402,232.614682 C85.1422537,229.681882 82.0048727,226.572182 79.0114083,223.304204 L78.8770862,223.173858 C77.7737259,221.982117 76.6799601,220.771755 75.5957887,219.598634 C75.7205163,219.291389 75.8548385,218.993453 75.9891606,218.667587 L75.5957887,218.248615 L76.3249659,217.885506 C77.9176425,214.161315 79.5199135,210.511608 81.1221845,206.787417 C81.2948844,206.405688 81.4675842,205.996027 81.6402841,205.614297 C81.8705506,205.074289 82.1104115,204.543592 82.3310836,204.012895 C82.4078391,203.845306 82.4750002,203.677718 82.5517557,203.519439 L83.6743048,204.878769 C85.4972479,207.094663 87.3585687,209.319867 89.2390784,211.52645 L89.4021838,211.72197 C90.4671664,212.960264 91.5225545,214.198557 92.587537,215.446161 C92.6355092,215.446161 92.6738869,215.548577 92.7218591,215.585818 C93.9019749,216.954459 95.110874,218.295167 96.3293675,219.580013 L97.0393559,220.315541 C98.3441993,221.684181 99.6490428,222.969027 100.953886,224.216631 C104.024106,227.140121 107.055948,229.802918 109.84793,232.037432 C110.116574,232.260884 110.375624,232.475025 110.653862,232.689166 C113.119633,234.681608 115.393514,236.413357 117.369968,237.772687 L118.262251,238.42442 L119.375206,239.19719 C121.965704,241.003422 123.548786,241.990333 123.548786,241.990333 C123.548786,241.990333 123.692702,243.265869 123.807836,245.146585 C123.874997,246.235911 123.942158,247.530067 123.970941,248.870776 C124.009319,253.22808 123.73108,258.367463 122.157593,260.369216 Z" id="Path" fill="#000000" opacity="0.1"></path>
                        <path d="M121.556433,260.973748 C120.334227,261.687178 118.505655,260.89036 115.871753,257.508515 C114.332301,255.664876 112.650377,253.939543 110.84081,252.347726 L110.746065,252.264338 L109.845991,251.430459 C106.435182,248.3729 102.143248,244.759421 97.5291823,240.682676 C97.4214102,240.600631 97.3200664,240.510816 97.2259993,240.413982 C94.6773674,238.190303 92.0434653,235.781317 89.3906142,233.316739 L89.3906142,233.316739 C88.9453142,232.909065 88.5000142,232.48286 88.0452397,232.047389 C85.2028993,229.341913 82.3605589,226.488191 79.6319121,223.514021 L79.508744,223.375041 L75.9842419,219.520664 L75.5957887,219.103724 L76.3158482,218.742376 C77.8886099,215.036244 79.4708461,211.404235 81.0530823,207.698103 C81.2236227,207.318225 81.3941631,206.91055 81.5647036,206.530672 C81.7920908,205.993282 82.0289525,205.465159 82.2468653,204.937035 C82.322661,204.770259 82.3889823,204.603483 82.464778,204.445972 C82.5974206,204.130951 82.7395376,203.81593 82.8627057,203.519439 C84.8239206,205.91916 86.8419823,208.374472 88.8789929,210.801988 C88.9024134,210.819439 88.9217877,210.841543 88.9358397,210.866846 L89.8832865,212.015747 C90.9728504,213.303627 92.0624142,214.572978 93.151978,215.851593 C94.0994248,216.991229 95.1226674,218.093803 96.1174866,219.168581 C96.288027,219.363153 96.4680419,219.54846 96.6480568,219.733766 C96.8280717,219.919073 97.1123057,220.234094 97.3396929,220.474993 C101.306655,224.598648 105.524121,228.484776 109.969159,232.112246 C110.22497,232.334614 110.490255,232.547717 110.75554,232.76082 L110.75554,232.76082 C113.105208,234.669477 115.274861,236.327971 117.131857,237.689975 C117.482412,237.930873 117.814018,238.181037 118.13615,238.412671 L119.235189,239.181693 C121.916463,241.034759 123.555546,242.081741 123.555546,242.081741 C123.555546,242.081741 123.782933,244.212767 123.906101,247.057223 C123.953474,248.23392 123.981897,249.521801 123.972423,250.837478 C123.943999,255.247774 123.432378,259.880439 121.556433,260.973748 Z" id="Path" fill="#5F5D7E"></path>
                        <path d="M233.702329,129.076179 L136.138755,244.130915 L127.709671,254.081041 L126.470378,255.542379 C125.886114,253.915286 125.203765,252.323917 124.426963,250.776743 C124.218838,250.367196 124.001252,249.929725 123.755286,249.482947 C122.300136,246.611078 120.332724,244.019604 117.946691,241.831868 C117.596662,241.534015 117.237172,241.254779 116.877683,241.003466 L116.281687,240.612535 C115.707787,240.258801 115.099288,239.96257 114.465319,239.728286 C112.302287,238.753292 110.334848,237.403941 108.656724,235.744512 L108.656724,235.744512 L107.899904,235.055729 C103.772433,230.940336 99.9768641,226.515029 96.5476022,221.81992 C96.3300164,221.531376 96.1218909,221.252139 95.9326858,220.982211 C94.8163762,219.483642 94.1541586,218.534238 94.1541586,218.534238 C94.1541586,218.534238 93.4351794,217.677912 92.2621083,216.402733 C91.3160831,215.323018 90.0957107,213.945452 88.7807357,212.549269 C86.7466065,210.246701 84.4943734,208.139827 82.0544969,206.257141 C82.2815429,205.717283 82.5180492,205.186734 82.735635,204.656185 C82.811317,204.488643 82.8775388,204.321101 82.9532208,204.162867 C83.0856643,203.846399 83.2275681,203.529931 83.3505513,203.232079 C84.9587941,199.508926 86.5544232,195.819902 88.1374386,192.165006 C90.7295475,186.207962 93.3027359,180.312969 95.8570038,174.48003 L97.2003595,171.436352 L101.050682,162.686942 L102.526481,159.373336 L103.633331,156.860208 C107.663398,147.812946 111.65247,138.936329 115.600549,130.230356 L177.34761,76.2446375 L184.783368,72.7634894 L191.944778,69.4312675 L197.072235,70.8832971 L197.838515,71.0880706 L202.814607,72.5028687 L202.880829,72.5028687 L204.082281,72.8472604 L206.551407,73.5453515 L207.771779,89.6386804 L207.771779,89.7782987 L207.771779,90.225077 L210.023319,93.4083729 L211.423436,95.4095676 L212.028892,95.6422647 L214.592621,96.6195923 L214.592621,96.6195923 L215.368361,96.9081367 L215.652169,97.0198313 L215.652169,97.0198313 L217.894248,97.8761565 L217.894248,97.8761565 L224.260998,100.305514 L225.784098,104.959455 L226.730123,107.956593 L227.250437,109.566857 L227.75183,110.73965 L233.702329,129.076179 Z" id="Path" fill="#000000" opacity="0.1"></path>
                        <path d="M235.309069,127.782738 L136.995607,244.197574 L128.517873,254.22066 L128.433095,253.978691 C127.532067,251.520695 126.416337,249.144791 125.09852,246.877842 C124.863027,246.468357 124.599275,246.049565 124.335524,245.64008 C123.083884,243.597563 121.509767,241.765887 119.672769,240.214398 L119.672769,240.214398 C119.314821,239.935204 118.956872,239.674622 118.589503,239.44196 C118.316691,239.258843 118.033652,239.09106 117.74173,238.93941 C117.367255,238.743966 116.980218,238.572981 116.583106,238.427553 C114.349592,237.412162 112.322512,236.002376 110.601594,234.267554 L109.838597,233.569567 C107.025764,230.792323 104.389493,227.845848 101.944885,224.747018 C100.635546,223.09977 99.4769218,221.582813 98.544371,220.335744 L97.9320902,219.49816 C97.7625355,219.274804 97.6118202,219.060755 97.4705247,218.856012 C96.7357877,217.850912 96.3119009,217.236684 96.3119009,217.236684 C96.3119009,217.236684 93.4859894,213.83051 90.3115488,210.517401 C90.297578,210.491986 90.2783157,210.469783 90.2550306,210.452255 C88.6179224,208.660046 86.8552263,206.983843 84.9799958,205.436059 C84.5645008,205.113239 84.1235048,204.823812 83.661237,204.570556 C83.7365947,204.403039 83.8025326,204.235523 83.8778903,204.077312 C84.0097661,203.760892 84.1510617,203.444471 84.2735179,203.146664 C85.8748677,199.424069 87.463658,195.735599 89.0398886,192.081252 C91.6208878,186.1251 94.1830476,180.230993 96.726368,174.398928 L98.0639661,171.355707 L101.897786,162.60761 L103.36726,159.294501 L104.469366,156.781749 C108.48216,147.735845 112.454136,138.860559 116.385292,130.155892 C116.390747,130.125105 116.390747,130.093615 116.385292,130.062828 L179.167627,74.9312033 L185.507088,71.9531277 L193.702232,68.1095489 L198.609898,69.5055218 L199.372894,69.719571 L203.376269,70.8642688 L204.318239,71.1248504 L205.429764,71.441271 L208.255676,72.2509353 L209.517916,88.9281585 L210.158456,89.8588072 L210.262073,90.0077109 L210.393949,90.2031472 L210.393949,90.2031472 L212.343828,92.995093 L212.343828,92.995093 L213.135083,94.1304843 L216.281265,95.3403275 L216.281265,95.3403275 L220.199862,96.8386718 L220.199862,96.8386718 L225.927043,99.0350026 L227.886341,105.093525 L228.23487,106.173077 L228.743534,107.736567 L228.988447,108.499699 L229.148582,108.97433 L235.309069,127.782738 Z" id="Path" fill="#E7EFFD"></path>
                        <path d="M220.074444,105.859168 C220.074444,105.859168 207.811947,106.445409 206.486776,107.869137 C205.161605,109.292864 201.979329,112.642812 201.979329,112.642812 L197.163919,125.186503 C197.163919,125.186503 188.335668,137.795333 186.039949,139.916966 C183.74423,142.0386 167.37557,164.241306 167.37557,164.241306 L140.984138,197.117318 L106.193735,239.978033 L90.5436531,243.486172 L89.9650574,231.04484 L152.92934,155.671024 L165.219834,140.68001 C165.219834,140.68001 188.680959,115.164578 191.349965,112.763782 C194.018971,110.362986 201.988661,105.179873 201.988661,105.179873 C201.988661,105.179873 207.233351,97.7355458 203.295167,90.3842724 C199.356983,83.0329991 204.023078,90.5238536 204.023078,90.5238536 L209.902358,91.3799512 L211.432837,95.4371097 C211.432837,95.4371097 221.511601,101.290212 220.074444,105.859168 Z" id="Path" fill="#000000" opacity="0.1"></path>
                        <path d="M221.307941,105.347244 C221.307941,105.347244 209.044078,105.933736 207.718759,107.358073 C206.393441,108.78241 203.210809,112.133792 203.210809,112.133792 L198.450862,124.682855 C198.450862,124.682855 189.574961,137.297083 187.250987,139.401006 C184.927013,141.504929 168.584528,163.745071 168.584528,163.745071 L142.199488,196.62585 L107.405208,239.514227 L91.7533819,243.014559 L91.1933882,230.633065 L154.155355,155.226975 L166.456551,140.220233 C166.456551,140.220233 189.92029,114.693875 192.542928,112.292052 C195.165565,109.890228 203.18281,104.704896 203.18281,104.704896 C203.18281,104.704896 208.428085,97.2573806 204.489462,89.9122689 C200.550839,82.5671573 205.226787,90.0426004 205.226787,90.0426004 L211.106722,90.8990647 L212.637371,94.9579603 C212.637371,94.9579603 222.717259,100.776331 221.307941,105.347244 Z" id="Path" fill="#0D2FCF"></path>
                        <path d="M236.59616,100.469699 C236.59616,100.469699 236.752299,101.817972 232.390162,105.701678 C228.028025,109.585383 220.679727,120.651399 220.679727,120.651399 C220.679727,120.651399 217.898499,103.691987 211.477277,99.2486215 L236.59616,100.469699 Z" id="Path" fill="#000000" opacity="0.1"></path>
                        <path d="M238.109666,97.0772727 C238.109666,97.0772727 238.275562,98.4250119 233.913448,102.298703 C229.551334,106.172394 222.203075,117.25098 222.203075,117.25098 C222.203075,117.25098 219.421862,100.298285 212.990915,95.8482023 L238.109666,97.0772727 Z" id="Path" fill="#E7EFFD"></path>
                        <path d="M209.676319,62.5226753 L210.490713,96.0226753 C210.490713,96.0226753 188.714521,89.0286977 184.908114,89.0863404 C181.101706,89.1439831 201.79794,64.5882045 201.79794,64.5882045 L209.676319,62.5226753 Z" id="Path" fill="#000000" opacity="0.1"></path>
                        <path d="M211.376167,63.2796574 L212.190555,96.7796574 C212.190555,96.7796574 190.414513,89.7856798 186.608131,89.8433225 C182.80175,89.9009651 203.48899,65.3451865 203.48899,65.3451865 L211.376167,63.2796574 Z" id="Path" fill="#E7EFFD"></path>
                        <path d="M234.580294,98.9729558 C234.580294,98.9729558 237.387845,100.032067 236.274183,104.547224 C235.160521,109.062381 237.088373,113.716894 237.088373,113.716894 C237.088373,113.716894 252.398884,136.469198 250.471032,139.655821 L258.556779,149.42008 C258.556779,149.42008 261.167801,153.089807 254.560698,159.769638 C247.953595,166.449469 248.945596,168.799952 248.945596,168.799952 C248.945596,168.799952 245.698196,178.870796 241.879926,181.806577 C238.061657,184.742358 239.362489,189.591971 239.362489,189.591971 L190.988387,208.758162 C190.988387,208.758162 175.799536,221.764787 172.814174,229.206435 C169.828811,236.648082 150.353766,263.23734 150.353766,263.23734 C150.353766,263.23734 148.959349,260.868276 147.742744,262.18752 C146.526139,263.506763 134.285217,279.012518 134.285217,279.012518 C134.285217,279.012518 129.194191,284.911952 128.230265,287.810571 C127.266339,290.709191 117.056212,300.315512 117.056212,300.315512 L111.225865,308.909175 C111.225865,308.909175 98.0303757,313.350009 93.4447092,305.815457 C88.8590427,298.280904 103.046533,263.952705 103.046533,263.952705 L123.129881,231.937826 L144.401758,201.864651 L160.872724,183.683247 L198.306736,144.449691 L221.094691,116.429705 C221.094691,116.429705 231.248667,99.1680552 234.580294,98.9729558 Z" id="Path" fill="#000000" opacity="0.1"></path>
                        <path d="M238.266581,97.5581146 C238.266581,97.5581146 241.073984,98.6080071 239.960381,103.08631 C238.846778,107.564612 240.765169,112.25661 240.765169,112.25661 C240.765169,112.25661 256.084229,135.010476 254.156479,138.197318 L262.241798,147.962247 C262.241798,147.962247 264.852682,151.632226 258.245929,158.312515 C251.639175,164.992805 252.631124,167.343449 252.631124,167.343449 C252.631124,167.343449 249.383895,177.414985 245.565828,180.350967 C241.74776,183.28695 243.048523,188.136896 243.048523,188.136896 L194.658264,207.267239 C194.658264,207.267239 179.545081,220.358377 176.503728,227.791244 C173.462375,235.224112 154.044508,261.815195 154.044508,261.815195 C154.044508,261.815195 152.650165,259.445969 151.433624,260.765303 C150.217083,262.084637 137.976809,277.591457 137.976809,277.591457 C137.976809,277.591457 132.886052,283.491295 131.922177,286.399405 C130.958303,289.307514 120.748716,298.895913 120.748716,298.895913 L114.909319,307.499457 C114.909319,307.499457 101.723885,311.931304 97.1291033,304.396235 C92.5343213,296.861166 106.795926,262.530609 106.795926,262.530609 L126.906285,230.522823 L148.177037,200.447583 L164.619058,182.264931 L202.05109,143.028682 L224.83784,115.006771 C224.83784,115.006771 234.991278,97.716063 238.266581,97.5581146 Z" id="Path" fill="#65617D"></path>
                        <path d="M217.321866,245.454719 L218.822627,255.719865 C218.822627,255.719865 227.545802,265.570724 235.706192,270.855203 L240.574287,272.908232 L241.512263,273.322521 L240.574287,272.816168 C236.081383,270.192341 233.436291,267.356767 232.132504,264.456748 C226.814181,252.838259 242.637834,240.262304 246.342838,237.546413 C246.708649,237.270221 246.943143,237.095299 247.04632,237.030854 L247.093219,237.030854 L246.952523,237.030854 C246.643444,237.09424 246.329864,237.134252 246.014547,237.150537 C245.74897,237.164233 245.482844,237.164233 245.217267,237.150537 L245.217267,237.150537 L235.856268,239.792777 L235.556116,240.004524 L217.321866,245.454719 Z" id="Path" fill="#000000" opacity="0.1"></path>
                        <path d="M239.161875,183.546929 L241.097504,187.440626 L235.364007,193.689305 C235.364007,193.689305 239.180223,196.804263 235.886902,201.767553 C232.593581,206.730844 232.217464,210.324304 232.217464,210.324304 C232.217464,210.324304 232.749532,221.067154 228.850754,225.336147 L229.98828,231.275207 C229.98828,231.275207 239.794853,238.133743 245.023803,236.857736 C245.023803,236.857736 213.6868,259.178471 239.583861,273.880694 C239.583861,273.880694 208.063386,259.807091 205.641557,260.032269 C203.219728,260.257447 192.578357,256.861017 190.046445,247.000113 C187.514532,237.139208 191.486699,230.721646 191.486699,230.721646 C191.486699,230.721646 194.431423,216.085099 195.523081,214.640209 C196.614739,213.195319 193.63332,206.824668 193.63332,206.824668 L207.448755,176.172361 L239.161875,183.546929 Z" id="Path" fill="#65617D"></path>
                        <path d="M210.457113,60.0314195 L210.457113,60.0874832 L210.457113,60.0874832 L209.082702,62.0403678 L209.082702,62.0403678 L203.613297,69.8425622 L202.671919,71.1694024 L201.316335,73.122287 L201.316335,73.122287 L198.906408,76.5982347 L188.748942,86.5775684 L187.054462,88.2407907 L170.872178,104.125498 L135.156306,139.240045 L109.136624,154.190357 C109.136624,154.190357 105.418182,156.059146 101.605602,158.021375 L102.707014,155.49851 C106.717283,146.416195 110.686759,137.505186 114.615443,128.765482 C114.620894,128.73457 114.620894,128.702954 114.615443,128.672042 C129.573935,95.4169408 143.901705,64.7968317 156.977442,37.9797084 C157.197255,38.0768398 157.408269,38.1925057 157.608165,38.3254343 C160.554678,40.2783189 164.037775,42.2405475 165.365118,42.997407 L165.920531,43.3057572 C166.491558,44.2136455 167.120423,45.084405 167.803286,45.912718 C168.885871,47.2115264 170.232041,48.482303 171.342867,48.482303 C173.583346,48.482303 184.18326,55.2005997 185.717705,56.8918539 C186.419261,57.534019 187.208335,58.0750389 188.061736,58.4990125 C190.53756,59.8725724 193.851209,61.2274445 193.851209,61.2274445 L201.589335,62.5262529 L201.890575,62.5823166 L201.984713,62.5823166 C204.065158,62.853291 208.574358,60.9004064 209.958183,60.2463303 L209.958183,60.2463303 L210.353562,60.0687953 L210.353562,60.0687953 L210.457113,60.0314195 Z" id="Path" fill="#000000" opacity="0.1"></path>
                        <path d="M209.809066,63.4686703 L209.809066,63.4686703 L209.809066,63.4686703 L209.809066,63.4686703 L208.107237,65.4934247 L201.935769,72.8215497 L200.935244,74.0196842 L200.935244,74.0196842 L200.860438,74.0846993 L197.120155,78.5335863 L186.123722,89.3446605 L184.403192,91.0350518 L172.060257,103.174291 L133.79716,140.808717 L107.951803,155.6693 L102.818264,158.27919 C106.801666,149.251386 110.744548,140.393859 114.64691,131.70661 C114.652324,131.675884 114.652324,131.644457 114.64691,131.613731 C129.505185,98.5582219 143.736962,68.1218903 156.725096,41.4657196 C156.799902,41.3171137 156.865357,41.1685079 156.940162,41.0291899 C160.465379,43.3047167 164.420729,45.4409255 164.420729,45.4409255 C164.420729,45.4409255 164.673198,45.8588794 165.084629,46.4440149 C165.802517,47.4855945 166.619807,48.4560195 167.525164,49.3418286 C168.120527,50.0126999 168.935093,50.4534246 169.825438,50.5864024 C172.050906,50.5864024 182.579804,57.2643769 184.103969,58.9454803 C185.224495,59.9064686 186.485684,60.6925459 187.844252,61.2767343 C189.994915,62.3541266 192.182981,63.2457615 192.182981,63.2457615 L200.159135,64.6017897 C202.272395,64.9547286 208.097886,63.7658819 209.509843,63.4593824 C209.58756,63.4673336 209.665894,63.4673336 209.743611,63.4593824 C209.743611,63.4593824 209.743611,63.4593824 209.743611,63.4593824 L209.799715,63.4593824 L209.809066,63.4686703 Z" id="Path" fill="#65617D"></path>
                        <path d="M94.6458964,214.870332 L93.8133418,215.301894 L93.1914334,215.625565 L80.3119126,222.35074 L80.1815124,222.215877 L76.4500625,218.475673 L76.0388005,218.071083 L76.8011398,217.720439 L89.5001066,211.948298 L90.3125997,211.579672 L91.1953083,211.184073 C92.3488479,212.397841 93.4923568,213.629591 94.6458964,214.870332 Z" id="Path" fill="#3F3D56"></path>
                        <path d="M245.747042,161.174171 C245.747042,161.174171 239.799665,155.269575 236.149378,158.969789 C232.499092,162.670002 245.747042,161.174171 245.747042,161.174171 Z" id="Path" fill="#000000" opacity="0.1"></path>
                        <path d="M227.683164,206.673405 C227.683164,206.673405 225.861538,221.395316 220.61194,221.560937 C215.362343,221.726559 227.683164,206.673405 227.683164,206.673405 Z" id="Path" fill="#000000" opacity="0.1"></path>
                        <path d="M106.893806,197.073904 C106.938176,195.823295 114.880406,160.576345 109.910966,158.921127 L106.893806,197.073904 Z" id="Path" fill="#000000" opacity="0.1"></path>
                        <path d="M226.668648,37.356175 C222.400866,41.2684461 219.175068,46.1659582 217.278377,51.6127909 L217.491793,51.7783516 C219.347577,53.0844416 222.066302,52.1738577 224.423149,52.3210228 C227.38698,52.5099868 229.901073,54.5473111 230.677143,57.3890198 C231.316002,60.380957 230.190997,63.4735086 227.77284,65.3727247 C232.022587,62.9904902 235.483626,59.338957 239.724094,56.9383268 C243.964562,54.5376966 249.754611,53.7006953 252.909445,56.9383268 C254.264168,58.3363949 255.257013,60.5070797 257.298376,60.5530688 C258.523194,60.5530688 259.67378,59.7712544 260.898598,59.5045177 C266.957736,58.3271971 271.727102,67.3134641 272.487974,72.0687353 C273.239567,76.6676437 273.285962,83.1061154 274.993284,88.3396732 C289.20126,75.1118377 289.901262,52.9713955 276.556782,38.8876114 C263.212303,24.8038274 240.876624,24.1099439 226.668648,37.3377793 L226.668648,37.356175 Z" id="Path" fill="#000000" opacity="0.1"></path>
                        <path d="M261.374375,56.9034178 C260.137954,57.1648339 258.985835,57.9957638 257.740048,57.9677549 C255.688714,57.9677549 254.677097,55.7177088 253.309541,54.2985926 C250.134188,50.9935456 244.289291,51.8338118 240.008653,54.2985926 C235.728015,56.7633734 232.23419,60.4512083 227.934819,62.8693076 C230.383361,60.946867 231.52074,57.8030128 230.866634,54.7654071 C230.083213,51.8809162 227.545304,49.8129197 224.553396,49.6211108 C222.174223,49.4717302 219.448478,50.396023 217.565747,49.0609334 C215.683015,47.7258438 215.795417,44.6728767 216.985004,42.469512 C218.17459,40.2661474 220.132256,38.5295973 221.574747,36.466277 C224.309859,32.5637074 225.049838,27.7461813 227.19484,23.5075052 C229.79374,18.3845261 234.195616,14.3958641 239.559046,12.3039561 C242.369092,11.2209464 245.385209,10.726123 248.213989,9.6524495 C252.513361,8.02793488 256.353758,5.09633954 260.765532,3.88262172 C268.146588,1.84731031 276.286356,5.61917183 279.040202,12.3413013 C280.360924,15.5436491 280.538894,19.2128114 282.000118,22.3498051 C283.967151,26.551136 287.966784,29.2866693 291.54491,32.199592 C295.123036,35.1125148 298.607494,38.7349957 298.897866,43.5058403 C299.235071,48.9582342 295.244805,54.214566 295.151137,59.704305 C295.151137,62.0103689 295.778714,64.2230698 295.891116,66.5104611 C296.003517,68.7978524 295.432141,71.4026775 293.530676,72.8778115 C291.076569,74.7917511 286.973901,74.4743172 285.606345,77.2378593 C285.268152,78.0967481 285.102656,79.0135263 285.11927,79.9360474 C284.824662,84.7456333 283.413825,89.4213754 280.997868,93.595041 C273.719847,89.4310553 274.309957,77.097815 273.111003,69.6941363 C272.305457,64.8299287 267.500277,55.7083725 261.374375,56.9034178 Z" id="Path" fill="#7C5C5C"></path>
                        <path d="M220.146271,178.606527 C220.146271,178.606527 194.600011,201.694208 194.103225,206.104738 C193.606439,210.515268 220.146271,178.606527 220.146271,178.606527 Z" id="Path" fill="#000000" opacity="0.1"></path>
                        <path d="M288.898214,76.0795671 C290.272478,73.5134359 294.434534,73.7354196 297.016187,72.0483436 C296.639688,72.8622228 296.042055,73.5769101 295.278724,74.1261108 C293.39402,75.4580129 290.576779,75.6622378 288.642993,76.7011214 C288.704677,76.4866815 288.790186,76.2784365 288.898214,76.0795671 L288.898214,76.0795671 Z" id="Path" fill="#000000"></path>
                        <path d="M230.812679,63.0292845 C235.039423,60.6185605 238.528614,56.9931305 242.77427,54.6197821 C247.019925,52.2464336 252.995992,51.3307322 256.201509,54.6197821 C257.582056,56.0400536 258.603283,58.245212 260.674103,58.2919315 C261.931725,58.2919315 263.094789,57.4883568 264.342955,57.2267278 C270.52705,56.0307097 275.377876,65.1596918 276.162708,69.9904837 C277.344683,77.2319997 276.805702,89.1548053 283.623336,93.5931538 C283.207281,94.527543 282.772314,95.3591493 282.271156,96.2187874 C274.923998,92.0514117 275.519713,79.7081309 274.309371,72.2984249 C273.524539,67.467633 268.635889,58.3386509 262.489618,59.534669 C261.241452,59.796298 260.078388,60.6279043 258.820766,60.5998727 C256.749945,60.5998727 255.728719,58.3479948 254.348172,56.9277233 C251.142655,53.6199857 245.242234,54.4609359 240.920932,56.9277233 C236.599631,59.3945107 233.072616,63.0853478 228.732403,65.5054157 C229.584286,64.8236731 230.291281,63.9821443 230.812679,63.0292845 Z" id="Path" fill="#000000" opacity="0.362002418"></path>
                        <path d="M219.740952,42.7378139 C218.685055,44.9493093 218.552028,47.9948009 220.25643,49.3535587 C221.960831,50.7123165 224.346993,49.7658714 226.458787,49.9158033 C229.115641,50.1100487 231.369991,52.1841276 232.07084,55.0790829 C232.610903,57.9756666 231.720635,60.975133 229.742877,62.922395 C230.569043,61.2381118 230.81476,59.2694709 230.432952,57.3936565 C229.737574,54.4985213 227.484882,52.4228936 224.829213,52.2303769 C222.717419,52.080445 220.298,53.0081486 218.626856,51.6681323 C216.955711,50.328116 217.055481,47.2638829 218.111378,45.0523875 C218.765466,43.7858886 219.537504,42.6016045 220.414399,41.5196173 C220.169522,41.9109012 219.944674,42.317629 219.740952,42.7378139 L219.740952,42.7378139 Z" id="Path" fill="#000000" opacity="0.362002418"></path>
                        <path d="M229.890393,23.7195157 C227.959432,27.6333088 227.32717,32.0815847 224.763948,35.6850329 C224.259847,36.4177915 223.687394,37.098826 223.114941,37.7798605 C225.592723,34.1850329 226.267705,29.7453778 228.190122,25.848826 C229.059918,24.0943305 230.170146,22.4720954 231.488135,21.0298605 C230.886608,21.88284 230.352385,22.7821552 229.890393,23.7195157 L229.890393,23.7195157 Z" id="Path" fill="#000000" opacity="0.362002418"></path>
                        <ellipse id="Oval" fill="#E6E8EC" cx="297.294077" cy="253.093427" rx="1.86070959" ry="1.86111111"></ellipse>
                    </g>
                </g>
            </g>
        </g>
    </g>
</svg>