<svg xmlns="http://www.w3.org/2000/svg" width="32" height="30" viewBox="0 0 32 30">
    <g fill="none" fill-rule="evenodd">
        <path fill="#FFDC64" d="M31.245 10.838L20.88 9.893l-4.117-9.4c-.288-.658-1.238-.658-1.526 0l-4.117 9.4-10.365.945c-.726.066-1.019.953-.471 1.426l7.82 6.754-2.289 9.984c-.16.699.608 1.247 1.235.881L16 24.658l8.95 5.225c.627.366 1.395-.182 1.235-.881l-2.289-9.984 7.82-6.754c.548-.473.255-1.36-.471-1.426z"/>
        <path fill="#FFC850" d="M16.942.494c-.291-.659-1.25-.659-1.542 0l-4.16 9.399-10.477.945c-.733.066-1.03.953-.476 1.426l7.904 6.754-2.313 9.984c-.162.699.614 1.247 1.247.881l2.02-1.166C9.423 17.527 14.767 9.648 19 5.141L16.942.494z"/>
    </g>
</svg>
